<svg width="34" height="30" viewBox="0 0 34 30" fill="none" xmlns="http://www.w3.org/2000/svg">
<path d="M12.3092 13.8289C13.6313 14.3045 14.1063 14.5422 14.9199 13.8289C15.7338 13.1156 15.5978 12.8437 15.5978 10.9752C15.5978 9.10668 14.3499 8.79742 14.3499 8.79742C12.5905 9.34557 11.0765 10.4522 10.0142 11.91C10.4658 13.4174 10.9867 13.3534 12.3092 13.8289Z" fill="#CE0000"/>
<path d="M23.8637 12.073C22.8147 10.5552 21.3077 9.43928 19.6015 8.86002C18.3012 9.74335 18.5181 10.2219 18.4612 11.6285C18.4043 13.0352 18.32 13.56 19.243 14.1245C20.1659 14.6889 20.3844 14.4778 22.1634 13.9182C23.9428 13.3589 23.8637 12.073 23.8637 12.073Z" fill="#CE0000"/>
<path d="M22.3933 16.6682C21.0497 17.08 20.5275 17.1737 20.3016 18.2334C20.0758 19.293 20.3467 19.4293 21.4626 20.9267C22.5785 22.4237 23.7628 21.9234 23.7628 21.9234C24.8451 20.4293 25.3973 18.6348 25.3781 16.83C24.1158 15.893 23.7369 16.2567 22.3933 16.6682Z" fill="#CE0000"/>
<path d="M16.7095 20.5915C15.6342 20.7071 15.5895 21.0078 14.5183 22.5371C13.4471 24.0667 14.2914 25.0382 14.2914 25.0382C16.0456 25.6019 17.9193 25.5678 19.6247 24.9859C20.1193 23.4919 19.6562 23.2445 18.8463 22.0941C18.0365 20.9437 17.7844 20.4759 16.7095 20.5915Z" fill="#CE0000"/>
<path d="M10.8269 16.3959C9.04532 15.8437 8.38184 16.9471 8.38184 16.9471C8.38479 18.7934 8.99209 20.5693 10.0681 22.0171C11.639 22.03 11.7318 21.5126 12.576 20.3874C13.4202 19.2622 13.7873 18.8782 13.3474 17.8882C12.9076 16.8985 12.6085 16.9482 10.8269 16.3959Z" fill="#CE0000"/>
<path d="M16.9021 14.943C17.2679 14.943 17.5645 14.6459 17.5645 14.2793C17.5645 13.9128 17.2679 13.6156 16.9021 13.6156C16.5363 13.6156 16.2397 13.9128 16.2397 14.2793C16.2397 14.6459 16.5363 14.943 16.9021 14.943Z" fill="#CE0000"/>
<path d="M19.4214 16.8634C19.7872 16.8634 20.0838 16.5662 20.0838 16.1997C20.0838 15.8331 19.7872 15.5359 19.4214 15.5359C19.0556 15.5359 18.759 15.8331 18.759 16.1997C18.759 16.5662 19.0556 16.8634 19.4214 16.8634Z" fill="#CE0000"/>
<path d="M18.4661 19.703C18.8319 19.703 19.1285 19.4058 19.1285 19.0393C19.1285 18.6727 18.8319 18.3756 18.4661 18.3756C18.1003 18.3756 17.8037 18.6727 17.8037 19.0393C17.8037 19.4058 18.1003 19.703 18.4661 19.703Z" fill="#CE0000"/>
<path d="M15.3977 19.7771C15.7635 19.7771 16.0601 19.4799 16.0601 19.1133C16.0601 18.7468 15.7635 18.4496 15.3977 18.4496C15.0319 18.4496 14.7354 18.7468 14.7354 19.1133C14.7354 19.4799 15.0319 19.7771 15.3977 19.7771Z" fill="#CE0000"/>
<path d="M14.3816 16.7434C14.7474 16.7434 15.044 16.4462 15.044 16.0797C15.044 15.7131 14.7474 15.416 14.3816 15.416C14.0158 15.416 13.7192 15.7131 13.7192 16.0797C13.7192 16.4462 14.0158 16.7434 14.3816 16.7434Z" fill="#CE0000"/>
<path d="M33.3916 19.523C33.5091 18.7156 33.5679 17.8908 33.5679 17.0711C33.5679 16.2845 33.5139 15.4937 33.4056 14.7215L32.9842 14.7804C32.7639 13.1982 32.3248 11.6889 31.6891 10.2841L32.0724 10.1104C31.413 8.64854 30.5451 7.28669 29.4927 6.06373L29.1752 6.3378C28.155 5.15077 26.9719 4.11225 25.656 3.25632L25.8837 2.90447C24.5342 2.02632 23.0704 1.34928 21.5335 0.890766L21.4149 1.29077C19.9378 0.850396 18.3765 0.605952 16.7575 0.602618L16.7239 0.193359C15.1108 0.193359 13.5152 0.421878 11.9812 0.872618L12.0987 1.27373C10.5777 1.72003 9.1517 2.38188 7.84838 3.22188L7.61995 2.86706C6.27229 3.73669 5.05325 4.7941 3.99944 6.01077L4.31732 6.28817C3.29678 7.46595 2.44404 8.78891 1.78721 10.2241L1.40058 10.0471C0.731553 11.5108 0.27691 13.06 0.0495879 14.6534L0.472813 14.7137C0.361924 15.4859 0.285411 16.2689 0.285411 17.0715C0.285411 17.8619 0.360076 18.6334 0.467638 19.3941L0.0466309 19.4534C0.157889 20.25 0.32681 21.0363 0.551174 21.8063C0.625839 22.063 0.706788 22.3182 0.79402 22.5711C0.962201 23.1174 1.1825 23.6319 1.1825 24.1463C1.32924 24.073 1.47599 24.073 1.62273 23.9993C1.62273 25.3959 1.03576 26.7926 1.69591 28.1156C1.54917 28.1156 1.84266 28.1156 1.69591 28.1156C4.48365 30.1737 7.78444 29.1445 11.0072 29.6256C11.4367 29.6345 11.8662 29.63 12.2932 29.6148C12.7205 29.5996 13.1452 29.5745 13.5651 29.5411C14.1214 29.5085 14.6758 29.4722 15.2258 29.4426C15.7758 29.413 16.3214 29.3893 16.8596 29.3826C17.356 29.3763 17.8516 29.3759 18.347 29.3811C18.7994 29.3663 19.2522 29.37 19.7046 29.3819C20.0776 29.4037 20.4535 29.4237 20.8316 29.4389C23.3362 29.5119 28.0309 29.1445 27.8845 28.9974C29.645 28.483 32.0657 29.7326 33.2397 28.1152C34.1201 27.0126 33.3128 25.6159 32.9462 24.293C32.9462 24.2197 32.6527 24.2197 32.5795 24.0726C32.3596 23.3374 32.3596 22.5289 32.4834 21.7715C32.574 21.3985 32.6715 21.0182 32.7558 20.633C32.8405 20.2478 32.9114 19.8571 32.9691 19.4622L33.3916 19.523ZM16.8828 27.3797C11.1133 27.3797 6.4364 22.6934 6.4364 16.9122C6.4364 11.1311 11.1133 6.44484 16.8828 6.44484C22.6524 6.44484 27.3293 11.1311 27.3293 16.9122C27.3293 22.693 22.652 27.3797 16.8828 27.3797Z" fill="#CE0000"/>
</svg>
