<svg width="104" height="104" viewBox="0 0 104 104" fill="none" xmlns="http://www.w3.org/2000/svg">
<path d="M41.9335 93.278C34.168 80.3154 60.2555 92.5781 74.7163 90.2967L95 90.2966C99.4183 90.2966 103 86.7149 103 82.2966L103 9.00002C103 4.58173 99.4183 1.00001 95 1.00002L8.9786 1.00022C5.35972 1.00022 2.42605 3.92278 2.42605 7.52793L2.41182 25.4835C5.7089 38.4461 -1.23229 60.3789 13.2286 52.6273C27.6895 44.8756 27.6895 70.8008 13.2286 65.5899C-1.23229 60.3789 0.155921 77.334 2.41182 90.2967C16.8727 88.3782 34.168 80.3154 27.4726 93.278C20.7917 106.241 49.7135 106.241 41.9335 93.278Z" fill="#B66CFF" stroke="#E0E2E7" stroke-width="3"/>
</svg>
