<svg width="91" height="69" viewBox="0 0 91 69" fill="none" xmlns="http://www.w3.org/2000/svg">
<path d="M61.2907 60.396C56.7049 73.3169 72.8773 65.6419 87.2528 66.598C87.3103 53.6771 95.5187 39.4901 81.1432 42.5911C66.7677 45.6921 66.7677 19.8504 81.1432 29.6702C95.5187 39.4901 88.3309 14.9146 87.2528 1.99373C72.8773 1.45106 48.9134 -2.11509 59.9106 10.8058C70.9079 23.7266 42.1569 23.7266 45.5352 10.8058C48.9134 -2.11509 29.7509 1.14096 15.3755 1.99373C12.8885 14.9146 26.1571 29.3084 11.7816 25.2254C-2.59387 21.1424 -2.59387 46.9842 11.7816 38.1463C26.1571 29.3084 16.4968 53.6772 15.3755 66.598C29.7509 64.3239 56.7049 73.3169 46.9152 60.396C37.1399 47.4751 65.8908 47.4751 61.2907 60.396Z" fill="white" stroke="#E0E2E7" stroke-width="3"/>
</svg>
