<svg width="96" height="83" viewBox="0 0 96 83" fill="none" xmlns="http://www.w3.org/2000/svg">
<path d="M61.7725 10.9167C52.9177 24.1391 77.867 18.6121 92.2886 15.8883C93.673 29.1107 100.278 52.7258 85.8565 44.8981C71.435 37.0705 71.435 63.5152 85.8565 58.1205C100.278 52.7258 91.4521 68.7777 92.2886 82L20.1807 82C21.4209 68.7777 26.2378 51.1391 11.8162 54.8149C-2.60539 58.4907 -2.60539 32.046 11.8162 41.5926C26.2378 51.1391 23.3967 29.1107 20.1807 15.8883C34.6023 13.7992 52.9177 24.1391 47.3509 10.9167C41.7842 -2.30559 70.6273 -2.30559 61.7725 10.9167Z" fill="white" stroke="#FFB545" stroke-width="3"/>
</svg>
