<svg width="94" height="73" viewBox="0 0 94 73" fill="none" xmlns="http://www.w3.org/2000/svg">
<path d="M65.6483 63.2629C60.4495 76.3641 78.3968 68.5296 93 69.9183L93 4.41219C78.3968 1.00587 64.0273 -3.10789 67.5613 9.99334C71.1098 23.0946 41.9035 23.0946 52.9581 9.99334C64.0273 -3.10789 34.5873 5.5651 19.9841 4.41219C18.553 17.5134 26.5556 35.6979 11.9524 30.5622C-2.6508 25.4266 -2.6508 51.629 11.9524 43.6635C26.5556 35.6979 20.9479 56.8171 19.9841 69.9183C34.5873 71.2022 60.4495 76.3641 51.0451 63.2629C41.626 50.1617 70.8324 50.1617 65.6483 63.2629Z" fill="white" stroke="#FFB545" stroke-width="3"/>
</svg>
