<svg width="113" height="70" viewBox="0 0 113 70" fill="none" xmlns="http://www.w3.org/2000/svg">
<path d="M62.8734 57.7612C53.2515 70.8138 76.2161 69.9784 90.7506 67.5768C93.0034 54.5242 86.5646 35.128 101.099 43.0379C115.634 50.9217 115.634 24.8165 101.099 29.9853C86.5646 35.128 91.0267 15.3664 90.7506 2.31381C76.2161 1.58287 53.4405 -2.85501 64.0071 10.1976C74.5737 23.2502 45.5046 23.2502 49.4726 10.1976C53.4405 -2.85501 32.6125 2.86203 18.078 2.31382C19.1681 15.3664 26.4354 40.1924 11.9009 30.2725C-2.63362 20.3525 -2.63362 46.4577 11.9009 43.3251C26.4354 40.1924 18.1362 54.5242 18.078 67.5768C32.6125 68.5427 53.2515 70.8138 48.3389 57.7612C43.4262 44.7086 72.4952 44.7086 62.8734 57.7612Z" fill="transparent" stroke="#E0E2E7" stroke-width="3"/>
</svg>
