<svg width="76" height="100" viewBox="0 0 76 100" fill="none" xmlns="http://www.w3.org/2000/svg">
<path d="M43.3018 89.2442C39.7216 76.2365 60.4462 83.9631 75 82.4022L75 17.3637C60.4462 15.9849 42.5596 23.7635 47.7407 10.7558C52.9073 -2.25192 23.7997 -2.25192 33.1869 10.7558C42.5596 23.7635 16.7848 18.6384 2.23095 17.3637C1.27039 30.3714 -2.7319 53.1089 11.8219 46.1107C26.3757 39.1386 26.3757 65.154 11.8219 59.1184C-2.7319 53.1088 2.65301 69.3945 2.23095 82.4022C16.7848 85.2899 39.7216 76.2365 28.748 89.2442C17.7599 102.252 46.8675 102.252 43.3018 89.2442Z" fill="white" stroke="#E0E2E7" stroke-width="3"/>
</svg>
