<svg width="79" height="83" viewBox="0 0 79 83" fill="none" xmlns="http://www.w3.org/2000/svg">
<path d="M45.1179 74.3825C37.298 87.4167 61.7657 78.4752 76.1669 79.7526C77.1174 66.7184 82.6475 45.7073 68.2463 53.6321C53.8451 61.5569 53.845 35.4885 68.2463 40.5979C82.6475 45.7073 74.7556 27.6158 76.1669 14.5816C61.7657 13.4346 45.2907 23.8098 48.819 10.7756C52.3617 -2.25854 23.5593 -2.25854 34.4178 10.7756C45.2907 23.8098 18.5621 11.0884 4.16083 14.5816C1.4966 27.6158 -3.74543 47.5321 10.6558 42.5791C25.057 37.6 25.057 63.6684 10.6558 55.6132C-3.74543 47.5321 7.77554 66.7184 4.16084 79.7526C18.5621 79.7786 37.2981 87.4167 30.7167 74.3825C24.1209 61.3483 52.9234 61.3483 45.1179 74.3825Z" fill="white" stroke="#FFB545" stroke-width="3"/>
</svg>
