<svg width="78" height="70" viewBox="0 0 78 70" fill="none" xmlns="http://www.w3.org/2000/svg">
<path d="M49.3341 61.631C38.5762 74.3741 61.7156 65.3008 76.4372 66.9817C76.7381 67.016 77 66.7824 77 66.4796L77 2.51839C62.3153 4.48021 41.2869 -1.09548 51.0963 11.8112C60.9056 24.7179 31.5363 24.7179 36.4116 11.8112C41.2869 -1.09548 18.2614 0.143564 3.57671 2.5184C1.30059 15.4251 -3.44255 34.243 11.2421 26.8346C25.9268 19.4261 25.9268 45.2395 11.2421 39.7413C-3.44255 34.243 5.07455 54.1451 3.57671 67.0518C18.2614 66.4323 38.4381 74.5377 34.6494 61.631C30.8755 48.7243 60.2448 48.7243 49.3341 61.631Z" fill="white" stroke="#FFB545" stroke-width="3"/>
</svg>
