<svg width="78" height="72" viewBox="0 0 78 72" fill="none" xmlns="http://www.w3.org/2000/svg">
<path d="M44.8591 63.1171C34.2769 76.113 59.3039 69.667 73.8799 67.3018C76.3724 54.3059 80.9638 40.7901 66.3878 44.1951C51.8119 47.6 51.8119 21.6081 66.3878 31.1991C80.9638 40.7901 77.3927 15.3181 73.8799 2.32217C59.3039 4.32355 35.7054 -2.72025 42.0897 10.2757C48.4885 23.2716 19.3366 23.2716 27.5137 10.2757C35.7054 -2.72025 15.576 1.46445 0.999998 2.32218L1 67.3018C15.576 65.4044 34.2769 76.113 30.2831 63.1171C26.2893 50.1212 55.4413 50.1212 44.8591 63.1171Z" fill="white" stroke="#FFB545" stroke-width="3"/>
</svg>
