<svg width="112" height="84" viewBox="0 0 112 84" fill="none" xmlns="http://www.w3.org/2000/svg">
<path d="M66.0832 73.3525C58.2187 60.4891 78.7659 67.564 93.4111 67.5897C97.0871 54.7264 85.3709 35.7915 100.016 43.7668C114.661 51.7163 114.661 25.9897 100.016 30.9035C85.3709 35.7916 90.7018 16.1363 93.4111 3.27297C78.7659 6.72034 57.135 -5.62848 65.0141 7.23487C72.8932 20.0982 43.6029 20.0982 50.3689 7.23487C57.135 -5.62848 34.8304 5.8199 20.1852 3.27297C24.0369 16.1363 26.6291 38.2613 11.9839 30.0802C-2.66129 21.8991 -2.66129 47.6258 11.9839 42.9435C26.6291 38.2613 16.6557 54.7264 20.1852 67.5897C34.8304 65.6088 58.2187 60.4891 51.438 73.3525C44.6719 86.2158 73.9623 86.2158 66.0832 73.3525Z" fill="white" stroke="#FFB545" stroke-width="3"/>
</svg>
