<svg width="93" height="86" viewBox="0 0 93 86" fill="none" xmlns="http://www.w3.org/2000/svg">
<path d="M66.5877 75.3121C63.0574 62.395 77.412 66.4509 92 69.8094L92 5.22366C77.412 7.49708 51.0952 -4.72258 58.929 8.19457C66.7773 21.1117 37.6013 21.1117 44.341 8.19457C51.0952 -4.72258 33.648 3.31192 19.06 5.22367C21.3357 18.1408 26.529 37.4132 11.941 29.4563C-2.64701 21.5251 -2.647 47.3594 11.941 42.3734C26.529 37.4132 20.4896 56.8923 19.06 69.8094C33.648 70.9461 63.0574 62.395 51.9997 75.3121C40.9566 88.2293 70.1326 88.2293 66.5877 75.3121Z" fill="white" stroke="#FFB545" stroke-width="3"/>
</svg>
