<svg width="81" height="96" viewBox="0 0 81 96" fill="none" xmlns="http://www.w3.org/2000/svg">
<path d="M49.4386 85.3266C41.6622 72.4286 63.0114 84.8106 77.4658 81.354C80.1399 68.4561 83.9414 49.006 69.4869 56.6416C55.0325 64.2514 55.0325 38.4555 69.4869 43.7437C83.9414 49.006 78.2174 29.7623 77.4658 16.8644C63.0114 20.2179 38.4533 23.5714 44.6542 10.6734C50.8552 -2.22448 21.9463 -2.22448 30.1998 10.6734C38.4533 23.5714 19.648 17.4577 5.1936 16.8644C8.83613 29.7623 -3.95606 48.6707 10.4984 40.3902C24.9528 32.1098 24.9528 57.9056 10.4984 53.2881C-3.95606 48.6707 1.39209 68.4561 5.1936 81.354C19.648 83.9078 41.6622 72.4286 34.9842 85.3266C28.3063 98.2245 57.2151 98.2245 49.4386 85.3266Z" fill="white" stroke="#FFB545" stroke-width="3"/>
</svg>
