<svg width="77" height="71" viewBox="0 0 77 71" fill="none" xmlns="http://www.w3.org/2000/svg">
<path d="M40.8328 61.0872C34.6548 74.0733 58.6034 69.632 73.0042 67.5802C69.7928 54.5941 82.9264 35.8941 68.5256 39.6601C54.1247 43.4261 54.1247 17.4539 68.5256 26.674C82.9264 35.8941 71.881 15.6358 73.0042 2.64971C58.6034 4.93527 38.327 -1.47987 43.0937 11.5062C47.8748 24.4923 19.073 24.4923 28.6928 11.5062C38.327 -1.47987 15.4008 0.312212 0.999998 2.64971L1 67.5802C15.4008 69.0606 34.6548 74.0733 26.4319 61.0872C18.1946 48.1011 46.9963 48.1011 40.8328 61.0872Z" fill="white" stroke="#E0E2E7" stroke-width="3"/>
</svg>
