<svg width="91" height="85" viewBox="0 0 91 85" fill="none" xmlns="http://www.w3.org/2000/svg">
<path d="M59.964 74.2848C52.2217 61.3312 75.4194 66.2795 90 66.6422L90 1.87408C75.4194 3.42851 54.6566 -4.26594 58.2434 8.68767C61.8157 21.6413 32.6545 21.6413 43.6628 8.68767C54.6566 -4.26594 31.6776 4.74979 17.097 1.87409C16.6741 14.8277 26.5161 31.4601 11.9354 25.8901C-2.64515 20.3459 -2.64515 46.2532 11.9354 38.8437C26.5161 31.4601 16.82 53.6885 17.097 66.6422C31.6776 67.3676 52.2217 61.3312 45.3834 74.2848C38.5305 87.2384 67.6917 87.2384 59.964 74.2848Z" fill="transparent" stroke="#E0E2E7" stroke-width="3"/>
</svg>
