<svg width="77" height="88" viewBox="0 0 77 88" fill="none" xmlns="http://www.w3.org/2000/svg">
<path d="M41.6192 77.1666C35.3081 64.0553 58.6364 71.1616 73.0455 69.1425C69.5729 56.0313 79.3855 39.2489 64.9764 44.0214C50.5673 48.7939 50.5673 22.5713 64.9764 30.9101C79.3855 39.2488 76.8351 16.6975 73.0455 3.58627C58.6364 0.990235 39.1553 -2.81199 44.7172 10.2993C50.2647 23.4105 21.4465 23.4105 30.3081 10.2993C39.1553 -2.81199 15.4091 3.69116 0.999998 3.58627L1 69.1425C15.4091 68.2772 35.3081 64.0553 27.2102 77.1666C19.1266 90.2778 47.9448 90.2778 41.6192 77.1666Z" fill="white" stroke="#E0E2E7" stroke-width="3"/>
</svg>
