<svg width="79" height="90" viewBox="0 0 79 90" fill="none" xmlns="http://www.w3.org/2000/svg">
<path d="M43.5217 79.2263C38.7066 66.1948 59.1891 72.6324 73.7364 70.3388C74.8711 57.3073 84.6469 32.7298 70.0996 41.6433C55.5523 50.5569 55.5523 24.4938 70.0996 28.6118C84.6469 32.7297 71.2197 18.2126 73.7364 5.18104C59.1891 6.04112 32.9749 -4.22774 43.7545 8.80382C54.5195 21.8354 25.4249 21.8354 29.2072 8.80382C32.9749 -4.22774 15.5473 2.36622 0.999998 5.18104L0.999999 70.3388C15.5473 67.9931 38.7065 66.1948 28.9744 79.2263C19.2568 92.2579 48.3514 92.2579 43.5217 79.2263Z" fill="white" stroke="#FFB545" stroke-width="3"/>
</svg>
