<svg width="91" height="86" viewBox="0 0 91 86" fill="none" xmlns="http://www.w3.org/2000/svg">
<path d="M45.1435 75.206C39.5274 62.1473 59.1985 65.9343 73.7481 68.5199C69.9215 55.4613 64.5382 35.4293 79.0878 40.1043C93.6374 44.7793 93.6374 18.662 79.0878 27.0456C64.5382 35.4293 77.4146 16.2853 73.7481 3.2266C59.1985 2.6259 41.6516 -1.55286 45.5073 11.5058C49.3629 24.5645 20.2637 24.5645 30.9576 11.5058C41.6516 -1.55286 15.5496 0.0402858 0.999998 3.2266L1 68.5199C15.5496 68.6244 39.5274 62.1473 30.5939 75.206C21.6459 88.2647 50.7451 88.2647 45.1435 75.206Z" fill="white" stroke="#FFB545" stroke-width="3"/>
</svg>
