<svg width="99" height="68" viewBox="0 0 99 68" fill="none" xmlns="http://www.w3.org/2000/svg">
<path d="M45.6718 56.5658C41.2372 69.488 61.68 67.5238 76.2196 65.6113C73.9514 52.6891 72.5556 35.7867 87.0953 40.9815C101.635 46.1762 101.635 20.3318 87.0953 28.0593C72.5556 35.7868 79.5347 13.9223 76.2196 1L3.52138 1C0.77339 13.9223 -2.86152 34.2102 11.6781 29.0413C26.2178 23.8724 26.2178 49.717 11.6781 41.9636C-2.86152 34.2102 2.76532 52.6891 3.52139 65.6113C18.061 62.2515 41.2372 69.488 31.1322 56.5658C21.0271 43.6435 50.1064 43.6435 45.6718 56.5658Z" fill="white" stroke="#E0E2E7" stroke-width="3"/>
</svg>
