<svg width="184" height="164" viewBox="0 0 184 164" fill="none" xmlns="http://www.w3.org/2000/svg">
<path
        d="M158.763,104.052c1.768.682,3.089.392,4.059.438.959.046,1.484-.169,1.793-.438.32-.278.572-.756.695-1.562.123-.807.098-1.837-.044-3.0801-.2-1.7558-.611-3.778-1.061-5.9931-.192-.9447-.391-1.9245-.584-2.9337-.635-3.3233-1.187-6.901-1.078-10.2734.096-2.9761-.116-6.1338-.322-9.2064-.015-.226-.03-.4516-.045-.6766-.216-3.2457-.404-6.4065-.131-8.9841.269-2.5318,1.015-4.8622,3.007-6.0048c1.975-1.1325,4.758-.8554,8.442.6709l.001.0006c3.375,1.4046,5.686.8776,7.15-.3183c1.524-1.2452,2.355-3.395,2.355-5.6211c0-2.2302-.832-4.2981-2.324-5.4206-1.428-1.0752-3.728-1.4742-7.132.1624-3.766,1.8169-6.72,1.8824-8.822.1628-1.982-1.6223-2.842-4.5822-3.194-7.8354-.358-3.3157-.217-7.2377.066-11.1049.142-1.939.321-3.8782.493-5.7324l.025-.2591c.129-1.3893.253-2.7267.356-3.985-3.306-.1818-7.106.1105-10.944.5228-1.365.1467-2.739.3092-4.094.4694-2.793.3302-5.503.6506-7.876.8019-1.772.1129-3.409.1363-4.805-.0068-1.373-.1408-2.638-.4534-3.564-1.11-1.003-.7106-1.527-1.7665-1.458-3.1028.064-1.2498.641-2.7047,1.657-4.38354.917-1.51666,1.241-2.75417,1.219-3.73212-.022-.95947-.379-1.74695-.98-2.39438C130.376,1.77918,128.016,1,125.437,1c-2.569,0-5.036.77565-6.447,2.15654-.688.67232-1.126,1.48464-1.239,2.45288-.114.97832.095,2.20371.86,3.70235l.001.00079c.855,1.67924,1.349,3.11664,1.455,4.33784.109,1.2538-.191,2.3309-.965,3.1423-.741.7755-1.794,1.1788-2.93,1.3848-1.147.208-2.495.2359-3.955.1634-2.438-.121-5.345-.533-8.383-.9638-.59-.0836-1.185-.168-1.783-.251-3.708-.5155-7.5507-.9881-11.1054-.9944-3.6982-.0067-7.7498-.4671-11.5753-.9382-.4222-.052-.8414-.1041-1.2569-.1557-3.3807-.4201-6.5206-.8102-9.1087-.8826-1.4506-.0406-2.6734.0212-3.6342.2152-.9748.1969-1.5564.5054-1.8691.8541-.274.3053-.4552.7686-.328,1.5992.018616.121577.019105,1.657684.792969,3.219.727481,1.467736,1.794754,1.944647,2.231731,2.969894.309366.725841.484682,1.262095.422579,2.595898-.058469,1.255751-.643931,2.56392-1.250179,3.290981-.718299.694684-2.824394,1.73405-4.666487,2.111736-1.058345.216994-3.75.51395-3.75.51395s-3.568555-.341471-5.131513-1c-.619449-.260995-1.471312-.612168-2.2924-1.166667-1.207745-.815616-1.788595-2.863433-1.788595-2.863433s-.751347-1.476307-.524707-2.998653c.252281-1.694585,1.485302-3.892859,1.485302-3.892859m0,0c0,0,.828-1.262647.828-1.262647s.258514-1.043406.2503-1.5172c-.0143-.8276-.559-1.3343-1.0783-1.8032-.5522-.4986-1.413-.9008-2.6124-1.1778-1.1904-.2749-2.6394-.4096-4.2923-.4295-5.0621-.0608-11.6262.9453-17.7121,1.8782-1.5348.2352-3.0391.4658-4.4813.6734c1.6605,6.5022,3.2441,15.5952,2.7709,22.1931-.1257,1.7532-.3991,3.3731-.8773,4.7406-.4765,1.3621-1.1826,2.548-2.2235,3.3316-2.1974,1.6542-5.232,1.1227-8.9368-1.3295-3.49159-2.3111-5.7823-2.2691-7.1189-1.5054-1.38259.7898-2.218403,2.6105-2.218403,4.8581c0,2.2195.830443,4.5854,2.428813,6.181c1.55558,1.5528,3.91825,2.4597,7.23169,1.681c3.714-.8727,6.4843-.7357,8.4029.4749c1.9628,1.2386,2.7386,3.4046,2.9299,5.834.1914,2.4311-.1812,5.3466-.7341,8.4046-.3004,1.6616-.6705,3.4436-1.0433,5.239-.3041,1.4643-.61,2.9376-.8815,4.3615-.5241,2.7488-1.2936,5.7418-2.0407,8.6476-.1483.5767-.2957,1.15-.4401,1.7172-.8805,3.4587-1.6463,6.6785-1.8927,9.2269-.1233,1.275-.1089,2.315.0546,3.101.1629.783.4472,1.197.7698,1.41.324.214.8902.359,1.9103.158c1.0213-.201,2.3809-.73,4.1535-1.703c3.8225-2.098,6.9756-2.096,9.2129-.565c2.1758,1.489,3.1576,4.212,3.1576,6.859c0,2.661-.9843,5.493-3.0595,7.33-2.1299,1.886-5.2469,2.581-9.1585,1.22-1.7605-.613-2.9835-.793-3.8096-.711-.7672.075-1.1558.366-1.4001.77-.2855.471-.4496,1.225-.4385,2.339.0108,1.096.1881,2.418.4683,3.93.2499,1.348.5741,2.81.9177,4.359.0409.184.082.37.1233.557.387,1.748.7879,3.592,1.1139,5.453.5705,3.257.9269,6.641.554,9.748c1.4005-.093,2.8398-.203,4.2983-.315l.0641-.005c1.9108-.146,3.853-.295,5.7646-.408c3.8138-.226,7.5583-.314,10.7608.046c3.1668.356,6.0027,1.169,7.8115,2.918c1.8995,1.837,2.4636,4.49,1.5505,7.975-.3804,1.452-.297,2.666.0718,3.676.371,1.016,1.0544,1.889,1.9703,2.609C53.675,162.23,56.403,163,58.9582,163c2.615,0,4.6614-.794,5.4844-2.004.7137-1.049.8146-2.965-1.8713-6.114-1.427-1.673-2.3573-3.157-2.7881-4.482-.4406-1.356-.3721-2.604.2897-3.657.6342-1.009,1.7128-1.673,2.9426-2.125c1.2415-.456,2.753-.739,4.4129-.908c3.3212-.339,7.4272-.241,11.5677-.031c1.7655.09,3.5281.2,5.2486.307c2.3592.146,4.6395.288,6.7403.367c3.5695.135,7.5397-.115,11.481-.37l.242-.016c3.831-.248,7.636-.494,10.892-.359c3.274.135,6.255.659,8.15,2.185.984.794,1.659,1.844,1.925,3.175.261,1.305.115,2.816-.41,4.541-.444,1.459-.409,2.672-.086,3.674.325,1.007.964,1.87,1.842,2.584c1.777,1.447,4.462,2.217,7.019,2.217c2.607,0,4.711-.79,5.604-2.027.776-1.074.939-2.985-1.593-6.11-1.355-1.671-2.24-3.138-2.654-4.431-.421-1.317-.374-2.533.261-3.552.612-.982,1.657-1.598,2.835-1.997c1.188-.403,2.634-.626,4.22-.736c3.173-.221,7.116,0,11.124.315c1.297.101,2.599.212,3.89.322c2.347.201,4.655.398,6.814.527.051-3.106.566-6.606,1.138-10.012.141-.842.286-1.677.428-2.501.51-2.945.994-5.742,1.211-8.158.138-1.542.162-2.872.027-3.945-.137-1.089-.423-1.789-.792-2.195-.326-.358-.874-.873-1.731-.873-.112372.007379-1.99198-.650812-4.059,0-2.374739.7477-4.5613,2.503585-6.926,2.028143-1.542754-.372558-4.375598-2.489655-4.978791-5.697986-.694945-3.696351,1.089597-7.816139,2.152986-8.889157.576902-.6,1.061851-1.056365,1.838665-1.562c1.05271-.685218,2.480607-1.166525,3.576232-1.170687c2.464326-.01582,3.455564,2.402687,4.336908,2.732687" fill="transparent" stroke="#e0e2e7" stroke-width="3" />
</svg>
