<svg width="75" height="88" viewBox="0 0 75 88" fill="none" xmlns="http://www.w3.org/2000/svg">
<path d="M48.3996 77.1747C38.7052 64.0744 59.4873 69.7337 74 67.7425L74 2.24068C59.4873 1.87386 36.3977 -3.13048 44.1039 9.96988C51.7956 23.0702 22.7703 23.0702 29.5912 9.96988C36.3977 -3.13048 15.9493 2.9743 1.43664 2.24068C1.71238 15.341 -2.74301 35.175 11.7697 30.0134C26.2823 24.8257 26.2823 51.0264 11.7697 43.1138C-2.74301 35.175 3.6861 54.6421 1.43664 67.7425C15.9493 65.332 38.7052 64.0744 33.887 77.1747C29.0688 90.2751 58.0941 90.2751 48.3996 77.1747Z" fill="transparent" stroke="#E0E2E7" stroke-width="3"/>
</svg>
