<svg width="96" height="89" viewBox="0 0 96 89" fill="none" xmlns="http://www.w3.org/2000/svg">
<path d="M64.7433 81.3518C61.1964 94.4002 77.7583 84.0136 92.2356 85.1619C93.6543 72.1135 99.6479 52.4367 85.1707 57.4472C70.6934 62.4839 70.6934 36.3872 85.1707 44.3989C99.6479 52.4366 94.494 32.9685 92.2356 19.9201C77.7583 21.8513 57.4033 23.8346 61.8189 10.7863C66.2344 -2.26208 37.2799 -2.26208 47.3416 10.7863C57.4033 23.8346 34.3266 16.5275 19.8494 19.9201C20.6022 32.9685 26.3352 52.4366 11.8579 47.1129C-2.61931 41.7631 -2.61931 67.8598 11.8579 60.1613C26.3352 52.4366 22.5277 72.1135 19.8494 85.1619C34.3266 81.6649 61.1964 94.4002 50.266 81.3518C39.3502 68.3034 68.3047 68.3034 64.7433 81.3518Z" fill="transparent" stroke="#E0E2E7" stroke-width="3"/>
</svg>
