<svg width="114" height="81" viewBox="0 0 114 81" fill="none" xmlns="http://www.w3.org/2000/svg">
<path d="M63.5869 10.7999C55.2788 23.8664 76.4704 15.2947 90.9951 14.6675C89.5135 27.734 87.5818 50.4175 102.106 43.8842C116.631 37.351 116.631 63.484 102.106 56.9507C87.5818 50.4175 92.5056 66.9335 90.9951 80L18.3715 80C17.5291 66.9335 26.4182 51.0708 11.8935 56.4019C-2.63118 61.7331 -2.63118 35.6001 11.8935 43.3354C26.4182 51.0708 19.7659 27.734 18.3715 14.6676C32.8962 11.9759 55.2788 23.8664 49.0622 10.7999C42.8457 -2.26661 71.8951 -2.26662 63.5869 10.7999Z" fill="transparent" stroke="#E0E2E7" stroke-width="3"/>
</svg>
