<svg width="108" height="70" viewBox="0 0 108 70" fill="none" xmlns="http://www.w3.org/2000/svg">
<path d="M54.9734 59.6989C48.7407 72.6854 73.4246 69.3089 87.9531 65.9324C87.1976 52.9459 81.5751 34.3753 96.1036 42.1672C110.632 49.959 110.632 23.9861 96.1036 29.1807C81.5751 34.3753 85.2072 13.9865 87.9531 1L15.3106 1C13.7415 13.9865 26.4249 33.2844 11.8964 24.2978C-2.63213 15.3371 -2.63213 41.31 11.8964 37.2842C26.4249 33.2844 11.6494 52.9459 15.3106 65.9324C29.8391 66.5298 48.7407 72.6854 40.4449 59.6989C32.1491 46.7125 61.2061 46.7125 54.9734 59.6989Z" fill="white" stroke="#E0E2E7" stroke-width="3"/>
</svg>
