<svg width="90" height="94" viewBox="0 0 90 94" fill="none" xmlns="http://www.w3.org/2000/svg">
<path d="M43.9336 83.2817C33.1089 70.3239 59.4329 80.5346 74.0412 79.6794C76.5684 66.7217 63.4356 46.3262 78.0438 51.3538C92.6521 56.3814 92.6521 30.4659 78.0438 38.396C63.4356 46.3262 71.5432 27.8484 74.0412 14.8907C59.4329 17.249 34.3506 23.6761 44.9562 10.7183C55.5617 -2.23943 26.3453 -2.23943 30.3479 10.7183C34.3506 23.6761 15.6082 12.9989 0.999998 14.8907L1 79.6794C15.6082 76.8806 33.1089 70.3239 29.3253 83.2817C25.5272 96.2394 54.7437 96.2394 43.9336 83.2817Z" fill="transparent" stroke="#E0E2E7" stroke-width="3"/>
</svg>
