<svg width="91" height="86" viewBox="0 0 91 86" fill="none" xmlns="http://www.w3.org/2000/svg">
<path d="M58.4472 76.7171C49.5061 89.6513 74.6984 84.2448 89.2605 81.5804C87.8625 68.6461 94.0805 53.513 79.5185 57.6261C64.9564 61.7134 64.9564 35.8449 79.5185 44.6919C94.0805 53.513 89.2022 29.8434 89.2605 16.9091C74.6984 15.952 58.3161 23.6349 62.9614 10.7007C67.6213 -2.23356 38.4972 -2.23356 48.3994 10.7007C58.3162 23.6349 31.0123 14.6327 16.4503 16.9091C15.3145 29.8434 26.4836 50.0208 11.9215 40.8375C-2.6405 31.6542 -2.6405 57.5227 11.9215 53.7717C26.4836 50.0208 13.203 68.6461 16.4503 81.5804C31.0123 79.5368 49.5061 89.6513 43.8852 76.7171C38.2642 63.7828 67.3883 63.7828 58.4472 76.7171Z" fill="transparent" stroke="#E0E2E7" stroke-width="3"/>
</svg>
