<svg width="114" height="89" viewBox="0 0 114 89" fill="none" xmlns="http://www.w3.org/2000/svg">
<path d="M66.9971 80.9002C58.6674 93.7749 79.9141 85.3291 94.4765 84.7111C95.9619 71.8364 87.5157 51.9837 102.078 57.4683C116.641 62.9529 116.641 37.2036 102.078 44.5936C87.5157 51.9837 92.2193 33.2124 94.4765 20.3378C79.9141 22.7067 56.9053 23.5307 66.5457 10.656C76.1861 -2.21866 47.0611 -2.21866 51.9832 10.656C56.9053 23.5307 36.2266 21.2905 21.6642 20.3378C21.6059 33.2124 26.4843 56.7731 11.9219 47.9926C-2.64063 39.1863 -2.64063 64.9356 11.9219 60.8672C26.4843 56.7731 20.2662 71.8364 21.6642 84.7111C36.2266 82.0589 58.6674 93.7749 52.4346 80.9002C46.2019 68.0255 75.3269 68.0255 66.9971 80.9002Z" fill="transparent" stroke="#E0E2E7" stroke-width="3"/>
</svg>
