<svg width="104" height="107" viewBox="0 0 104 107" fill="none" xmlns="http://www.w3.org/2000/svg">
<path d="M47.5104 10.7715C36.6761 23.8003 60.4182 14.2372 75.0197 16.2436L95 16.2436C99.4183 16.2436 103 19.8253 103 24.2436L103 98C103 102.418 99.4183 106 95 106L10.0121 106C5.59384 106 2.01212 102.418 2.01212 97.9998L2.01212 81.3871C3.53068 68.3584 -1.41924 51.8901 13.1823 58.4045C27.7838 64.9188 27.7838 38.8615 13.1823 45.3758C-1.41924 51.8902 0.522764 29.2723 2.01212 16.2436C16.6136 15.6182 36.6761 23.8003 32.9089 10.7715C29.1563 -2.25718 58.3594 -2.25718 47.5104 10.7715Z" fill="#DAE1F7" stroke="#E0E2E7" stroke-width="3"/>
</svg>
