<svg width="106" height="110" viewBox="0 0 106 110" fill="none" xmlns="http://www.w3.org/2000/svg">
<path d="M73.2749 99.1961C69.4384 86.1242 86.8982 90.3072 101.376 90.9085C97.7273 77.8366 112.451 58.0457 97.9735 62.0718C83.496 66.1241 83.496 39.9804 97.9735 49C112.451 58.0457 99.8121 38.6209 101.376 25.549L101.367 16.5472L101.36 7.54539C101.36 3.93059 98.4329 1.00021 94.8217 1.0002L9.00001 1.00002C4.58173 1.00001 0.999997 4.58174 0.999997 9.00003L1.00001 82.9085C1.00001 87.3268 4.58173 90.9085 9.00001 90.9085L28.9881 90.9085C43.4656 87.7189 69.4384 86.1242 58.7974 99.1961C48.1565 112.268 77.1114 112.268 73.2749 99.1961Z" fill="#ddf1f2" stroke="#E0E2E7" stroke-width="3"/>
</svg>
