<svg width="105" height="109" viewBox="0 0 105 109" fill="none" xmlns="http://www.w3.org/2000/svg">
<path d="M68.9482 10.8769C62.7203 24.0461 86.8624 19.5423 101.38 17.4615C104.617 30.6307 107.477 52.5706 92.9596 43.0624C78.4424 33.5542 78.4424 59.8927 92.9596 56.2316C107.477 52.5706 102.628 70.1383 101.38 83.3075L101.38 100C101.38 104.418 97.7978 108 93.3796 108L8.99999 108C4.58172 108 1 104.418 1 100L0.999998 25.4615C0.999998 21.0432 4.58172 17.4615 9.00001 17.4615L28.7936 17.4615C43.3108 18.9628 62.7203 24.0461 54.431 10.8769C46.1272 -2.29231 75.1615 -2.29231 68.9482 10.8769Z" fill="#EA3BF7" stroke="#E0E2E7" stroke-width="3"/>
</svg>
