<svg width="40" height="40" viewBox="0 0 40 40" fill="none" xmlns="http://www.w3.org/2000/svg">
<path fill-rule="evenodd" clip-rule="evenodd" d="M40 2.49995C39.9998 2.07397 39.8907 1.65511 39.6831 1.28313C39.4756 0.911139 39.1764 0.598358 38.814 0.374461C38.4516 0.150565 38.038 0.0229803 37.6125 0.00381393C37.1869 -0.0153524 36.7635 0.074535 36.3825 0.264947L16.9075 9.99995H7.5C5.51088 9.99995 3.60322 10.7901 2.1967 12.1966C0.790177 13.6032 0 15.5108 0 17.4999C0 19.4891 0.790177 21.3967 2.1967 22.8032C3.60322 24.2098 5.51088 24.9999 7.5 24.9999H8.2L12.6275 38.2899C12.7934 38.788 13.1118 39.2211 13.5376 39.5281C13.9635 39.835 14.4751 40.0001 15 39.9999H17.5C18.163 39.9999 18.7989 39.7366 19.2678 39.2677C19.7366 38.7989 20 38.163 20 37.4999V26.5449L36.3825 34.7349C36.7635 34.9254 37.1869 35.0152 37.6125 34.9961C38.038 34.9769 38.4516 34.8493 38.814 34.6254C39.1764 34.4015 39.4756 34.0888 39.6831 33.7168C39.8907 33.3448 39.9998 32.9259 40 32.4999V2.49995Z" fill="#2E65F3"/>
</svg>
