<svg width="1038" height="584" viewBox="0 0 1038 584" fill="none" xmlns="http://www.w3.org/2000/svg">
<g clip-path="url(#clip0_1466_5057)">
<g filter="url(#filter0_d_1466_5057)">
<rect y="-3" width="1038" height="587" fill="#FDFDFD"/>
<rect y="-3" width="1038" height="587" fill="url(#paint0_radial_1466_5057)" fill-opacity="0.2"/>
</g>
<g opacity="0.12">
<circle cx="7.85714" cy="7.85714" r="7.85714" transform="matrix(-0.965926 -0.258819 -0.258819 0.965926 673.245 248.35)" fill="black"/>
<circle cx="7.85714" cy="7.85714" r="7.85714" transform="matrix(-0.965926 -0.258819 -0.258819 0.965926 612.53 232.081)" fill="black"/>
<circle cx="7.85714" cy="7.85714" r="7.85714" transform="matrix(-0.965926 -0.258819 -0.258819 0.965926 551.814 215.812)" fill="black"/>
<circle cx="7.85714" cy="7.85714" r="7.85714" transform="matrix(-0.965926 -0.258819 -0.258819 0.965926 1037.54 345.961)" fill="black"/>
<circle cx="7.85714" cy="7.85714" r="7.85714" transform="matrix(-0.965926 -0.258819 -0.258819 0.965926 976.822 329.692)" fill="black"/>
<circle cx="7.85714" cy="7.85714" r="7.85714" transform="matrix(-0.965926 -0.258819 -0.258819 0.965926 916.106 313.424)" fill="black"/>
<circle cx="7.85714" cy="7.85714" r="7.85714" transform="matrix(-0.965926 -0.258819 -0.258819 0.965926 855.392 297.155)" fill="black"/>
<circle cx="7.85714" cy="7.85714" r="7.85714" transform="matrix(-0.965926 -0.258819 -0.258819 0.965926 794.676 280.886)" fill="black"/>
<circle cx="7.85714" cy="7.85714" r="7.85714" transform="matrix(-0.965926 -0.258819 -0.258819 0.965926 733.96 264.618)" fill="black"/>
<circle cx="11.7857" cy="11.7857" r="11.7857" transform="matrix(-0.965926 -0.258819 -0.258819 0.965926 695.343 181.062)" fill="black"/>
<circle cx="11.7857" cy="11.7857" r="11.7857" transform="matrix(-0.965926 -0.258819 -0.258819 0.965926 634.627 164.794)" fill="black"/>
<circle cx="11.7857" cy="11.7857" r="11.7857" transform="matrix(-0.965926 -0.258819 -0.258819 0.965926 573.913 148.525)" fill="black"/>
<circle cx="11.7857" cy="11.7857" r="11.7857" transform="matrix(-0.965926 -0.258819 -0.258819 0.965926 1059.63 278.675)" fill="black"/>
<circle cx="11.7857" cy="11.7857" r="11.7857" transform="matrix(-0.965926 -0.258819 -0.258819 0.965926 998.919 262.406)" fill="black"/>
<circle cx="11.7857" cy="11.7857" r="11.7857" transform="matrix(-0.965926 -0.258819 -0.258819 0.965926 938.204 246.138)" fill="black"/>
<circle cx="11.7857" cy="11.7857" r="11.7857" transform="matrix(-0.965926 -0.258819 -0.258819 0.965926 877.489 229.869)" fill="black"/>
<circle cx="11.7857" cy="11.7857" r="11.7857" transform="matrix(-0.965926 -0.258819 -0.258819 0.965926 816.773 213.6)" fill="black"/>
<circle cx="11.7857" cy="11.7857" r="11.7857" transform="matrix(-0.965926 -0.258819 -0.258819 0.965926 756.058 197.332)" fill="black"/>
<circle cx="15.7143" cy="15.7143" r="15.7143" transform="matrix(-0.965926 -0.258819 -0.258819 0.965926 717.439 113.776)" fill="black"/>
<circle cx="15.7143" cy="15.7143" r="15.7143" transform="matrix(-0.965926 -0.258819 -0.258819 0.965926 656.724 97.5073)" fill="black"/>
<circle cx="15.7143" cy="15.7143" r="15.7143" transform="matrix(-0.965926 -0.258819 -0.258819 0.965926 596.009 81.2378)" fill="black"/>
<circle cx="15.7143" cy="15.7143" r="15.7143" transform="matrix(-0.965926 -0.258819 -0.258819 0.965926 1021.02 195.119)" fill="black"/>
<circle cx="15.7143" cy="15.7143" r="15.7143" transform="matrix(-0.965926 -0.258819 -0.258819 0.965926 960.301 178.851)" fill="black"/>
<circle cx="15.7143" cy="15.7143" r="15.7143" transform="matrix(-0.965926 -0.258819 -0.258819 0.965926 899.586 162.581)" fill="black"/>
<circle cx="15.7143" cy="15.7143" r="15.7143" transform="matrix(-0.965926 -0.258819 -0.258819 0.965926 838.87 146.312)" fill="black"/>
<circle cx="15.7143" cy="15.7143" r="15.7143" transform="matrix(-0.965926 -0.258819 -0.258819 0.965926 778.155 130.044)" fill="black"/>
<ellipse cx="19.6429" cy="19.6429" rx="19.6429" ry="19.6429" transform="matrix(-0.965926 -0.258819 -0.258819 0.965926 739.536 46.4863)" fill="black"/>
<ellipse cx="19.6429" cy="19.6429" rx="19.6429" ry="19.6429" transform="matrix(-0.965926 -0.258819 -0.258819 0.965926 678.821 30.2183)" fill="black"/>
<ellipse cx="19.6429" cy="19.6429" rx="19.6429" ry="19.6429" transform="matrix(-0.965926 -0.258819 -0.258819 0.965926 618.106 13.9487)" fill="black"/>
<ellipse cx="19.6429" cy="19.6429" rx="19.6429" ry="19.6429" transform="matrix(-0.965926 -0.258819 -0.258819 0.965926 1043.11 127.83)" fill="black"/>
<ellipse cx="19.6429" cy="19.6429" rx="19.6429" ry="19.6429" transform="matrix(-0.965926 -0.258819 -0.258819 0.965926 982.397 111.562)" fill="black"/>
<ellipse cx="19.6429" cy="19.6429" rx="19.6429" ry="19.6429" transform="matrix(-0.965926 -0.258819 -0.258819 0.965926 921.683 95.292)" fill="black"/>
<ellipse cx="19.6429" cy="19.6429" rx="19.6429" ry="19.6429" transform="matrix(-0.965926 -0.258819 -0.258819 0.965926 860.967 79.0229)" fill="black"/>
<ellipse cx="19.6429" cy="19.6429" rx="19.6429" ry="19.6429" transform="matrix(-0.965926 -0.258819 -0.258819 0.965926 800.252 62.7549)" fill="black"/>
<circle cx="23.5714" cy="23.5714" r="23.5714" transform="matrix(-0.965926 -0.258819 -0.258819 0.965926 761.633 -20.8018)" fill="black"/>
<circle cx="23.5714" cy="23.5714" r="23.5714" transform="matrix(-0.965926 -0.258819 -0.258819 0.965926 700.917 -37.0703)" fill="black"/>
<circle cx="23.5714" cy="23.5714" r="23.5714" transform="matrix(-0.965926 -0.258819 -0.258819 0.965926 1065.21 60.541)" fill="black"/>
<circle cx="23.5714" cy="23.5714" r="23.5714" transform="matrix(-0.965926 -0.258819 -0.258819 0.965926 1004.49 44.2729)" fill="black"/>
<circle cx="23.5714" cy="23.5714" r="23.5714" transform="matrix(-0.965926 -0.258819 -0.258819 0.965926 943.779 28.0039)" fill="black"/>
<circle cx="23.5714" cy="23.5714" r="23.5714" transform="matrix(-0.965926 -0.258819 -0.258819 0.965926 883.064 11.7354)" fill="black"/>
<circle cx="23.5714" cy="23.5714" r="23.5714" transform="matrix(-0.965926 -0.258819 -0.258819 0.965926 822.349 -4.53369)" fill="black"/>
<ellipse cx="27.5" cy="27.5" rx="27.5" ry="27.5" transform="matrix(-0.965926 -0.258819 -0.258819 0.965926 1087.31 -6.74707)" fill="black"/>
<ellipse cx="27.5" cy="27.5" rx="27.5" ry="27.5" transform="matrix(-0.965926 -0.258819 -0.258819 0.965926 1026.59 -23.0156)" fill="black"/>
<ellipse cx="27.5" cy="27.5" rx="27.5" ry="27.5" transform="matrix(-0.965926 -0.258819 -0.258819 0.965926 965.876 -39.2842)" fill="black"/>
</g>
<g opacity="0.12">
<circle cx="7.85714" cy="7.85714" r="7.85714" transform="matrix(-0.965926 -0.258819 -0.258819 0.965926 483.233 197.437)" fill="black"/>
<circle cx="7.85714" cy="7.85714" r="7.85714" transform="matrix(-0.965926 -0.258819 -0.258819 0.965926 422.519 181.167)" fill="black"/>
<circle cx="7.85714" cy="7.85714" r="7.85714" transform="matrix(-0.965926 -0.258819 -0.258819 0.965926 361.803 164.898)" fill="black"/>
<circle cx="7.85714" cy="7.85714" r="7.85714" transform="matrix(-0.965926 -0.258819 -0.258819 0.965926 301.088 148.63)" fill="black"/>
<circle cx="7.85714" cy="7.85714" r="7.85714" transform="matrix(-0.965926 -0.258819 -0.258819 0.965926 240.373 132.361)" fill="black"/>
<circle cx="7.85714" cy="7.85714" r="7.85714" transform="matrix(-0.965926 -0.258819 -0.258819 0.965926 179.657 116.092)" fill="black"/>
<circle cx="7.85714" cy="7.85714" r="7.85714" transform="matrix(-0.965926 -0.258819 -0.258819 0.965926 118.941 99.8242)" fill="black"/>
<circle cx="7.85714" cy="7.85714" r="7.85714" transform="matrix(-0.965926 -0.258819 -0.258819 0.965926 58.2263 83.5557)" fill="black"/>
<circle cx="11.7857" cy="11.7857" r="11.7857" transform="matrix(-0.965926 -0.258819 -0.258819 0.965926 505.332 130.15)" fill="black"/>
<circle cx="11.7857" cy="11.7857" r="11.7857" transform="matrix(-0.965926 -0.258819 -0.258819 0.965926 444.616 113.881)" fill="black"/>
<circle cx="11.7857" cy="11.7857" r="11.7857" transform="matrix(-0.965926 -0.258819 -0.258819 0.965926 383.9 97.6123)" fill="black"/>
<circle cx="11.7857" cy="11.7857" r="11.7857" transform="matrix(-0.965926 -0.258819 -0.258819 0.965926 323.185 81.3442)" fill="black"/>
<circle cx="11.7857" cy="11.7857" r="11.7857" transform="matrix(-0.965926 -0.258819 -0.258819 0.965926 262.47 65.0752)" fill="black"/>
<circle cx="11.7857" cy="11.7857" r="11.7857" transform="matrix(-0.965926 -0.258819 -0.258819 0.965926 201.754 48.8062)" fill="black"/>
<circle cx="11.7857" cy="11.7857" r="11.7857" transform="matrix(-0.965926 -0.258819 -0.258819 0.965926 141.039 32.5381)" fill="black"/>
<circle cx="11.7857" cy="11.7857" r="11.7857" transform="matrix(-0.965926 -0.258819 -0.258819 0.965926 80.324 16.269)" fill="black"/>
<circle cx="11.7857" cy="11.7857" r="11.7857" transform="matrix(-0.965926 -0.258819 -0.258819 0.965926 19.6084 0.000976562)" fill="black"/>
<circle cx="15.7143" cy="15.7143" r="15.7143" transform="matrix(-0.965926 -0.258819 -0.258819 0.965926 527.428 62.8618)" fill="black"/>
<circle cx="15.7143" cy="15.7143" r="15.7143" transform="matrix(-0.965926 -0.258819 -0.258819 0.965926 466.713 46.5928)" fill="black"/>
<circle cx="15.7143" cy="15.7143" r="15.7143" transform="matrix(-0.965926 -0.258819 -0.258819 0.965926 405.998 30.3242)" fill="black"/>
<circle cx="15.7143" cy="15.7143" r="15.7143" transform="matrix(-0.965926 -0.258819 -0.258819 0.965926 345.282 14.0557)" fill="black"/>
<circle cx="15.7143" cy="15.7143" r="15.7143" transform="matrix(-0.965926 -0.258819 -0.258819 0.965926 284.567 -2.2124)" fill="black"/>
<circle cx="15.7143" cy="15.7143" r="15.7143" transform="matrix(-0.965926 -0.258819 -0.258819 0.965926 223.852 -18.4819)" fill="black"/>
<ellipse cx="19.6429" cy="19.6429" rx="19.6429" ry="19.6429" transform="matrix(-0.965926 -0.258819 -0.258819 0.965926 549.524 -4.42627)" fill="black"/>
<ellipse cx="19.6429" cy="19.6429" rx="19.6429" ry="19.6429" transform="matrix(-0.965926 -0.258819 -0.258819 0.965926 488.81 -20.6953)" fill="black"/>
<ellipse cx="19.6429" cy="19.6429" rx="19.6429" ry="19.6429" transform="matrix(-0.965926 -0.258819 -0.258819 0.965926 428.094 -36.9644)" fill="black"/>
</g>
<g opacity="0.12">
<circle cx="7.85714" cy="7.85714" r="7.85714" transform="matrix(0.965926 0.258819 0.258819 -0.965926 619.081 388.339)" fill="black"/>
<circle cx="7.85714" cy="7.85714" r="7.85714" transform="matrix(0.965926 0.258819 0.258819 -0.965926 679.795 404.607)" fill="black"/>
<circle cx="7.85714" cy="7.85714" r="7.85714" transform="matrix(0.965926 0.258819 0.258819 -0.965926 740.511 420.877)" fill="black"/>
<circle cx="7.85714" cy="7.85714" r="7.85714" transform="matrix(0.965926 0.258819 0.258819 -0.965926 801.226 437.146)" fill="black"/>
<circle cx="7.85714" cy="7.85714" r="7.85714" transform="matrix(0.965926 0.258819 0.258819 -0.965926 861.942 453.413)" fill="black"/>
<circle cx="7.85714" cy="7.85714" r="7.85714" transform="matrix(0.965926 0.258819 0.258819 -0.965926 922.657 469.683)" fill="black"/>
<circle cx="7.85714" cy="7.85714" r="7.85714" transform="matrix(0.965926 0.258819 0.258819 -0.965926 983.373 485.951)" fill="black"/>
<circle cx="11.7857" cy="11.7857" r="11.7857" transform="matrix(0.965926 0.258819 0.258819 -0.965926 596.982 455.625)" fill="black"/>
<circle cx="11.7857" cy="11.7857" r="11.7857" transform="matrix(0.965926 0.258819 0.258819 -0.965926 657.698 471.895)" fill="black"/>
<circle cx="11.7857" cy="11.7857" r="11.7857" transform="matrix(0.965926 0.258819 0.258819 -0.965926 718.414 488.163)" fill="black"/>
<circle cx="11.7857" cy="11.7857" r="11.7857" transform="matrix(0.965926 0.258819 0.258819 -0.965926 779.129 504.432)" fill="black"/>
<circle cx="11.7857" cy="11.7857" r="11.7857" transform="matrix(0.965926 0.258819 0.258819 -0.965926 839.844 520.7)" fill="black"/>
<circle cx="11.7857" cy="11.7857" r="11.7857" transform="matrix(0.965926 0.258819 0.258819 -0.965926 900.56 536.969)" fill="black"/>
<circle cx="11.7857" cy="11.7857" r="11.7857" transform="matrix(0.965926 0.258819 0.258819 -0.965926 961.275 553.237)" fill="black"/>
<circle cx="11.7857" cy="11.7857" r="11.7857" transform="matrix(0.965926 0.258819 0.258819 -0.965926 1021.99 569.506)" fill="black"/>
<circle cx="15.7143" cy="15.7143" r="15.7143" transform="matrix(0.965926 0.258819 0.258819 -0.965926 574.886 522.913)" fill="black"/>
<circle cx="15.7143" cy="15.7143" r="15.7143" transform="matrix(0.965926 0.258819 0.258819 -0.965926 635.601 539.182)" fill="black"/>
<circle cx="15.7143" cy="15.7143" r="15.7143" transform="matrix(0.965926 0.258819 0.258819 -0.965926 696.316 555.451)" fill="black"/>
<circle cx="15.7143" cy="15.7143" r="15.7143" transform="matrix(0.965926 0.258819 0.258819 -0.965926 757.032 571.719)" fill="black"/>
<circle cx="15.7143" cy="15.7143" r="15.7143" transform="matrix(0.965926 0.258819 0.258819 -0.965926 817.747 587.987)" fill="black"/>
<circle cx="15.7143" cy="15.7143" r="15.7143" transform="matrix(0.965926 0.258819 0.258819 -0.965926 878.462 604.257)" fill="black"/>
<ellipse cx="19.6429" cy="19.6429" rx="19.6429" ry="19.6429" transform="matrix(0.965926 0.258819 0.258819 -0.965926 552.79 590.201)" fill="black"/>
<ellipse cx="19.6429" cy="19.6429" rx="19.6429" ry="19.6429" transform="matrix(0.965926 0.258819 0.258819 -0.965926 613.504 606.471)" fill="black"/>
</g>
<g opacity="0.12">
<circle cx="7.85714" cy="7.85714" r="7.85714" transform="matrix(0.965926 0.258819 0.258819 -0.965926 429.069 337.426)" fill="black"/>
<circle cx="7.85714" cy="7.85714" r="7.85714" transform="matrix(0.965926 0.258819 0.258819 -0.965926 489.785 353.694)" fill="black"/>
<circle cx="7.85714" cy="7.85714" r="7.85714" transform="matrix(0.965926 0.258819 0.258819 -0.965926 550.5 369.964)" fill="black"/>
<circle cx="7.85714" cy="7.85714" r="7.85714" transform="matrix(0.965926 0.258819 0.258819 -0.965926 4.06201 223.546)" fill="black"/>
<circle cx="7.85714" cy="7.85714" r="7.85714" transform="matrix(0.965926 0.258819 0.258819 -0.965926 64.7776 239.814)" fill="black"/>
<circle cx="7.85714" cy="7.85714" r="7.85714" transform="matrix(0.965926 0.258819 0.258819 -0.965926 125.492 256.084)" fill="black"/>
<circle cx="7.85714" cy="7.85714" r="7.85714" transform="matrix(0.965926 0.258819 0.258819 -0.965926 186.208 272.352)" fill="black"/>
<circle cx="7.85714" cy="7.85714" r="7.85714" transform="matrix(0.965926 0.258819 0.258819 -0.965926 246.923 288.62)" fill="black"/>
<circle cx="7.85714" cy="7.85714" r="7.85714" transform="matrix(0.965926 0.258819 0.258819 -0.965926 307.639 304.89)" fill="black"/>
<circle cx="7.85714" cy="7.85714" r="7.85714" transform="matrix(0.965926 0.258819 0.258819 -0.965926 368.354 321.157)" fill="black"/>
<circle cx="11.7857" cy="11.7857" r="11.7857" transform="matrix(0.965926 0.258819 0.258819 -0.965926 406.973 404.713)" fill="black"/>
<circle cx="11.7857" cy="11.7857" r="11.7857" transform="matrix(0.965926 0.258819 0.258819 -0.965926 467.688 420.98)" fill="black"/>
<circle cx="11.7857" cy="11.7857" r="11.7857" transform="matrix(0.965926 0.258819 0.258819 -0.965926 528.403 437.25)" fill="black"/>
<circle cx="11.7857" cy="11.7857" r="11.7857" transform="matrix(0.965926 0.258819 0.258819 -0.965926 -18.0352 290.832)" fill="black"/>
<circle cx="11.7857" cy="11.7857" r="11.7857" transform="matrix(0.965926 0.258819 0.258819 -0.965926 42.6807 307.101)" fill="black"/>
<circle cx="11.7857" cy="11.7857" r="11.7857" transform="matrix(0.965926 0.258819 0.258819 -0.965926 103.396 323.369)" fill="black"/>
<circle cx="11.7857" cy="11.7857" r="11.7857" transform="matrix(0.965926 0.258819 0.258819 -0.965926 164.111 339.638)" fill="black"/>
<circle cx="11.7857" cy="11.7857" r="11.7857" transform="matrix(0.965926 0.258819 0.258819 -0.965926 224.826 355.906)" fill="black"/>
<circle cx="11.7857" cy="11.7857" r="11.7857" transform="matrix(0.965926 0.258819 0.258819 -0.965926 285.542 372.176)" fill="black"/>
<circle cx="11.7857" cy="11.7857" r="11.7857" transform="matrix(0.965926 0.258819 0.258819 -0.965926 346.257 388.443)" fill="black"/>
<circle cx="15.7143" cy="15.7143" r="15.7143" transform="matrix(0.965926 0.258819 0.258819 -0.965926 384.875 472)" fill="black"/>
<circle cx="15.7143" cy="15.7143" r="15.7143" transform="matrix(0.965926 0.258819 0.258819 -0.965926 445.591 488.268)" fill="black"/>
<circle cx="15.7143" cy="15.7143" r="15.7143" transform="matrix(0.965926 0.258819 0.258819 -0.965926 506.306 504.538)" fill="black"/>
<circle cx="15.7143" cy="15.7143" r="15.7143" transform="matrix(0.965926 0.258819 0.258819 -0.965926 20.5833 374.388)" fill="black"/>
<circle cx="15.7143" cy="15.7143" r="15.7143" transform="matrix(0.965926 0.258819 0.258819 -0.965926 81.2981 390.656)" fill="black"/>
<circle cx="15.7143" cy="15.7143" r="15.7143" transform="matrix(0.965926 0.258819 0.258819 -0.965926 142.014 406.925)" fill="black"/>
<circle cx="15.7143" cy="15.7143" r="15.7143" transform="matrix(0.965926 0.258819 0.258819 -0.965926 202.729 423.194)" fill="black"/>
<circle cx="15.7143" cy="15.7143" r="15.7143" transform="matrix(0.965926 0.258819 0.258819 -0.965926 263.445 439.464)" fill="black"/>
<circle cx="15.7143" cy="15.7143" r="15.7143" transform="matrix(0.965926 0.258819 0.258819 -0.965926 324.16 455.731)" fill="black"/>
<ellipse cx="19.6429" cy="19.6429" rx="19.6429" ry="19.6429" transform="matrix(0.965926 0.258819 0.258819 -0.965926 362.779 539.288)" fill="black"/>
<ellipse cx="19.6429" cy="19.6429" rx="19.6429" ry="19.6429" transform="matrix(0.965926 0.258819 0.258819 -0.965926 423.494 555.557)" fill="black"/>
<ellipse cx="19.6429" cy="19.6429" rx="19.6429" ry="19.6429" transform="matrix(0.965926 0.258819 0.258819 -0.965926 484.209 571.826)" fill="black"/>
<ellipse cx="19.6429" cy="19.6429" rx="19.6429" ry="19.6429" transform="matrix(0.965926 0.258819 0.258819 -0.965926 -1.51367 441.678)" fill="black"/>
<ellipse cx="19.6429" cy="19.6429" rx="19.6429" ry="19.6429" transform="matrix(0.965926 0.258819 0.258819 -0.965926 59.2014 457.944)" fill="black"/>
<ellipse cx="19.6429" cy="19.6429" rx="19.6429" ry="19.6429" transform="matrix(0.965926 0.258819 0.258819 -0.965926 119.917 474.213)" fill="black"/>
<ellipse cx="19.6429" cy="19.6429" rx="19.6429" ry="19.6429" transform="matrix(0.965926 0.258819 0.258819 -0.965926 180.632 490.482)" fill="black"/>
<ellipse cx="19.6429" cy="19.6429" rx="19.6429" ry="19.6429" transform="matrix(0.965926 0.258819 0.258819 -0.965926 241.348 506.753)" fill="black"/>
<ellipse cx="19.6429" cy="19.6429" rx="19.6429" ry="19.6429" transform="matrix(0.965926 0.258819 0.258819 -0.965926 302.063 523.021)" fill="black"/>
<circle cx="23.5714" cy="23.5714" r="23.5714" transform="matrix(0.965926 0.258819 0.258819 -0.965926 340.681 606.578)" fill="black"/>
<circle cx="23.5714" cy="23.5714" r="23.5714" transform="matrix(0.965926 0.258819 0.258819 -0.965926 401.397 622.846)" fill="black"/>
<circle cx="23.5714" cy="23.5714" r="23.5714" transform="matrix(0.965926 0.258819 0.258819 -0.965926 -23.6106 508.968)" fill="black"/>
<circle cx="23.5714" cy="23.5714" r="23.5714" transform="matrix(0.965926 0.258819 0.258819 -0.965926 37.105 525.235)" fill="black"/>
<circle cx="23.5714" cy="23.5714" r="23.5714" transform="matrix(0.965926 0.258819 0.258819 -0.965926 97.8198 541.504)" fill="black"/>
<circle cx="23.5714" cy="23.5714" r="23.5714" transform="matrix(0.965926 0.258819 0.258819 -0.965926 158.536 557.772)" fill="black"/>
<circle cx="23.5714" cy="23.5714" r="23.5714" transform="matrix(0.965926 0.258819 0.258819 -0.965926 219.251 574.041)" fill="black"/>
<circle cx="23.5714" cy="23.5714" r="23.5714" transform="matrix(0.965926 0.258819 0.258819 -0.965926 279.966 590.31)" fill="black"/>
<ellipse cx="27.5" cy="27.5" rx="27.5" ry="27.5" transform="matrix(0.965926 0.258819 0.258819 -0.965926 -45.708 576.254)" fill="black"/>
<ellipse cx="27.5" cy="27.5" rx="27.5" ry="27.5" transform="matrix(0.965926 0.258819 0.258819 -0.965926 15.0076 592.523)" fill="black"/>
<ellipse cx="27.5" cy="27.5" rx="27.5" ry="27.5" transform="matrix(0.965926 0.258819 0.258819 -0.965926 75.7234 608.791)" fill="black"/>
<ellipse cx="27.5" cy="27.5" rx="27.5" ry="27.5" transform="matrix(0.965926 0.258819 0.258819 -0.965926 136.438 625.06)" fill="black"/>
</g>
</g>
<defs>
<filter id="filter0_d_1466_5057" x="-9" y="-16" width="1070" height="619" filterUnits="userSpaceOnUse" color-interpolation-filters="sRGB">
<feFlood flood-opacity="0" result="BackgroundImageFix"/>
<feColorMatrix in="SourceAlpha" type="matrix" values="0 0 0 0 0 0 0 0 0 0 0 0 0 0 0 0 0 0 127 0" result="hardAlpha"/>
<feMorphology radius="2" operator="dilate" in="SourceAlpha" result="effect1_dropShadow_1466_5057"/>
<feOffset dx="7" dy="3"/>
<feGaussianBlur stdDeviation="7"/>
<feComposite in2="hardAlpha" operator="out"/>
<feColorMatrix type="matrix" values="0 0 0 0 0.725 0 0 0 0 0.725 0 0 0 0 0.725 0 0 0 0.25 0"/>
<feBlend mode="normal" in2="BackgroundImageFix" result="effect1_dropShadow_1466_5057"/>
<feBlend mode="normal" in="SourceGraphic" in2="effect1_dropShadow_1466_5057" result="shape"/>
</filter>
<radialGradient id="paint0_radial_1466_5057" cx="0" cy="0" r="1" gradientUnits="userSpaceOnUse" gradientTransform="translate(519 290.5) rotate(90) scale(293.5 519)">
<stop offset="0.015625" stop-color="#787878"/>
<stop offset="1" stop-color="#769CBE" stop-opacity="0"/>
</radialGradient>
<clipPath id="clip0_1466_5057">
<rect width="1038" height="584" fill="white"/>
</clipPath>
</defs>
</svg>
