<svg width="198" height="168" viewBox="0 0 198 168" fill="none" xmlns="http://www.w3.org/2000/svg">
<g filter="url(#filter0_d_1316_4277)">
<path d="M77.5803 130.481L32.0761 149.143L45.3944 121.488L1 126.742L38.7352 96.1976L25.9718 83.4837L45.3944 77.8658L18.7577 48.3019L67.5916 61.4882L62.5972 35.0526L77.5803 44.1847L74.2507 6.64661L108.101 34.4083L111.986 23.5172L115.87 33.4888L146.392 7.11708L142.507 38.8709L160.82 36.7035L155.27 51.1107L198 46.0533L173.583 75.4958L186.901 85.2991L160.82 92.1793L181.352 124.362L128.079 118.34L119.2 138.831L108.101 129.713L86.4592 157.405L77.5803 130.481Z" fill="#E5632B"/>
</g>
<path d="M95.6916 112.809L74.7106 121.413L80.8514 108.662L60.3821 111.085L77.781 97.0015L71.8961 91.1394L80.8514 88.5491L68.5698 74.9179L91.086 80.9978L88.7832 68.8089L95.6916 73.0195L94.1564 55.7115L109.764 68.5119L111.555 63.4902L113.346 68.0879L127.419 55.9285L125.628 70.5694L134.071 69.5701L131.513 76.2129L151.214 73.8811L139.956 87.4564L146.097 91.9765L134.071 95.1488L143.539 109.988L118.975 107.211L114.882 116.659L109.764 112.455L99.7855 125.223L95.6916 112.809Z" fill="#EB9C38" fill-opacity="0.75"/>
<path d="M46.3111 87.4354C45.5595 85.8997 45.1928 84.2354 45.2111 82.4425C45.2478 80.7397 45.587 79.1211 46.2286 77.5867C46.8703 76.0154 47.7228 74.7606 48.7862 73.8225C49.9595 72.8159 51.2337 72.3328 52.6087 72.3731C54.1304 72.3961 55.6888 73.0609 57.2838 74.3675L56.0188 76.2064L54.7262 78.0486C53.1496 77.1645 51.8754 77.2414 50.9037 78.2795C50.0604 79.1547 49.657 80.4301 49.6937 82.1058C49.7853 83.738 50.2437 84.8838 51.0687 85.5431C52.0404 86.3511 53.2871 86.0928 54.8087 84.7681L57.2013 87.5588C55.9546 89.3863 54.5704 90.5378 53.0487 91.0133C51.7287 91.428 50.4362 91.2764 49.1712 90.5584C47.9795 89.9056 47.0261 88.8646 46.3111 87.4354ZM58.8842 75.0365C60.2959 72.654 62.1659 71.325 64.4943 71.0494C66.4927 70.8129 68.1518 71.5304 69.4719 73.2018C70.2052 74.112 70.7094 75.0861 70.9844 76.1244C71.2594 77.1626 71.3786 78.3208 71.3419 79.599C71.2686 81.7676 70.6269 83.8374 69.4169 85.8083C67.9868 88.2114 66.1168 89.5497 63.8068 89.8231C61.7718 90.064 60.1034 89.3291 58.8017 87.6186C58.1784 86.8985 57.7017 85.9765 57.3717 84.8524C57.0784 83.7425 56.9592 82.5566 57.0142 81.2948C57.1242 79.0663 57.7475 76.9803 58.8842 75.0365ZM66.2543 77.3211C65.796 76.2677 65.1726 75.7876 64.3843 75.8809C63.4676 75.9894 62.7434 76.7674 62.2118 78.215C61.7901 79.3172 61.5334 80.4276 61.4418 81.5461C61.4234 82.0837 61.4968 82.5734 61.6618 83.0154C61.8268 83.6975 62.1018 84.1818 62.4868 84.4686C62.9268 84.8226 63.486 84.9595 64.1643 84.8793C65.0993 84.7686 65.8051 84.2697 66.2818 83.3825C66.6668 82.6354 66.8685 81.7253 66.8868 80.6524C66.9052 79.4687 66.6943 78.3583 66.2543 77.3211ZM70.9783 88.3097C72.5549 83.1015 73.7466 77.302 74.5533 70.9112L79.1459 69.4261L80.5209 78.2079L81.7584 69.4769L86.131 68.5993C86.8093 74.1313 88.111 79.9127 90.036 85.9433L85.1684 87.5163L83.4084 78.6139L82.3084 87.3564L78.2934 88.1639L77.1933 78.7956L75.7083 88.7191L70.9783 88.3097ZM90.455 68.9737L93.0125 68.2556L95.515 67.5717C95.185 70.9154 94.9925 74.012 94.9375 76.8616C94.8825 79.7112 94.9467 82.3159 95.13 84.6758L92.82 85.5584L90.4825 86.3612L90.455 68.9737ZM97.3358 81.3962C96.5842 79.8606 96.2175 78.1963 96.2358 76.4033C96.2725 74.7005 96.6117 73.0819 97.2533 71.5475C97.895 69.9762 98.7475 68.7214 99.8109 67.7833C100.984 66.7767 102.258 66.2936 103.633 66.3339C105.155 66.3569 106.713 67.0217 108.308 68.3283L107.043 70.1672L105.751 72.0095C104.174 71.1253 102.9 71.2023 101.928 72.2403C101.085 73.1155 100.682 74.391 100.718 76.0666C100.81 77.6989 101.268 78.8446 102.093 79.5039C103.065 80.312 104.312 80.0536 105.833 78.7289L108.226 81.5196C106.979 83.3471 105.595 84.4987 104.073 84.9742C102.753 85.3889 101.461 85.2372 100.196 84.5192C99.0042 83.8664 98.0509 82.8254 97.3358 81.3962ZM133.118 66.2504C133.228 66.8096 133.32 67.445 133.393 68.1563C132.953 68.356 132.238 68.6807 131.248 69.1302L129.103 70.0763C128.956 69.3368 128.59 69.0017 128.003 69.0712C127.288 69.1558 126.619 69.5673 125.995 70.3057C125.592 70.8888 125.473 71.4014 125.638 71.8434C125.766 72.1236 126.206 72.2192 126.958 72.1302C127.343 72.0847 127.81 71.9832 128.36 71.8258C129.24 71.5739 130.029 71.4068 130.725 71.3243C132.412 71.1247 133.494 71.4766 133.97 72.3802C134.135 72.6561 134.264 72.9547 134.355 73.2762C134.575 74.284 134.31 75.4416 133.558 76.749C132.66 78.4615 131.184 79.9747 129.13 81.2885C128.085 81.9845 126.976 82.4019 125.803 82.5408C124.74 82.6666 123.649 82.565 122.53 82.2358C122.805 81.2063 123.309 79.679 124.043 77.6537C124.776 77.9731 125.5 78.0904 126.215 78.0058C126.527 77.9689 126.857 77.8652 127.205 77.6948C127.81 77.5124 128.37 77.2616 128.883 76.9424C129.58 76.5276 129.891 76.14 129.818 75.7794C129.745 75.345 129.286 75.1777 128.443 75.2775C127.893 75.3426 127.095 75.5293 126.05 75.8376C125.005 76.2013 124.199 76.4168 123.63 76.4841C122.879 76.573 122.292 76.504 121.87 76.277C120.954 75.9793 120.477 75.3711 120.44 74.4524C120.294 72.679 121.265 70.4686 123.355 67.8212C125.5 65.112 127.545 63.5869 129.488 63.2462C131.395 62.9282 132.605 63.9296 133.118 66.2504ZM147.55 65.8437C145.424 66.2062 143.893 66.4797 142.958 66.6642C142.811 68.6938 143.04 73.0052 143.645 79.5982L138.283 81.3406L138.255 67.6638C137.98 67.7149 137.357 67.8625 136.385 68.1067C135.505 68.3216 134.781 68.4904 134.213 68.6131L134.543 63.8386L146.753 61.2304L147.55 65.8437ZM152.28 66.5854L152.198 68.3675C152.84 67.9961 153.454 67.5542 154.04 67.0417C155.012 66.1698 155.443 65.4634 155.333 64.9226C155.241 64.5273 154.911 64.3448 154.343 64.3751C153.848 64.4153 153.188 64.5765 152.363 64.8587C152.308 65.4745 152.28 66.05 152.28 66.5854ZM155.278 60.0829C158.065 59.7531 159.669 60.6432 160.091 62.7533C160.292 65.3141 159.101 67.5782 156.515 69.5457C156.919 70.1256 158.422 71.8308 161.026 74.6611C159.962 75.747 158.606 77.0983 156.955 78.7152L152.198 72.2998C152.18 74.5358 152.244 76.559 152.39 78.3693L147.853 80.0694C148.11 71.1591 148.073 65.2003 147.743 62.1932C150.768 61.0229 153.28 60.3195 155.278 60.0829ZM161.432 60.573L163.99 59.8549L166.492 59.171C166.162 62.5147 165.97 65.6113 165.915 68.4609C165.86 71.3105 165.924 73.9152 166.107 76.275L163.797 77.1577L161.46 77.9605L161.432 60.573ZM167.928 68.6934C168.001 63.6262 167.901 60.6197 167.626 59.6738C170.541 58.6272 172.878 58.0552 174.638 57.9577C176.398 57.8601 177.709 58.1942 178.571 58.9599C179.542 59.7495 180.037 61.0294 180.056 62.7995C180.074 64.182 179.762 65.4742 179.121 66.6763C178.534 67.6689 177.727 68.5489 176.701 69.3166C175.509 70.2515 174.079 70.9469 172.411 71.4028C172.337 72.5931 172.401 74.2839 172.603 76.4754L167.736 77.55C167.827 75.9145 167.891 72.9623 167.928 68.6934ZM172.273 67.0437C173.355 66.8972 174.235 66.4608 174.913 65.7343C175.427 65.212 175.729 64.567 175.821 63.7992C175.986 62.8197 175.656 62.2218 174.831 62.0056C174.189 61.8231 173.3 61.9838 172.163 62.4875L172.273 67.0437ZM55.9128 120.231C55.0328 119.855 54.2811 119.261 53.6577 118.449C53.3461 117.987 53.0619 117.523 52.8052 117.054C52.6036 116.524 52.4386 115.999 52.3102 115.479C52.2002 114.92 52.136 114.346 52.1177 113.757C52.0994 113.132 52.1177 112.502 52.1727 111.868C52.301 110.745 52.5577 109.644 52.9427 108.564C53.3827 107.478 53.9327 106.435 54.5927 105.434C55.4544 104.187 56.4078 103.225 57.4528 102.547C58.4978 101.87 59.6436 101.457 60.8903 101.31C61.972 101.182 62.9529 101.296 63.8329 101.654C64.6945 102.013 65.4554 102.643 66.1154 103.544L64.7679 105.171L63.3654 106.805C62.467 105.84 61.422 105.622 60.2303 106.151C59.1853 106.644 58.2595 107.603 57.4528 109.027C56.5361 110.631 56.2061 112.24 56.4628 113.852C56.6278 114.7 56.9578 115.335 57.4528 115.757C58.0395 116.241 58.8461 116.395 59.8728 116.218C60.7345 116.079 61.4953 115.684 62.1553 115.034C62.7787 114.425 63.2004 113.673 63.4204 112.78C62.7787 112.966 62.0362 113.193 61.1928 113.459C60.6428 113.635 59.9553 113.882 59.1303 114.201L59.2128 112.364L59.2953 110.554L63.4754 109.312L67.6554 108.152C67.7837 108.672 67.8388 109.247 67.8204 109.877C67.8204 110.468 67.7562 111.122 67.6279 111.839C67.4629 112.449 67.2704 113.044 67.0504 113.624C66.8304 114.204 66.5646 114.761 66.2529 115.297C65.3912 116.857 64.3462 118.07 63.1179 118.935C61.8712 119.821 60.4503 120.359 58.8553 120.548C57.792 120.673 56.8111 120.568 55.9128 120.231ZM76.0208 104.31C75.1225 104.527 74.2608 104.73 73.4358 104.92C73.3808 105.499 73.3441 105.919 73.3258 106.18L73.2433 107.408L75.3058 106.859L77.3409 106.23L77.5334 107.925L77.7809 109.64C76.4242 110.022 75.5442 110.265 75.1408 110.368C74.4258 110.582 73.7933 110.767 73.2433 110.925L73.1883 113.23L75.9658 112.513L78.7159 111.8L79.0184 114.035L79.2934 116.273C77.8634 116.535 76.2592 116.909 74.4808 117.397C72.6841 117.923 70.7041 118.545 68.5407 119.263C68.5224 118.268 68.5041 116.812 68.4857 114.894L68.4307 110.442C68.3941 106.569 68.3666 103.637 68.3482 101.646L73.2708 100.481L78.2209 99.314L78.5234 101.521L78.8259 103.756C77.8359 103.947 76.9009 104.132 76.0208 104.31ZM80.2264 99.6859L85.2865 98.2285C85.3598 98.7552 85.4973 99.4774 85.699 100.395C86.2307 102.584 86.7532 104.48 87.2665 106.08C87.5782 107.022 87.9082 107.749 88.2565 108.262V98.7078L93.3441 97.2748C92.6474 103.985 92.5007 109.707 92.9041 114.441L88.3115 116.092C88.2932 116.02 88.0915 115.749 87.7065 115.277L85.3415 111.93C84.9565 111.403 84.7181 111.043 84.6265 110.851C84.6265 112.845 84.6998 114.729 84.8465 116.502L80.2539 118.181L80.2264 99.6859ZM101.978 101.238C101.08 101.455 100.218 101.658 99.3933 101.848C99.3383 102.427 99.3016 102.847 99.2833 103.107L99.2008 104.335L101.263 103.787L103.298 103.158L103.491 104.852L103.738 106.568C102.382 106.95 101.502 107.192 101.098 107.296C100.383 107.509 99.7508 107.695 99.2008 107.852L99.1458 110.157L101.923 109.441L104.673 108.728L104.976 110.963L105.251 113.201C103.821 113.463 102.217 113.837 100.438 114.324C98.6416 114.851 96.6616 115.473 94.4982 116.191C94.4799 115.196 94.4616 113.739 94.4432 111.822L94.3882 107.37C94.3516 103.497 94.3241 100.565 94.3057 98.5733L99.2283 97.4092L104.178 96.2417L104.481 98.449L104.783 100.684C103.793 100.875 102.858 101.06 101.978 101.238ZM110.446 101.537L110.364 103.319C111.006 102.948 111.62 102.506 112.206 101.993C113.178 101.121 113.609 100.415 113.499 99.874C113.407 99.4786 113.077 99.2962 112.509 99.3265C112.014 99.3666 111.354 99.5278 110.529 99.8101C110.474 100.426 110.446 101.001 110.446 101.537ZM113.444 95.0343C116.231 94.7045 117.835 95.5946 118.257 97.7047C118.458 100.265 117.267 102.53 114.682 104.497C115.085 105.077 116.588 106.782 119.192 109.613C118.128 110.698 116.772 112.05 115.122 113.667L110.364 107.251C110.346 109.487 110.41 111.51 110.556 113.321L106.019 115.021C106.276 106.11 106.239 100.152 105.909 97.1446C108.934 95.9743 111.446 95.2708 113.444 95.0343ZM118.416 112.363C120.139 106.491 121.441 100.697 122.321 94.9806L128.893 93.2888C129.645 98.2214 131.038 103.863 133.073 110.213L128.068 111.968L127.408 108.945L124.136 109.692L123.558 112.89L118.416 112.363ZM126.693 105.762L125.566 99.3042L124.466 106.053L126.693 105.762ZM145.831 96.0472C143.704 96.4097 142.173 96.6832 141.238 96.8677C141.092 98.8974 141.321 103.209 141.926 109.802L136.563 111.544L136.536 97.8674C136.261 97.9184 135.638 98.066 134.666 98.3102C133.786 98.5251 133.062 98.6939 132.493 98.8166L132.823 94.0421L145.034 91.4339L145.831 96.0472ZM147.536 94.5439C148.948 92.1614 150.818 90.8324 153.146 90.5568C155.144 90.3203 156.804 91.0377 158.124 92.7092C158.857 93.6193 159.361 94.5935 159.636 95.6317C159.911 96.6699 160.03 97.8282 159.994 99.1063C159.92 101.275 159.279 103.345 158.069 105.316C156.639 107.719 154.769 109.057 152.459 109.33C150.423 109.571 148.755 108.836 147.453 107.126C146.83 106.406 146.353 105.484 146.023 104.36C145.73 103.25 145.611 102.064 145.666 100.802C145.776 98.5737 146.399 96.4876 147.536 94.5439ZM154.906 96.8285C154.448 95.775 153.824 95.295 153.036 95.3883C152.119 95.4968 151.395 96.2748 150.863 97.7223C150.442 98.8246 150.185 99.9349 150.093 101.053C150.075 101.591 150.148 102.081 150.313 102.523C150.478 103.205 150.753 103.689 151.138 103.976C151.579 104.33 152.138 104.467 152.816 104.387C153.751 104.276 154.457 103.777 154.934 102.89C155.319 102.143 155.52 101.233 155.539 100.16C155.557 98.9761 155.346 97.8656 154.906 96.8285ZM164.91 95.0906L164.828 96.8727C165.469 96.5013 166.083 96.0594 166.67 95.5469C167.642 94.675 168.073 93.9686 167.963 93.4278C167.871 93.0325 167.541 92.85 166.973 92.8803C166.478 92.9204 165.818 93.0816 164.993 93.3639C164.938 93.9796 164.91 94.5552 164.91 95.0906ZM167.908 88.5881C170.694 88.2583 172.298 89.1484 172.72 91.2585C172.922 93.8193 171.73 96.0834 169.145 98.0509C169.548 98.6308 171.052 100.336 173.655 103.166C172.592 104.252 171.235 105.604 169.585 107.22L164.828 100.805C164.809 103.041 164.873 105.064 165.02 106.874L160.482 108.575C160.739 99.6642 160.702 93.7055 160.372 90.6984C163.398 89.5281 165.909 88.8246 167.908 88.5881Z" fill="white"/>
<path d="M46.3111 87.4354L45.4109 87.9643L45.4143 87.971L46.3111 87.4354ZM45.2111 82.4425L44.2182 82.5383L44.2181 82.5497L45.2111 82.4425ZM46.2286 77.5867L47.1366 77.8843L47.1402 77.8755L46.2286 77.5867ZM48.7862 73.8225L48.1984 73.086L48.1921 73.0914L48.186 73.0968L48.7862 73.8225ZM52.6087 72.3731L52.4646 73.3797L52.4782 73.3799L52.6087 72.3731ZM57.2838 74.3675L58.0767 74.8757L58.6157 74.0922L57.9605 73.5555L57.2838 74.3675ZM56.0188 76.2064L56.8055 76.7237L56.8117 76.7147L56.0188 76.2064ZM54.7262 78.0486L54.171 78.9434L54.9439 79.3768L55.5129 78.5659L54.7262 78.0486ZM50.9037 78.2795L51.5733 78.9388L51.5793 78.9325L51.5852 78.9263L50.9037 78.2795ZM49.6937 82.1058L48.7009 82.2453L48.7012 82.2623L48.7022 82.2793L49.6937 82.1058ZM51.0687 85.5431L51.7502 84.735L51.7439 84.7298L51.7375 84.7247L51.0687 85.5431ZM54.8087 84.7681L55.5903 84.0587L54.9918 83.3605L54.2144 84.0373L54.8087 84.7681ZM57.2013 87.5588L57.9968 88.0632L58.4517 87.3963L57.9829 86.8494L57.2013 87.5588ZM53.0487 91.0133L52.8607 90.0537L52.8592 90.0541L53.0487 91.0133ZM49.1712 90.5584L49.7303 89.6657L49.7191 89.6596L49.1712 90.5584ZM47.2113 86.9065C46.5222 85.4988 46.1873 83.9785 46.2041 82.3353L44.2181 82.5497C44.1982 84.4924 44.5967 86.3007 45.411 87.9643L47.2113 86.9065ZM46.204 82.3467C46.238 80.7677 46.5515 79.2834 47.1366 77.8843L45.3207 77.2891C44.6224 78.9588 44.2576 80.7117 44.2183 82.5383L46.204 82.3467ZM47.1402 77.8755C47.7284 76.4352 48.4855 75.343 49.3864 74.5481L48.186 73.0968C46.9602 74.1783 46.0122 75.5955 45.317 77.2979L47.1402 77.8755ZM49.374 74.5589C50.3479 73.7234 51.3614 73.3472 52.4646 73.3796L52.7528 71.3666C51.106 71.3183 49.5711 71.9084 48.1984 73.086L49.374 74.5589ZM52.4782 73.3799C53.726 73.3987 55.1019 73.9464 56.6071 75.1794L57.9605 73.5555C56.2757 72.1753 54.5349 71.3934 52.7392 71.3663L52.4782 73.3799ZM56.4909 73.8592L55.2259 75.6982L56.8117 76.7147L58.0767 74.8757L56.4909 73.8592ZM55.2321 75.6892L53.9396 77.5314L55.5129 78.5659L56.8054 76.7236L55.2321 75.6892ZM55.2815 77.1538C54.4127 76.6666 53.5271 76.3849 52.6452 76.4381C51.7214 76.4939 50.8963 76.9126 50.2222 77.6328L51.5852 78.9263C51.8827 78.6084 52.1806 78.4695 52.531 78.4483C52.9233 78.4246 53.4631 78.5465 54.171 78.9434L55.2815 77.1538ZM50.2341 77.6203C49.0965 78.8009 48.6608 80.4173 48.7009 82.2453L50.6865 81.9663C50.6532 80.443 51.0242 79.5086 51.5733 78.9388L50.2341 77.6203ZM48.7022 82.2793C48.8017 84.0513 49.3091 85.4898 50.3999 86.3614L51.7375 84.7247C51.1783 84.2778 50.769 83.4248 50.6852 81.9324L48.7022 82.2793ZM50.3872 86.3511C51.0637 86.9137 51.893 87.1332 52.8198 86.9412C53.6985 86.7591 54.5654 86.2282 55.4031 85.4989L54.2144 84.0373C53.5304 84.6327 53.0131 84.8933 52.6452 84.9696C52.3253 85.0359 52.0453 84.9805 51.7502 84.735L50.3872 86.3511ZM54.0271 85.4775L56.4197 88.2682L57.9829 86.8494L55.5903 84.0587L54.0271 85.4775ZM56.4058 87.0543C55.2554 88.7407 54.0663 89.6769 52.8607 90.0537L53.2367 91.973C55.0745 91.3987 56.6538 90.0319 57.9968 88.0632L56.4058 87.0543ZM52.8592 90.0541C51.836 90.3756 50.8092 90.2782 49.7302 89.6658L48.6121 91.4511C50.0631 92.2746 51.6214 92.4805 53.2383 91.9725L52.8592 90.0541ZM49.7191 89.6596C48.7014 89.1021 47.8583 88.1998 47.2079 86.8997L45.4143 87.971C46.1939 89.5294 47.2575 90.7091 48.6233 91.4573L49.7191 89.6596ZM58.8842 75.0365L58.0484 74.5954L58.045 74.6012L58.8842 75.0365ZM69.4719 73.2018L68.6687 73.8851L68.6739 73.8915L69.4719 73.2018ZM70.9844 76.1244L71.9458 75.7602V75.7602L70.9844 76.1244ZM71.3419 79.599L72.3344 79.5157L72.3345 79.5104L71.3419 79.599ZM69.4169 85.8083L68.5906 85.3514L68.5863 85.3584L68.5822 85.3653L69.4169 85.8083ZM58.8017 87.6186L59.6141 86.9473L59.5981 86.9262L59.5807 86.9061L58.8017 87.6186ZM57.3717 84.8524L56.4101 85.2161L56.4133 85.2282L56.4168 85.2402L57.3717 84.8524ZM57.0142 81.2948L56.0224 81.3622L56.0221 81.3681L57.0142 81.2948ZM66.2543 77.3211L67.1742 76.8354L67.171 76.828L66.2543 77.3211ZM62.2118 78.215L63.1327 78.4802L63.1354 78.4731L63.138 78.466L62.2118 78.215ZM61.4418 81.5461L60.4521 81.5802L60.4501 81.6047L60.4493 81.6291L61.4418 81.5461ZM61.6618 83.0154L62.6281 82.6706L62.6152 82.6171L62.5961 82.5661L61.6618 83.0154ZM62.4868 84.4686L63.1578 83.652L63.1456 83.6422L63.1331 83.6328L62.4868 84.4686ZM66.2818 83.3825L67.1417 83.781L67.1464 83.7722L67.151 83.7633L66.2818 83.3825ZM66.8868 80.6524L67.8798 80.5521L67.8798 80.5505L66.8868 80.6524ZM59.72 75.4776C60.9755 73.3587 62.5504 72.2795 64.4943 72.0494V70.0494C61.7815 70.3705 59.6163 71.9493 58.0484 74.5954L59.72 75.4776ZM64.4943 72.0494C66.1324 71.8555 67.5091 72.4166 68.6687 73.8851L70.275 72.5186C68.7946 70.6441 66.8529 69.7703 64.4943 70.0494V72.0494ZM68.6739 73.8915C69.3405 74.7188 69.7836 75.5848 70.0229 76.4885L71.9458 75.7602C71.6352 74.5874 71.07 73.5051 70.2698 72.5122L68.6739 73.8915ZM70.0229 76.4885C70.2713 77.4261 70.3836 78.4897 70.3492 79.6875L72.3345 79.5104C72.3735 78.1518 72.2475 76.899 71.9458 75.7602L70.0229 76.4885ZM70.3494 79.6823C70.2825 81.6613 69.7 83.5444 68.5906 85.3514L70.2431 86.2652C71.5537 84.1305 72.2546 81.874 72.3344 79.5157L70.3494 79.6823ZM68.5822 85.3653C67.3044 87.5126 65.7265 88.5959 63.8068 88.8231V90.8231C66.5071 90.5035 68.6693 88.9103 70.2515 86.2514L68.5822 85.3653ZM63.8068 88.8231C62.1352 89.021 60.7542 88.4454 59.6141 86.9473L57.9893 88.2898C59.4526 90.2128 61.4083 91.107 63.8068 90.8231V88.8231ZM59.5807 86.9061C59.0519 86.2953 58.6277 85.4905 58.3266 84.4647L56.4168 85.2402C56.7757 86.4624 57.3048 87.5017 58.0227 88.331L59.5807 86.9061ZM58.3333 84.4888C58.066 83.4776 57.9554 82.3901 58.0063 81.2214L56.0221 81.3681C55.963 82.7232 56.0907 84.0075 56.4101 85.2161L58.3333 84.4888ZM58.006 81.2273C58.1078 79.1655 58.6816 77.2533 59.7234 75.4718L58.045 74.6012C56.8134 76.7072 56.1406 78.9672 56.0224 81.3622L58.006 81.2273ZM67.171 76.828C66.6492 75.6287 65.766 74.7174 64.3843 74.8809V76.8809C64.5793 76.8578 64.9428 76.9067 65.3376 77.8142L67.171 76.828ZM64.3843 74.8809C62.8333 75.0645 61.8632 76.3912 61.2855 77.9639L63.138 78.466C63.6237 77.1436 64.1019 76.9143 64.3843 76.8809V74.8809ZM61.2908 77.9498C60.8327 79.1474 60.5522 80.3586 60.4521 81.5802L62.4314 81.512C62.5146 80.4965 62.7475 79.487 63.1327 78.4802L61.2908 77.9498ZM60.4493 81.6291C60.427 82.2824 60.5159 82.8981 60.7274 83.4648L62.5961 82.5661C62.4776 82.2487 62.4198 81.8849 62.4342 81.4631L60.4493 81.6291ZM60.6954 83.3603C60.8895 84.1625 61.2422 84.8588 61.8405 85.3043L63.1331 83.6328C62.9613 83.5049 62.764 83.2324 62.6281 82.6706L60.6954 83.3603ZM61.8157 85.2851C62.4641 85.8069 63.2739 85.9846 64.1643 85.8793V83.8793C63.698 83.9344 63.3895 83.8384 63.1578 83.652L61.8157 85.2851ZM64.1643 85.8793C65.4623 85.7256 66.4918 84.9906 67.1417 83.781L65.422 82.984C65.1185 83.5487 64.7363 83.8115 64.1643 83.8793V85.8793ZM67.151 83.7633C67.6364 82.8214 67.8595 81.7359 67.8797 80.5521L65.8939 80.7527C65.8775 81.7147 65.6973 82.4493 65.4126 83.0017L67.151 83.7633ZM67.8798 80.5505C67.9002 79.2328 67.6648 77.9918 67.1742 76.8354L65.3344 77.8068C65.7239 78.7248 65.9101 79.7046 65.8939 80.7543L67.8798 80.5505ZM70.9783 88.3097L70.0314 88.1203L69.6986 89.2194L70.7802 89.313L70.9783 88.3097ZM74.5533 70.9112L74.3552 69.9547L73.6593 70.1798L73.5684 70.8998L74.5533 70.9112ZM79.1459 69.4261L80.1272 69.1569L79.968 68.1397L78.9477 68.4696L79.1459 69.4261ZM80.5209 78.2079L79.5395 78.4771L81.5036 78.2353L80.5209 78.2079ZM81.7584 69.4769L81.6775 68.4898L80.8892 68.6479L80.7756 69.4495L81.7584 69.4769ZM86.131 68.5993L87.1167 68.3618L87.0014 67.4213L86.05 67.6122L86.131 68.5993ZM90.036 85.9433L90.2339 86.8998L91.3093 86.5523L90.9846 85.5351L90.036 85.9433ZM85.1684 87.5163L84.1936 87.8227L84.3849 88.79L85.3664 88.4728L85.1684 87.5163ZM83.4084 78.6139L84.3832 78.3075L82.4235 78.6029L83.4084 78.6139ZM82.3084 87.3564L82.3898 88.3434L83.1908 88.1823L83.2934 87.3674L82.3084 87.3564ZM78.2934 88.1639L77.307 88.3965L77.4181 89.3433L78.3747 89.1509L78.2934 88.1639ZM77.1933 78.7956L78.1797 78.563L76.2118 78.7602L77.1933 78.7956ZM75.7083 88.7191L75.5103 89.7224L76.5318 89.8109L76.6899 88.7545L75.7083 88.7191ZM71.9251 88.4991C73.5228 83.2218 74.7255 77.3615 75.5382 70.9226L73.5684 70.8998C72.7678 77.2426 71.5871 82.9813 70.0314 88.1203L71.9251 88.4991ZM74.7514 71.8676L79.344 70.3825L78.9477 68.4696L74.3552 69.9547L74.7514 71.8676ZM78.1645 69.6952L79.5395 78.4771L81.5023 77.9388L80.1272 69.1569L78.1645 69.6952ZM81.5036 78.2353L82.7412 69.5042L80.7756 69.4495L79.5381 78.1806L81.5036 78.2353ZM81.8393 70.4639L86.2119 69.5864L86.05 67.6122L81.6775 68.4898L81.8393 70.4639ZM85.1452 68.8368C85.8317 74.4357 87.1475 80.2742 89.0874 86.3514L90.9846 85.5351C89.0745 79.5511 87.7869 73.827 87.1167 68.3618L85.1452 68.8368ZM89.8381 84.9868L84.9705 86.5598L85.3664 88.4728L90.2339 86.8998L89.8381 84.9868ZM86.1432 87.21L84.3832 78.3075L82.4336 78.9202L84.1936 87.8227L86.1432 87.21ZM82.4235 78.6029L81.3234 87.3454L83.2934 87.3674L84.3934 78.6249L82.4235 78.6029ZM82.2271 86.3694L78.212 87.1769L78.3747 89.1509L82.3898 88.3434L82.2271 86.3694ZM79.2797 87.9313L78.1797 78.563L76.207 79.0282L77.307 88.3965L79.2797 87.9313ZM76.2118 78.7602L74.7267 88.6836L76.6899 88.7545L78.1749 78.8311L76.2118 78.7602ZM75.9063 87.7157L71.1763 87.3063L70.7802 89.313L75.5103 89.7224L75.9063 87.7157ZM90.455 68.9737L90.2968 68.0052L89.4605 68.24L89.4619 69.0928L90.455 68.9737ZM93.0125 68.2556L92.8615 67.2851L92.8544 67.2871L93.0125 68.2556ZM95.515 67.5717L96.5031 67.5548L96.6314 66.2549L95.364 66.6012L95.515 67.5717ZM94.9375 76.8616L93.9446 76.9597L94.9375 76.8616ZM95.13 84.6758L95.3816 85.6133L96.1842 85.3067L96.1201 84.4813L95.13 84.6758ZM92.82 85.5584L93.0366 86.5087L93.0542 86.5026L93.0716 86.496L92.82 85.5584ZM90.4825 86.3612L89.4894 86.4803L89.4914 87.7263L90.6991 87.3115L90.4825 86.3612ZM90.6131 69.9422L93.1706 69.2241L92.8544 67.2871L90.2968 68.0052L90.6131 69.9422ZM93.1635 69.2261L95.666 68.5422L95.364 66.6012L92.8615 67.2851L93.1635 69.2261ZM94.5269 67.5886C94.1947 70.955 94.0002 74.0791 93.9446 76.9597L95.9304 76.7636C95.9848 73.945 96.1753 70.8758 96.5031 67.5548L94.5269 67.5886ZM93.9446 76.9597C93.8891 79.8357 93.9537 82.4732 94.1399 84.8702L96.1201 84.4813C95.9397 82.1587 95.8759 79.5867 95.9304 76.7636L93.9446 76.9597ZM94.8784 83.7382L92.5684 84.6208L93.0716 86.496L95.3816 85.6133L94.8784 83.7382ZM92.6034 84.6081L90.2658 85.4109L90.6991 87.3115L93.0366 86.5087L92.6034 84.6081ZM91.4755 86.2421L91.448 68.8546L89.4619 69.0928L89.4894 86.4803L91.4755 86.2421ZM97.3358 81.3962L96.4357 81.9251L96.439 81.9319L97.3358 81.3962ZM96.2358 76.4033L95.2429 76.4991L95.2428 76.5106L96.2358 76.4033ZM97.2533 71.5475L98.1613 71.8451L98.165 71.8363L97.2533 71.5475ZM99.8109 67.7833L99.2231 67.0468L99.2168 67.0522L99.2107 67.0576L99.8109 67.7833ZM103.633 66.3339L103.489 67.3405L103.503 67.3407L103.633 66.3339ZM108.308 68.3283L109.101 68.8365L109.64 68.053L108.985 67.5163L108.308 68.3283ZM107.043 70.1672L107.83 70.6845L107.836 70.6755L107.043 70.1672ZM105.751 72.0095L105.196 72.9042L105.969 73.3377L106.538 72.5267L105.751 72.0095ZM101.928 72.2403L102.598 72.8996L102.604 72.8934L102.61 72.8871L101.928 72.2403ZM100.718 76.0666L99.7256 76.2061L99.7259 76.2231L99.7269 76.2401L100.718 76.0666ZM102.093 79.5039L102.775 78.6958L102.769 78.6906L102.762 78.6855L102.093 79.5039ZM105.833 78.7289L106.615 78.0195L106.017 77.3214L105.239 77.9981L105.833 78.7289ZM108.226 81.5196L109.021 82.024L109.476 81.3571L109.008 80.8102L108.226 81.5196ZM104.073 84.9742L103.885 84.0145L103.884 84.015L104.073 84.9742ZM100.196 84.5192L100.755 83.6265L100.744 83.6204L100.196 84.5192ZM98.236 80.8674C97.5469 79.4596 97.212 77.9394 97.2288 76.2961L95.2428 76.5106C95.223 78.4532 95.6214 80.2615 96.4357 81.9251L98.236 80.8674ZM97.2287 76.3076C97.2627 74.7285 97.5762 73.2443 98.1613 71.8451L96.3454 71.2499C95.6471 72.9196 95.2823 74.6725 95.243 76.4991L97.2287 76.3076ZM98.165 71.8363C98.7531 70.396 99.5102 69.3038 100.411 68.5089L99.2107 67.0576C97.9849 68.1391 97.0369 69.5564 96.3417 71.2588L98.165 71.8363ZM100.399 68.5197C101.373 67.6842 102.386 67.308 103.489 67.3404L103.778 65.3275C102.131 65.2792 100.596 65.8692 99.2231 67.0468L100.399 68.5197ZM103.503 67.3407C104.751 67.3595 106.127 67.9072 107.632 69.1403L108.985 67.5163C107.3 66.1361 105.56 65.3543 103.764 65.3272L103.503 67.3407ZM107.516 67.82L106.251 69.659L107.836 70.6755L109.101 68.8365L107.516 67.82ZM106.257 69.65L104.964 71.4922L106.538 72.5267L107.83 70.6845L106.257 69.65ZM106.306 71.1147C105.437 70.6274 104.552 70.3457 103.67 70.399C102.746 70.4548 101.921 70.8734 101.247 71.5936L102.61 72.8871C102.907 72.5692 103.205 72.4303 103.556 72.4092C103.948 72.3855 104.488 72.5073 105.196 72.9042L106.306 71.1147ZM101.259 71.5811C100.121 72.7617 99.6856 74.3781 99.7256 76.2061L101.711 75.9272C101.678 74.4039 102.049 73.4694 102.598 72.8996L101.259 71.5811ZM99.7269 76.2401C99.8264 78.0121 100.334 79.4506 101.425 80.3222L102.762 78.6855C102.203 78.2386 101.794 77.3856 101.71 75.8932L99.7269 76.2401ZM101.412 80.3119C102.088 80.8745 102.918 81.094 103.844 80.902C104.723 80.7199 105.59 80.189 106.428 79.4597L105.239 77.9981C104.555 78.5936 104.038 78.8542 103.67 78.9304C103.35 78.9967 103.07 78.9413 102.775 78.6958L101.412 80.3119ZM105.052 79.4383L107.444 82.229L109.008 80.8102L106.615 78.0195L105.052 79.4383ZM107.43 81.0152C106.28 82.7015 105.091 83.6378 103.885 84.0145L104.261 85.9338C106.099 85.3596 107.678 83.9928 109.021 82.024L107.43 81.0152ZM103.884 84.015C102.861 84.3364 101.834 84.239 100.755 83.6266L99.6368 85.4119C101.088 86.2354 102.646 86.4413 104.263 85.9333L103.884 84.015ZM100.744 83.6204C99.7262 83.0629 98.8831 82.1607 98.2327 80.8606L96.439 81.9319C97.2187 83.4902 98.2822 84.67 99.648 85.4181L100.744 83.6204ZM133.118 66.2504L134.093 65.9449L134.091 65.9341L134.088 65.9234L133.118 66.2504ZM133.393 68.1563L133.707 69.0678L134.462 68.725L134.381 67.9373L133.393 68.1563ZM131.248 69.1302L131.551 70.0466L131.562 70.0417L131.248 69.1302ZM129.103 70.0763L128.128 70.3832L128.342 71.462L129.406 70.9927L129.103 70.0763ZM125.995 70.3057L125.273 69.7045L125.237 69.7481L125.204 69.7949L125.995 70.3057ZM125.638 71.8434L124.703 72.2927L124.715 72.3228L124.728 72.3519L125.638 71.8434ZM128.36 71.8258L128.524 72.7928L128.36 71.8258ZM133.97 72.3802L133.082 72.9326L133.093 72.9531L133.105 72.9729L133.97 72.3802ZM134.355 73.2762L135.326 72.9517L135.32 72.9232L135.312 72.8953L134.355 73.2762ZM133.558 76.7491L132.714 76.3212L132.703 76.3408L132.693 76.3607L133.558 76.7491ZM129.13 81.2885L128.674 80.4545L128.665 80.4602L128.656 80.4661L129.13 81.2885ZM122.53 82.2358L121.573 82.0814L121.337 82.9654L122.154 83.2057L122.53 82.2358ZM124.043 77.6537L124.521 76.7208L123.521 76.2853L123.115 77.4075L124.043 77.6537ZM127.205 77.6948L127.028 76.7319L126.943 76.7575L126.862 76.7971L127.205 77.6948ZM128.883 76.9424L128.458 76.089L128.448 76.0946L128.439 76.1005L128.883 76.9424ZM129.818 75.7794L128.838 76.0597L128.841 76.0753L128.844 76.0908L129.818 75.7794ZM126.05 75.8376L125.879 74.873L125.854 74.8803L125.83 74.8888L126.05 75.8376ZM121.87 76.277L122.413 75.3752L122.345 75.3385L122.27 75.3143L121.87 76.277ZM120.44 74.4524L121.433 74.295L121.432 74.2739L121.43 74.2531L120.44 74.4524ZM123.355 67.8212L122.61 67.249L122.609 67.2503L123.355 67.8212ZM129.488 63.2462L129.44 62.2529L129.432 62.2544L129.488 63.2462ZM132.143 66.5558C132.246 67.0808 132.334 67.6864 132.405 68.3752L134.381 67.9373C134.305 67.2035 134.21 66.5385 134.093 65.9449L132.143 66.5558ZM133.079 67.2448C132.639 67.4445 131.924 67.7692 130.934 68.2186L131.562 70.0417C132.552 69.5922 133.267 69.2676 133.707 69.0678L133.079 67.2448ZM130.945 68.2137L128.8 69.1599L129.406 70.9927L131.551 70.0466L130.945 68.2137ZM130.078 69.7695C129.983 69.294 129.796 68.8234 129.429 68.4879C129.036 68.1288 128.529 68.0088 128.003 68.0712V70.0712C128.043 70.0664 128.05 70.0718 128.037 70.0683C128.023 70.0643 128.011 70.0563 128.007 70.0528C128.007 70.0524 128.076 70.1191 128.128 70.3832L130.078 69.7695ZM128.003 68.0712C126.945 68.1963 126.031 68.8074 125.273 69.7045L126.717 70.9069C127.207 70.3271 127.63 70.1152 128.003 70.0712V68.0712ZM125.204 69.7949C124.681 70.552 124.385 71.4392 124.703 72.2927L126.572 71.3941C126.561 71.3635 126.504 71.2256 126.787 70.8164L125.204 69.7949ZM124.728 72.3519C124.948 72.8315 125.385 73.0318 125.75 73.1111C126.114 73.1903 126.533 73.1805 126.958 73.1302V71.1302C126.631 71.1689 126.454 71.1558 126.378 71.1394C126.303 71.1231 126.456 71.1355 126.548 71.3349L124.728 72.3519ZM126.958 73.1302C127.416 73.076 127.941 72.9595 128.524 72.7928L128.197 70.8587C127.679 71.0069 127.27 71.0933 126.958 71.1302V73.1302ZM128.524 72.7928C129.364 72.5524 130.096 72.3988 130.725 72.3243V70.3243C129.961 70.4147 129.117 70.5955 128.197 70.8587L128.524 72.7928ZM130.725 72.3243C132.275 72.1409 132.859 72.5096 133.082 72.9326L134.859 71.8279C134.128 70.4437 132.549 70.1084 130.725 70.3243V72.3243ZM133.105 72.9729C133.23 73.182 133.328 73.4094 133.399 73.6571L135.312 72.8953C135.2 72.5001 135.041 72.1301 134.836 71.7875L133.105 72.9729ZM133.384 73.6007C133.534 74.2845 133.38 75.1638 132.714 76.3212L134.402 77.1769C135.239 75.7195 135.617 74.2835 135.326 72.9517L133.384 73.6007ZM132.693 76.3607C131.911 77.8501 130.6 79.2218 128.674 80.4545L129.587 82.1224C131.767 80.7276 133.408 79.073 134.423 77.1374L132.693 76.3607ZM128.656 80.4661C127.754 81.0666 126.808 81.4218 125.803 81.5408V83.5408C127.144 83.382 128.416 82.9024 129.605 82.1108L128.656 80.4661ZM125.803 81.5408C124.885 81.6494 123.922 81.5647 122.907 81.2659L122.154 83.2057C123.375 83.5652 124.594 83.6839 125.803 83.5408V81.5408ZM123.487 82.3902C123.749 81.4088 124.24 79.9185 124.971 77.8999L123.115 77.4075C122.379 79.4394 121.861 81.0039 121.573 82.0814L123.487 82.3902ZM123.564 78.5866C124.419 78.9588 125.307 79.1134 126.215 79.0058V77.0058C125.694 77.0675 125.133 76.9873 124.521 76.7208L123.564 78.5866ZM126.215 79.0058C126.664 78.9527 127.111 78.8067 127.549 78.5925L126.862 76.7971C126.603 76.9238 126.39 76.9851 126.215 77.0058V79.0058ZM127.383 78.6576C128.074 78.4493 128.724 78.1594 129.327 77.7842L128.439 76.1005C128.015 76.3638 127.547 76.5755 127.028 76.7319L127.383 78.6576ZM129.308 77.7958C129.708 77.5575 130.096 77.272 130.379 76.9198C130.686 76.5386 130.905 76.0245 130.792 75.468L128.844 76.0908C128.828 76.0129 128.834 75.9268 128.859 75.8502C128.881 75.7809 128.908 75.7507 128.899 75.7614C128.89 75.773 128.856 75.8111 128.779 75.8723C128.703 75.9325 128.598 76.0052 128.458 76.089L129.308 77.7958ZM130.797 75.4991C130.7 74.9193 130.322 74.5486 129.849 74.3758C129.425 74.2211 128.927 74.2202 128.443 74.2775V76.2775C128.613 76.2574 128.742 76.2534 128.838 76.2584C128.935 76.2634 128.979 76.2768 128.989 76.2805C128.997 76.2833 128.96 76.2713 128.917 76.2226C128.871 76.1701 128.847 76.1083 128.838 76.0597L130.797 75.4991ZM128.443 74.2775C127.804 74.3531 126.939 74.5603 125.879 74.873L126.222 76.8023C127.252 76.4983 127.981 76.3322 128.443 76.2775V74.2775ZM125.83 74.8888C124.805 75.2453 124.085 75.4302 123.63 75.4841V77.4841C124.312 77.4034 125.205 77.1573 126.271 76.7865L125.83 74.8888ZM123.63 75.4841C122.982 75.5608 122.612 75.4824 122.413 75.3752L121.328 77.1788C121.972 77.5256 122.775 77.5853 123.63 77.4841V75.4841ZM122.27 75.3143C121.937 75.206 121.744 75.0616 121.63 74.9168C121.52 74.7766 121.444 74.5845 121.433 74.295L119.448 74.6098C119.473 75.239 119.653 75.8104 120.02 76.2784C120.383 76.7418 120.887 77.0503 121.47 77.2396L122.27 75.3143ZM121.43 74.2531C121.317 72.8921 122.062 70.9759 124.102 68.3922L122.609 67.2503C120.468 69.9613 119.27 72.4659 119.451 74.6517L121.43 74.2531ZM124.101 68.3935C126.182 65.7656 127.997 64.5092 129.544 64.2379L129.432 62.2544C127.092 62.6647 124.819 64.4583 122.61 67.249L124.101 68.3935ZM129.536 64.2394C130.264 64.1179 130.767 64.2544 131.145 64.568C131.551 64.9036 131.915 65.5258 132.147 66.5773L134.088 65.9234C133.808 64.6542 133.31 63.6153 132.505 62.9494C131.674 62.2616 130.618 62.0565 129.44 62.253L129.536 64.2394ZM147.55 65.8437L147.602 66.8363L148.717 66.6462L148.529 65.5597L147.55 65.8437ZM142.958 66.6642L142.88 65.6764L142.03 65.8442L141.968 66.7082L142.958 66.6642ZM143.645 79.5982L143.845 80.5542L144.715 80.2714L144.634 79.3901L143.645 79.5982ZM138.283 81.3406L137.29 81.4602L137.292 82.6833L138.482 82.2966L138.283 81.3406ZM138.255 67.6638L139.248 67.5443L139.246 66.4778L138.189 66.6739L138.255 67.6638ZM136.385 68.1067L136.509 69.0844L136.515 69.0827L136.385 68.1067ZM134.213 68.6131L133.222 68.6603L133.14 69.8493L134.308 69.5971L134.213 68.6131ZM134.543 63.8386L134.449 62.8542L133.611 63.0332L133.552 63.8859L134.543 63.8386ZM146.753 61.2304L147.732 60.9464L147.577 60.0499L146.659 60.2459L146.753 61.2304ZM147.499 64.8511C145.372 65.2137 143.83 65.4891 142.88 65.6764L143.036 67.6519C143.956 67.4702 145.476 67.1987 147.602 66.8363L147.499 64.8511ZM141.968 66.7082C141.814 68.8365 142.053 73.2331 142.656 79.8063L144.634 79.3901C144.028 72.7773 143.809 68.5512 143.948 66.6202L141.968 66.7082ZM143.446 78.6422L138.083 80.3846L138.482 82.2966L143.845 80.5542L143.446 78.6422ZM139.276 81.221L139.248 67.5443L137.262 67.7834L137.29 81.4602L139.276 81.221ZM138.189 66.6739C137.876 66.7321 137.218 66.8888 136.255 67.1307L136.515 69.0827C137.496 68.8361 138.085 68.6976 138.321 68.6538L138.189 66.6739ZM136.262 67.129C135.387 67.3428 134.673 67.5091 134.117 67.6291L134.308 69.5971C134.89 69.4717 135.624 69.3005 136.509 69.0844L136.262 67.129ZM135.203 68.5658L135.533 63.7914L133.552 63.8859L133.222 68.6603L135.203 68.5658ZM134.636 64.8231L146.846 62.2149L146.659 60.2459L134.449 62.8542L134.636 64.8231ZM145.774 61.5144L146.572 66.1277L148.529 65.5597L147.732 60.9464L145.774 61.5144ZM152.28 66.5854L153.272 66.5148L153.274 66.4913V66.4679L152.28 66.5854ZM152.198 68.3675L151.206 68.4381L151.13 70.0852L152.611 69.2281L152.198 68.3675ZM154.04 67.0417L154.636 67.7712L154.642 67.766L154.648 67.7607L154.04 67.0417ZM155.333 64.9226L156.307 64.6112L156.304 64.5987L156.301 64.5863L155.333 64.9226ZM154.343 64.3751L154.407 63.3696L154.393 63.3704L154.38 63.3715L154.343 64.3751ZM152.363 64.8587L152.148 63.908L151.44 64.1502L151.374 64.8852L152.363 64.8587ZM160.091 62.7533L161.081 62.5578L161.076 62.5006L161.065 62.4451L160.091 62.7533ZM156.515 69.5457L155.981 68.766L155.139 69.4071L155.682 70.1876L156.515 69.5457ZM161.026 74.6611L161.688 75.3272L162.402 74.5982L161.788 73.9298L161.026 74.6611ZM156.955 78.7152L156.137 79.378L156.762 80.2209L157.601 79.3986L156.955 78.7152ZM152.198 72.2998L153.017 71.6369L151.231 69.229L151.205 72.4091L152.198 72.2998ZM152.39 78.3693L152.635 79.3094L153.448 79.005L153.38 78.1716L152.39 78.3693ZM147.853 80.0694L146.86 80.1578L146.822 81.4876L148.098 81.0095L147.853 80.0694ZM147.743 62.1932L147.487 61.2573L146.663 61.576L146.756 62.4185L147.743 62.1932ZM151.288 66.656L151.206 68.4381L153.19 68.2969L153.272 66.5148L151.288 66.656ZM152.611 69.2281C153.32 68.8179 153.995 68.3315 154.636 67.7712L153.445 66.3122C152.913 66.777 152.36 67.1744 151.785 67.5069L152.611 69.2281ZM154.648 67.7607C155.176 67.2866 155.621 66.8033 155.92 66.312C156.223 65.8159 156.431 65.2199 156.307 64.6112L154.359 65.2339C154.345 65.1661 154.393 65.1937 154.264 65.404C154.133 65.6191 153.876 65.9249 153.433 66.3227L154.648 67.7607ZM156.301 64.5863C156.202 64.1571 155.954 63.8057 155.568 63.592C155.208 63.393 154.794 63.349 154.407 63.3696L154.279 65.3806C154.365 65.376 154.42 65.3808 154.452 65.3861C154.482 65.3913 154.482 65.3957 154.466 65.3865C154.447 65.3761 154.42 65.3557 154.397 65.3237C154.374 65.2923 154.366 65.2661 154.365 65.2588L156.301 64.5863ZM154.38 63.3715C153.761 63.4216 153.006 63.6144 152.148 63.908L152.578 65.8094C153.37 65.5386 153.935 65.4089 154.306 65.3788L154.38 63.3715ZM151.374 64.8852C151.317 65.5272 151.287 66.1334 151.287 66.7029L153.274 66.4679C153.274 65.9666 153.299 65.4217 153.352 64.8322L151.374 64.8852ZM155.278 61.0829C156.558 60.9314 157.438 61.0773 158.019 61.3998C158.572 61.7065 158.949 62.2245 159.116 63.0615L161.065 62.4451C160.811 61.1721 160.175 60.19 159.123 59.6065C158.1 59.0388 156.785 58.9046 155.278 59.0829V61.0829ZM159.101 62.9488C159.267 65.0679 158.328 66.9798 155.981 68.766L157.05 70.3254C159.873 68.1766 161.317 65.5602 161.081 62.5578L159.101 62.9488ZM155.682 70.1876C156.127 70.8275 157.682 72.5863 160.263 75.3924L161.788 73.9298C159.162 71.0753 157.711 69.4238 157.349 68.9038L155.682 70.1876ZM160.363 73.995C159.307 75.0729 157.957 76.418 156.31 78.0317L157.601 79.3986C159.254 77.7787 160.617 76.4211 161.688 75.3272L160.363 73.995ZM157.774 78.0523L153.017 71.6369L151.379 72.9627L156.137 79.378L157.774 78.0523ZM151.205 72.4091C151.186 74.6686 151.251 76.7219 151.401 78.567L153.38 78.1716C153.236 76.396 153.173 74.403 153.191 72.1905L151.205 72.4091ZM152.145 77.4292L147.608 79.1293L148.098 81.0095L152.635 79.3094L152.145 77.4292ZM148.846 79.981C149.102 71.0806 149.069 65.0534 148.73 61.9679L146.756 62.4185C147.077 65.3472 147.117 71.2376 146.86 80.1578L148.846 79.981ZM147.999 63.1292C150.982 61.9751 153.4 61.3052 155.278 61.0829V59.0829C153.159 59.3337 150.554 60.0707 147.487 61.2573L147.999 63.1292ZM161.432 60.573L161.274 59.6045L160.438 59.8393L160.439 60.6921L161.432 60.573ZM163.99 59.8549L163.839 58.8844L163.832 58.8864L163.99 59.8549ZM166.492 59.171L167.48 59.1541L167.609 57.8542L166.341 58.2005L166.492 59.171ZM165.915 68.4609L164.922 68.5589L165.915 68.4609ZM166.107 76.275L166.359 77.2126L167.161 76.906L167.097 76.0806L166.107 76.275ZM163.797 77.1577L164.014 78.108L164.031 78.1019L164.049 78.0953L163.797 77.1577ZM161.46 77.9605L160.467 78.0796L160.469 79.3256L161.676 78.9108L161.46 77.9605ZM161.59 61.5415L164.148 60.8234L163.832 58.8864L161.274 59.6045L161.59 61.5415ZM164.141 60.8254L166.643 60.1415L166.341 58.2005L163.839 58.8844L164.141 60.8254ZM165.504 59.1879C165.172 62.5543 164.977 65.6784 164.922 68.5589L166.908 68.3629C166.962 65.5443 167.153 62.4751 167.48 59.1541L165.504 59.1879ZM164.922 68.5589C164.866 71.435 164.931 74.0725 165.117 76.4695L167.097 76.0806C166.917 73.7579 166.853 71.186 166.908 68.3629L164.922 68.5589ZM165.856 75.3375L163.546 76.2201L164.049 78.0953L166.359 77.2126L165.856 75.3375ZM163.581 76.2074L161.243 77.0102L161.676 78.9108L164.014 78.108L163.581 76.2074ZM162.453 77.8414L162.425 60.4539L160.439 60.6921L160.467 78.0796L162.453 77.8414ZM167.928 68.6934L166.935 68.7963L166.935 68.8023L167.928 68.6934ZM167.626 59.6738L167.395 58.7285L166.388 59.0899L166.67 60.0592L167.626 59.6738ZM174.638 57.9577L174.576 58.963L174.638 57.9577ZM178.571 58.9599L177.869 59.7501L177.882 59.7623L177.897 59.774L178.571 58.9599ZM180.056 62.7995L179.063 62.9275L179.063 62.9304L180.056 62.7995ZM179.121 66.6763L179.957 67.1164L179.97 67.0945L179.982 67.0721L179.121 66.6763ZM176.701 69.3166L176.174 68.5309L176.163 68.539L176.153 68.5474L176.701 69.3166ZM172.411 71.4028L172.26 70.4323L171.469 70.6483L171.42 71.4578L172.411 71.4028ZM172.603 76.4754L172.704 77.4584L173.682 77.2425L173.592 76.2671L172.603 76.4754ZM167.736 77.55L166.744 77.6106L166.678 78.7886L167.836 78.533L167.736 77.55ZM172.273 67.0437L171.28 67.1855L171.304 68.1751L172.29 68.0416L172.273 67.0437ZM174.913 65.7343L174.252 65.0667L174.241 65.0775L174.231 65.0886L174.913 65.7343ZM175.821 63.7992L174.842 63.7445L174.838 63.7697L174.835 63.7949L175.821 63.7992ZM174.831 62.0056L174.462 62.9778L174.471 62.9803L174.48 62.9827L174.831 62.0056ZM172.163 62.4875L171.858 61.5719L171.152 61.8847L171.17 62.6293L172.163 62.4875ZM168.921 68.5905C168.958 66.0499 168.951 64.0134 168.9 62.487C168.85 61.0039 168.757 59.8932 168.581 59.2884L166.67 60.0592C166.769 60.4004 166.864 61.2659 166.915 62.7892C166.965 64.2694 166.972 66.2697 166.935 68.7963L168.921 68.5905ZM167.856 60.6191C170.733 59.5865 172.96 59.0526 174.576 58.963L174.7 56.9523C172.797 57.0578 170.349 57.668 167.395 58.7285L167.856 60.6191ZM174.576 58.963C176.201 58.873 177.241 59.1922 177.869 59.7501L179.273 58.1697C178.177 57.1962 176.595 56.8472 174.7 56.9523L174.576 58.963ZM177.897 59.774C178.608 60.3518 179.046 61.3375 179.063 62.9275L181.049 62.6716C181.029 60.7212 180.477 59.1473 179.245 58.1458L177.897 59.774ZM179.063 62.9304C179.079 64.1463 178.807 65.2555 178.259 66.2806L179.982 67.0721C180.718 65.693 181.069 64.2176 181.049 62.6687L179.063 62.9304ZM178.284 66.2363C177.786 67.0801 177.09 67.846 176.174 68.5309L177.227 70.1023C178.364 69.2519 179.283 68.2576 179.957 67.1164L178.284 66.2363ZM176.153 68.5474C175.101 69.373 173.812 70.0082 172.26 70.4323L172.562 72.3733C174.346 71.8856 175.917 71.1301 177.249 70.0858L176.153 68.5474ZM171.42 71.4578C171.341 72.7264 171.411 74.4774 171.614 76.6838L173.592 76.2671C173.392 74.0904 173.333 72.4597 173.402 71.3479L171.42 71.4578ZM172.503 75.4925L167.635 76.567L167.836 78.533L172.704 77.4584L172.503 75.4925ZM168.727 77.4894C168.82 75.8266 168.884 72.8519 168.921 68.5845L166.935 68.8023C166.898 73.0728 166.834 76.0025 166.744 77.6106L168.727 77.4894ZM172.29 68.0416C173.578 67.8672 174.709 67.3298 175.596 66.38L174.231 65.0886C173.761 65.5918 173.132 65.9273 172.256 66.0459L172.29 68.0416ZM175.575 66.402C176.286 65.6778 176.689 64.7894 176.806 63.8036L174.835 63.7949C174.769 64.3446 174.567 64.7463 174.252 65.0667L175.575 66.402ZM176.799 63.854C176.906 63.2214 176.874 62.5862 176.577 62.0494C176.275 61.5008 175.766 61.1818 175.182 61.0286L174.48 62.9827C174.72 63.0457 174.789 63.1337 174.816 63.183C174.85 63.244 174.901 63.3976 174.842 63.7445L176.799 63.854ZM175.199 61.0335C174.234 60.759 173.07 61.0349 171.858 61.5719L172.468 63.4031C173.53 62.9326 174.144 62.8873 174.462 62.9778L175.199 61.0335ZM171.17 62.6293L171.28 67.1855L173.266 66.902L173.156 62.3458L171.17 62.6293ZM55.9128 120.231L55.4398 121.167L55.4577 121.174L55.4759 121.181L55.9128 120.231ZM53.6577 118.449L52.8174 119.081L52.8318 119.103L52.8474 119.123L53.6577 118.449ZM52.8052 117.054L51.8729 117.509L51.8946 117.566L51.9236 117.619L52.8052 117.054ZM52.3102 115.479L51.3352 115.785L51.3396 115.807L51.3449 115.828L52.3102 115.479ZM52.1177 113.757L51.1251 113.904L51.1251 113.906L52.1177 113.757ZM52.1727 111.868L51.1863 111.869L51.1847 111.883L51.1835 111.897L52.1727 111.868ZM52.9427 108.564L52.03 108.278L52.0209 108.301L52.0129 108.323L52.9427 108.564ZM54.5927 105.434L53.8014 104.923L53.794 104.934L53.7868 104.945L54.5927 105.434ZM57.4528 102.547L57.9153 103.378L57.4528 102.547ZM63.8329 101.654L64.2992 100.716L64.2916 100.713L63.8329 101.654ZM66.1154 103.544L66.8446 104.136L67.3802 103.489L66.9369 102.885L66.1154 103.544ZM64.7679 105.171L65.4835 105.78L65.4903 105.772L65.4971 105.763L64.7679 105.171ZM63.3654 106.805L62.6068 107.54L63.3174 108.303L64.0809 107.413L63.3654 106.805ZM60.2303 106.151L59.925 105.236L59.9132 105.241L59.9015 105.246L60.2303 106.151ZM57.4528 109.027L58.2978 109.453L58.3002 109.449L57.4528 109.027ZM56.4628 113.852L55.4818 114.124L55.4843 114.14L55.4874 114.156L56.4628 113.852ZM57.4528 115.757L56.7639 116.559L56.7736 116.567L57.4528 115.757ZM59.8728 116.218L59.8306 115.224L59.8197 115.226L59.8728 116.218ZM62.1553 115.034L61.5109 114.349L61.5073 114.353L62.1553 115.034ZM63.4204 112.78L64.3826 112.913L64.7612 111.375L63.2526 111.814L63.4204 112.78ZM61.1928 113.459L61.0021 112.5L60.9981 112.501L61.1928 113.459ZM59.1303 114.201L58.1383 114.273L58.0767 115.644L59.3862 115.137L59.1303 114.201ZM59.2128 112.364L58.2208 112.435L58.2208 112.436L59.2128 112.364ZM59.2953 110.554L59.1216 109.59L58.3399 109.822L58.3033 110.625L59.2953 110.554ZM63.4754 109.312L63.3205 108.342L63.3111 108.345L63.3017 108.348L63.4754 109.312ZM67.6554 108.152L68.6208 107.803L68.4057 106.932L67.5005 107.183L67.6554 108.152ZM67.8204 109.877L66.8278 109.965L66.8273 109.98V109.995L67.8204 109.877ZM67.6279 111.839L68.5839 111.996L68.5963 111.95L68.6046 111.904L67.6279 111.839ZM66.2529 115.297L65.4125 114.863L65.4059 114.875L65.3994 114.886L66.2529 115.297ZM63.1179 118.935L62.6183 118.13L62.6144 118.133L63.1179 118.935ZM56.3857 119.296C55.6499 118.982 55.0104 118.482 54.4681 117.775L52.8474 119.123C53.5518 120.041 54.4156 120.729 55.4398 121.167L56.3857 119.296ZM54.4981 117.817C54.2005 117.376 53.9302 116.934 53.6868 116.49L51.9236 117.619C52.1936 118.112 52.4917 118.599 52.8174 119.081L54.4981 117.817ZM53.7376 116.6C53.5481 116.102 53.3944 115.612 53.2756 115.13L51.3449 115.828C51.4827 116.387 51.659 116.947 51.8729 117.509L53.7376 116.6ZM53.2852 115.174C53.1854 114.666 53.127 114.145 53.1103 113.609L51.1251 113.906C51.1451 114.547 51.215 115.173 51.3352 115.785L53.2852 115.174ZM53.1104 113.61C53.0932 113.024 53.1103 112.434 53.1619 111.839L51.1835 111.897C51.1251 112.57 51.1056 113.24 51.1251 113.904L53.1104 113.61ZM53.1591 111.867C53.2782 110.825 53.5161 109.805 53.8726 108.805L52.0129 108.323C51.5994 109.483 51.3239 110.665 51.1863 111.869L53.1591 111.867ZM53.8555 108.85C54.2666 107.836 54.7806 106.86 55.3987 105.923L53.7868 104.945C53.0849 106.01 52.4989 107.121 52.03 108.278L53.8555 108.85ZM55.3841 105.944C56.1759 104.799 57.023 103.956 57.9153 103.378L56.9903 101.717C55.7926 102.494 54.733 103.575 53.8014 104.923L55.3841 105.944ZM57.9153 103.378C58.8097 102.798 59.7956 102.439 60.8903 102.31V100.31C59.4917 100.475 58.1859 100.942 56.9903 101.717L57.9153 103.378ZM60.8903 102.31C61.827 102.199 62.6483 102.3 63.3741 102.595L64.2916 100.713C63.2574 100.293 62.117 100.165 60.8903 100.31V102.31ZM63.3665 102.592C64.0594 102.881 64.7063 103.401 65.2939 104.203L66.9369 102.885C66.2045 101.886 65.3297 101.146 64.2992 100.716L63.3665 102.592ZM65.3862 102.951L64.0387 104.578L65.4971 105.763L66.8446 104.136L65.3862 102.951ZM64.0523 104.562L62.6498 106.196L64.0809 107.413L65.4835 105.78L64.0523 104.562ZM64.124 106.069C63.5869 105.493 62.9543 105.085 62.2144 104.93C61.466 104.774 60.6908 104.896 59.925 105.236L60.5356 107.066C60.9615 106.878 61.3047 106.843 61.6013 106.905C61.9064 106.969 62.2455 107.152 62.6068 107.54L64.124 106.069ZM59.9015 105.246C58.5688 105.875 57.4847 107.053 56.6054 108.606L58.3002 109.449C59.0342 108.152 59.8018 107.413 60.5591 107.056L59.9015 105.246ZM56.6077 108.602C55.5741 110.411 55.186 112.266 55.4818 114.124L57.4438 113.581C57.2262 112.214 57.4981 110.852 58.2978 109.453L56.6077 108.602ZM55.4874 114.156C55.6803 115.147 56.0849 115.98 56.7639 116.559L58.1416 114.955C57.8307 114.69 57.5752 114.254 57.4381 113.549L55.4874 114.156ZM56.7736 116.567C57.6091 117.257 58.7084 117.42 59.9259 117.21L59.8197 115.226C58.9839 115.37 58.4698 115.226 58.132 114.947L56.7736 116.567ZM59.915 117.212C61.0022 117.037 61.9759 116.53 62.8033 115.715L61.5073 114.353C61.0147 114.838 60.4668 115.121 59.8306 115.224L59.915 117.212ZM62.7998 115.719C63.5926 114.944 64.1164 113.994 64.3826 112.913L62.4582 112.646C62.2843 113.352 61.9647 113.906 61.5109 114.349L62.7998 115.719ZM63.2526 111.814C62.6013 112.003 61.8509 112.232 61.0022 112.5L61.3835 114.417C62.2215 114.153 62.9561 113.929 63.5882 113.745L63.2526 111.814ZM60.9981 112.501C60.4199 112.686 59.7104 112.942 58.8744 113.265L59.3862 115.137C60.2002 114.822 60.8657 114.583 61.3876 114.416L60.9981 112.501ZM60.1223 114.129L60.2048 112.292L58.2208 112.436L58.1383 114.273L60.1223 114.129ZM60.2048 112.292L60.2873 110.483L58.3033 110.625L58.2208 112.435L60.2048 112.292ZM59.469 111.518L63.649 110.276L63.3017 108.348L59.1216 109.59L59.469 111.518ZM63.6302 110.281L67.8103 109.122L67.5005 107.183L63.3205 108.342L63.6302 110.281ZM66.6901 108.501C66.795 108.927 66.8439 109.412 66.8278 109.965L68.8131 109.789C68.8336 109.082 68.7725 108.418 68.6208 107.803L66.6901 108.501ZM66.8273 109.995C66.8273 110.514 66.7708 111.105 66.6513 111.773L68.6046 111.904C68.7417 111.138 68.8135 110.422 68.8135 109.76L66.8273 109.995ZM66.6719 111.681C66.5162 112.257 66.3349 112.817 66.1284 113.362L67.9724 113.886C68.2059 113.271 68.4096 112.641 68.5839 111.996L66.6719 111.681ZM66.1284 113.362C65.9304 113.883 65.6918 114.384 65.4125 114.863L67.0933 115.73C67.4374 115.139 67.7304 114.524 67.9724 113.886L66.1284 113.362ZM65.3994 114.886C64.608 116.32 63.6759 117.385 62.6183 118.13L63.6174 119.741C65.0165 118.755 66.1744 117.395 67.1063 115.707L65.3994 114.886ZM62.6144 118.133C61.5356 118.9 60.292 119.378 58.8553 119.548V121.548C60.6087 121.34 62.2067 120.743 63.6214 119.738L62.6144 118.133ZM58.8553 119.548C57.9336 119.657 57.1034 119.564 56.3496 119.282L55.4759 121.181C56.5188 121.572 57.6503 121.69 58.8553 121.548V119.548ZM76.0208 104.31L75.9384 103.323L75.9192 103.327L75.9001 103.331L76.0208 104.31ZM73.4358 104.92L73.3261 103.939L72.525 104.124L72.4474 104.941L73.4358 104.92ZM73.3258 106.18L72.3353 106.226L72.335 106.229L73.3258 106.18ZM73.2433 107.408L72.2525 107.457L72.1688 108.704L73.3874 108.38L73.2433 107.408ZM75.3058 106.859L75.4499 107.831L75.4703 107.826L75.4904 107.82L75.3058 106.859ZM77.3409 106.23L78.3277 106.001L78.2076 104.945L77.1563 105.27L77.3409 106.23ZM77.5334 107.925L76.5466 108.154L76.5482 108.168L76.5503 108.182L77.5334 107.925ZM77.7809 109.64L77.9398 110.608L78.9018 110.337L78.764 109.382L77.7809 109.64ZM75.1408 110.368L75.0067 109.393L74.986 109.398L74.9654 109.404L75.1408 110.368ZM73.2433 110.925L73.08 109.958L72.2703 110.189L72.2505 111.018L73.2433 110.925ZM73.1883 113.23L72.1955 113.323L72.1674 114.503L73.3247 114.204L73.1883 113.23ZM75.9658 112.513L76.1022 113.488L76.1035 113.487L75.9658 112.513ZM78.7159 111.8L79.7001 111.551L79.5673 110.569L78.5782 110.826L78.7159 111.8ZM79.0184 114.035L80.0042 113.797L80.0026 113.786L79.0184 114.035ZM79.2934 116.273L79.3569 117.264L80.4065 117.072L80.2791 116.035L79.2934 116.273ZM74.4808 117.397L74.3291 116.426L74.3201 116.429L74.3111 116.431L74.4808 117.397ZM68.5407 119.263L67.5478 119.399L67.5701 120.607L68.7466 120.217L68.5407 119.263ZM68.4857 114.894L69.4788 114.767L69.4787 114.764L68.4857 114.894ZM68.4307 110.442L67.4377 110.569L67.4378 110.572L68.4307 110.442ZM68.3482 101.646L68.2325 100.666L67.347 100.876L67.3552 101.772L68.3482 101.646ZM73.2708 100.481L73.1557 99.5018L73.1551 99.5019L73.2708 100.481ZM78.2209 99.314L79.2049 99.063L79.0738 98.1061L78.1058 98.3344L78.2209 99.314ZM78.5234 101.521L79.5076 101.272L79.5074 101.27L78.5234 101.521ZM78.8259 103.756L78.8992 104.745L79.9503 104.542L79.8101 103.507L78.8259 103.756ZM75.9001 103.331C75.0051 103.548 74.1472 103.75 73.3261 103.939L73.5455 105.901C74.3745 105.71 75.2398 105.506 76.1415 105.288L75.9001 103.331ZM72.4474 104.941C72.3923 105.521 72.3546 105.951 72.3353 106.226L74.3164 106.134C74.3337 105.887 74.3693 105.478 74.4243 104.9L72.4474 104.941ZM72.335 106.229L72.2525 107.457L74.2341 107.359L74.3166 106.13L72.335 106.229ZM73.3874 108.38L75.4499 107.831L75.1617 105.887L73.0992 106.435L73.3874 108.38ZM75.4904 107.82L77.5255 107.191L77.1563 105.27L75.1212 105.898L75.4904 107.82ZM76.3541 106.459L76.5466 108.154L78.5202 107.696L78.3277 106.001L76.3541 106.459ZM76.5503 108.182L76.7978 109.898L78.764 109.382L78.5164 107.667L76.5503 108.182ZM77.6219 108.672C76.2621 109.055 75.3952 109.294 75.0067 109.393L75.275 111.343C75.6932 111.236 76.5863 110.989 77.9398 110.608L77.6219 108.672ZM74.9654 109.404C74.2533 109.617 73.625 109.802 73.08 109.958L73.4066 111.892C73.9616 111.733 74.5983 111.546 75.3163 111.331L74.9654 109.404ZM72.2505 111.018L72.1955 113.323L74.1811 113.136L74.2361 110.831L72.2505 111.018ZM73.3247 114.204L76.1022 113.488L75.8295 111.539L73.052 112.255L73.3247 114.204ZM76.1035 113.487L78.8536 112.774L78.5782 110.826L75.8282 111.539L76.1035 113.487ZM77.7316 112.049L78.0341 114.284L80.0026 113.786L79.7001 111.551L77.7316 112.049ZM78.0326 114.273L78.3076 116.511L80.2791 116.035L80.0041 113.797L78.0326 114.273ZM79.2299 115.283C77.764 115.551 76.1296 115.933 74.3291 116.426L74.6326 118.367C76.3887 117.886 77.9628 117.519 79.3569 117.264L79.2299 115.283ZM74.3111 116.431C72.5001 116.962 70.5078 117.588 68.3349 118.309L68.7466 120.217C70.9004 119.502 72.8681 118.884 74.6506 118.362L74.3111 116.431ZM69.5336 119.127C69.5154 118.137 69.4971 116.684 69.4788 114.767L67.4927 115.021C67.5111 116.94 67.5294 118.4 67.5478 119.399L69.5336 119.127ZM69.4787 114.764L69.4237 110.312L67.4378 110.572L67.4928 115.024L69.4787 114.764ZM69.4238 110.315C69.3871 106.442 69.3596 103.51 69.3413 101.519L67.3552 101.772C67.3736 103.764 67.4011 106.696 67.4377 110.569L69.4238 110.315ZM68.464 102.625L73.3865 101.461L73.1551 99.5019L68.2325 100.666L68.464 102.625ZM73.3859 101.461L78.3359 100.294L78.1058 98.3344L73.1557 99.5018L73.3859 101.461ZM77.2368 99.565L77.5393 101.772L79.5074 101.27L79.2049 99.063L77.2368 99.565ZM77.5391 101.771L77.8416 104.006L79.8101 103.507L79.5076 101.272L77.5391 101.771ZM78.7525 102.768C77.7598 102.959 76.8218 103.144 75.9384 103.323L76.1033 105.297C76.9799 105.119 77.9119 104.935 78.8992 104.745L78.7525 102.768ZM80.2264 99.6859L80.0614 98.7193L79.2321 98.9582L79.2333 99.8049L80.2264 99.6859ZM85.2865 98.2285L86.2702 97.9754L86.1304 96.9714L85.1215 97.2619L85.2865 98.2285ZM85.699 100.395L84.7282 100.721L84.7304 100.731L84.7328 100.741L85.699 100.395ZM87.2665 106.08L86.3182 106.49L86.3209 106.498L87.2665 106.08ZM88.2565 108.262L87.4175 108.896L89.2496 111.592V108.144L88.2565 108.262ZM88.2565 98.7078L88.0976 97.7395L87.2634 97.9744V98.8253L88.2565 98.7078ZM93.3441 97.2748L94.3316 97.2632L94.4685 95.9451L93.1851 96.3065L93.3441 97.2748ZM92.9041 114.441L93.1354 115.386L93.9659 115.087L93.8936 114.239L92.9041 114.441ZM88.3115 116.092L87.3481 116.449L87.5866 117.381L88.5428 117.037L88.3115 116.092ZM87.7065 115.277L86.8763 115.925L86.8934 115.949L86.9121 115.971L87.7065 115.277ZM85.3415 111.93L86.1716 111.283L86.1677 111.277L86.1637 111.272L85.3415 111.93ZM84.6265 110.851L85.5305 110.33L83.6334 110.969L84.6265 110.851ZM84.8465 116.502L85.0832 117.445L85.9058 117.145L85.8362 116.303L84.8465 116.502ZM80.2539 118.181L79.2608 118.3L79.2627 119.573L80.4907 119.124L80.2539 118.181ZM80.3914 100.652L85.4515 99.1951L85.1215 97.2619L80.0614 98.7193L80.3914 100.652ZM84.3027 98.4816C84.3811 99.0446 84.5247 99.7946 84.7282 100.721L86.6697 100.069C86.4699 99.1602 86.3385 98.4658 86.2702 97.9754L84.3027 98.4816ZM84.7328 100.741C85.2681 102.945 85.7964 104.862 86.3183 106.49L88.2147 105.671C87.7099 104.097 87.1932 102.224 86.6651 100.049L84.7328 100.741ZM86.3209 106.498C86.6455 107.478 87.0062 108.291 87.4175 108.896L89.0955 107.627C88.8102 107.207 88.5108 106.565 88.2121 105.663L86.3209 106.498ZM89.2496 108.144V98.5902L87.2634 98.8253V108.379L89.2496 108.144ZM88.4155 99.676L93.503 98.2431L93.1851 96.3065L88.0976 97.7395L88.4155 99.676ZM92.3565 97.2865C91.6556 104.038 91.5043 109.827 91.9146 114.643L93.8936 114.239C93.4972 109.587 93.6392 103.932 94.3316 97.2632L92.3565 97.2865ZM92.6728 113.496L88.0802 115.147L88.5428 117.037L93.1354 115.386L92.6728 113.496ZM89.2749 115.735C89.2291 115.556 89.1324 115.413 89.1149 115.386C89.0723 115.319 89.0203 115.246 88.9648 115.171C88.8525 115.02 88.6963 114.823 88.501 114.583L86.9121 115.971C87.1017 116.204 87.2389 116.378 87.3282 116.498C87.3735 116.559 87.3995 116.597 87.4118 116.616C87.4182 116.626 87.4152 116.622 87.4078 116.608C87.4068 116.606 87.3727 116.545 87.3481 116.449L89.2749 115.735ZM88.5367 114.63L86.1716 111.283L84.5113 112.577L86.8763 115.925L88.5367 114.63ZM86.1637 111.272C85.7695 110.732 85.5814 110.437 85.5305 110.33L83.7224 111.372C83.8549 111.65 84.1434 112.074 84.5193 112.588L86.1637 111.272ZM83.6334 110.969C83.6334 112.987 83.7076 114.898 83.8568 116.701L85.8362 116.303C85.692 114.559 85.6195 112.703 85.6195 110.734L83.6334 110.969ZM84.6097 115.559L80.0171 117.238L80.4907 119.124L85.0832 117.445L84.6097 115.559ZM81.247 118.062L81.2195 99.5668L79.2333 99.8049L79.2608 118.3L81.247 118.062ZM101.978 101.238L101.896 100.251L101.877 100.255L101.858 100.259L101.978 101.238ZM99.3933 101.848L99.2836 100.867L98.4825 101.052L98.4048 101.869L99.3933 101.848ZM99.2833 103.107L98.2927 103.153L98.2925 103.157L99.2833 103.107ZM99.2008 104.335L98.21 104.385L98.1262 105.632L99.3449 105.308L99.2008 104.335ZM101.263 103.787L101.407 104.759L101.428 104.754L101.448 104.747L101.263 103.787ZM103.298 103.158L104.285 102.929L104.165 101.873L103.114 102.197L103.298 103.158ZM103.491 104.852L102.504 105.081L102.506 105.096L102.508 105.11L103.491 104.852ZM103.738 106.568L103.897 107.536L104.859 107.265L104.721 106.31L103.738 106.568ZM101.098 107.296L100.964 106.321L100.943 106.326L100.923 106.332L101.098 107.296ZM99.2008 107.852L99.0375 106.885L98.2278 107.117L98.208 107.946L99.2008 107.852ZM99.1458 110.157L98.153 110.251L98.1249 111.43L99.2821 111.132L99.1458 110.157ZM101.923 109.441L102.06 110.415L102.061 110.415L101.923 109.441ZM104.673 108.728L105.658 108.478L105.525 107.497L104.536 107.754L104.673 108.728ZM104.976 110.963L105.962 110.725L105.96 110.713L104.976 110.963ZM105.251 113.201L105.314 114.191L106.364 113.999L106.237 112.963L105.251 113.201ZM100.438 114.324L100.287 113.354L100.278 113.357L100.269 113.359L100.438 114.324ZM94.4982 116.191L93.5053 116.327L93.5276 117.535L94.7041 117.144L94.4982 116.191ZM94.4432 111.822L95.4363 111.695L95.4362 111.692L94.4432 111.822ZM94.3882 107.37L93.3952 107.497L93.3952 107.5L94.3882 107.37ZM94.3057 98.5733L94.19 97.5938L93.3045 97.8033L93.3127 98.7001L94.3057 98.5733ZM99.2283 97.4092L99.1132 96.4295L99.1126 96.4297L99.2283 97.4092ZM104.178 96.2417L105.162 95.9907L105.031 95.0338L104.063 95.2621L104.178 96.2417ZM104.481 98.449L105.465 98.1996L105.465 98.198L104.481 98.449ZM104.783 100.684L104.857 101.673L105.908 101.47L105.768 100.435L104.783 100.684ZM101.858 100.259C100.963 100.475 100.105 100.678 99.2836 100.867L99.503 102.829C100.332 102.638 101.197 102.434 102.099 102.216L101.858 100.259ZM98.4048 101.869C98.3498 102.448 98.312 102.879 98.2928 103.153L100.274 103.061C100.291 102.814 100.327 102.405 100.382 101.827L98.4048 101.869ZM98.2925 103.157L98.21 104.385L100.192 104.286L100.274 103.058L98.2925 103.157ZM99.3449 105.308L101.407 104.759L101.119 102.814L99.0567 103.363L99.3449 105.308ZM101.448 104.747L103.483 104.119L103.114 102.197L101.079 102.826L101.448 104.747ZM102.312 103.387L102.504 105.081L104.478 104.623L104.285 102.929L102.312 103.387ZM102.508 105.11L102.755 106.825L104.721 106.31L104.474 104.595L102.508 105.11ZM103.579 105.599C102.22 105.982 101.353 106.221 100.964 106.321L101.232 108.27C101.651 108.164 102.544 107.917 103.897 107.536L103.579 105.599ZM100.923 106.332C100.211 106.545 99.5825 106.729 99.0375 106.885L99.3641 108.819C99.9191 108.661 100.556 108.474 101.274 108.259L100.923 106.332ZM98.208 107.946L98.153 110.251L100.139 110.064L100.194 107.759L98.208 107.946ZM99.2821 111.132L102.06 110.415L101.787 108.467L99.0094 109.183L99.2821 111.132ZM102.061 110.415L104.811 109.702L104.536 107.754L101.786 108.467L102.061 110.415ZM103.689 108.977L103.992 111.212L105.96 110.713L105.658 108.478L103.689 108.977ZM103.99 111.2L104.265 113.439L106.237 112.963L105.962 110.725L103.99 111.2ZM105.187 112.211C103.721 112.479 102.087 112.861 100.287 113.354L100.59 115.295C102.346 114.813 103.92 114.446 105.314 114.191L105.187 112.211ZM100.269 113.359C98.4576 113.89 96.4653 114.516 94.2924 115.237L94.7041 117.144C96.8579 116.43 98.8256 115.812 100.608 115.29L100.269 113.359ZM95.4911 116.055C95.4729 115.064 95.4546 113.612 95.4363 111.695L93.4502 111.949C93.4686 113.867 93.4869 115.327 93.5053 116.327L95.4911 116.055ZM95.4362 111.692L95.3812 107.24L93.3952 107.5L93.4502 111.952L95.4362 111.692ZM95.3813 107.243C95.3446 103.37 95.3171 100.438 95.2988 98.4465L93.3127 98.7001C93.331 100.692 93.3585 103.624 93.3952 107.497L95.3813 107.243ZM94.4214 99.5528L99.344 98.3886L99.1126 96.4297L94.19 97.5938L94.4214 99.5528ZM99.3434 98.3888L104.293 97.2214L104.063 95.2621L99.1132 96.4295L99.3434 98.3888ZM103.194 96.4928L103.497 98.7L105.465 98.198L105.162 95.9907L103.194 96.4928ZM103.497 98.6985L103.799 100.933L105.768 100.435L105.465 98.1996L103.497 98.6985ZM104.71 99.6954C103.717 99.8869 102.779 100.072 101.896 100.251L102.061 102.224C102.937 102.047 103.869 101.863 104.857 101.673L104.71 99.6954ZM110.446 101.537L111.438 101.466L111.44 101.443V101.419L110.446 101.537ZM110.364 103.319L109.372 103.389L109.296 105.037L110.777 104.179L110.364 103.319ZM112.206 101.993L112.802 102.723L112.808 102.717L112.814 102.712L112.206 101.993ZM113.499 99.874L114.473 99.5626L114.47 99.5501L114.467 99.5377L113.499 99.874ZM112.509 99.3265L112.573 98.321L112.559 98.3217L112.546 98.3228L112.509 99.3265ZM110.529 99.8101L110.314 98.8594L109.606 99.1016L109.54 99.8366L110.529 99.8101ZM118.257 97.7047L119.247 97.5092L119.242 97.452L119.231 97.3965L118.257 97.7047ZM114.682 104.497L114.147 103.717L113.305 104.358L113.848 105.139L114.682 104.497ZM119.192 109.612L119.854 110.279L120.568 109.55L119.954 108.881L119.192 109.612ZM115.122 113.667L114.303 114.329L114.928 115.172L115.767 114.35L115.122 113.667ZM110.364 107.251L111.183 106.588L109.397 104.18L109.371 107.36L110.364 107.251ZM110.556 113.321L110.801 114.261L111.614 113.956L111.546 113.123L110.556 113.321ZM106.019 115.021L105.026 115.109L104.988 116.439L106.264 115.961L106.019 115.021ZM105.909 97.1446L105.653 96.2087L104.829 96.5274L104.922 97.3699L105.909 97.1446ZM109.454 101.607L109.372 103.389L111.356 103.248L111.438 101.466L109.454 101.607ZM110.777 104.179C111.486 103.769 112.161 103.283 112.802 102.723L111.611 101.264C111.079 101.728 110.526 102.126 109.951 102.458L110.777 104.179ZM112.814 102.712C113.342 102.238 113.787 101.755 114.086 101.263C114.389 100.767 114.597 100.171 114.473 99.5626L112.525 100.185C112.511 100.117 112.559 100.145 112.43 100.355C112.299 100.57 112.042 100.876 111.599 101.274L112.814 102.712ZM114.467 99.5377C114.368 99.1085 114.12 98.7571 113.734 98.5434C113.374 98.3444 112.96 98.3004 112.573 98.321L112.445 100.332C112.531 100.327 112.586 100.332 112.618 100.337C112.648 100.343 112.648 100.347 112.632 100.338C112.613 100.327 112.586 100.307 112.563 100.275C112.54 100.244 112.532 100.217 112.531 100.21L114.467 99.5377ZM112.546 98.3228C111.927 98.373 111.172 98.5657 110.314 98.8594L110.744 100.761C111.536 100.49 112.101 100.36 112.472 100.33L112.546 98.3228ZM109.54 99.8366C109.483 100.479 109.453 101.085 109.453 101.654L111.44 101.419C111.44 100.918 111.465 100.373 111.518 99.7836L109.54 99.8366ZM113.444 96.0343C114.724 95.8828 115.604 96.0287 116.185 96.3512C116.738 96.6579 117.115 97.1758 117.282 98.0129L119.231 97.3965C118.977 96.1235 118.341 95.1413 117.289 94.5579C116.266 93.9902 114.951 93.856 113.444 94.0343V96.0343ZM117.267 97.9002C117.433 100.019 116.494 101.931 114.147 103.717L115.216 105.277C118.039 103.128 119.483 100.512 119.247 97.5092L117.267 97.9002ZM113.848 105.139C114.293 105.779 115.848 107.538 118.429 110.344L119.954 108.881C117.328 106.027 115.877 104.375 115.515 103.855L113.848 105.139ZM118.529 108.946C117.473 110.024 116.123 111.369 114.476 112.983L115.767 114.35C117.42 112.73 118.783 111.372 119.854 110.279L118.529 108.946ZM115.94 113.004L111.183 106.588L109.545 107.914L114.303 114.329L115.94 113.004ZM109.371 107.36C109.352 109.62 109.417 111.673 109.567 113.518L111.546 113.123C111.402 111.347 111.339 109.354 111.357 107.142L109.371 107.36ZM110.311 112.381L105.774 114.081L106.264 115.961L110.801 114.261L110.311 112.381ZM107.012 114.932C107.268 106.032 107.235 100.005 106.896 96.9193L104.922 97.3699C105.243 100.299 105.283 106.189 105.026 115.109L107.012 114.932ZM106.165 98.0806C109.148 96.9265 111.566 96.2565 113.444 96.0343V94.0343C111.325 94.2851 108.72 95.022 105.653 96.2087L106.165 98.0806ZM118.416 112.363L117.466 112.182L117.151 113.257L118.203 113.365L118.416 112.363ZM122.321 94.9806L122.185 94.0061L121.455 94.194L121.34 94.9407L122.321 94.9806ZM128.893 93.2888L129.875 93.0236L129.729 92.0642L128.758 92.3143L128.893 93.2888ZM133.073 110.213L133.297 111.161L134.339 110.795L134.022 109.803L133.073 110.213ZM128.068 111.968L127.097 112.292L127.309 113.261L128.292 112.916L128.068 111.968ZM127.408 108.945L128.379 108.62L128.192 107.76L127.3 107.963L127.408 108.945ZM124.136 109.692L124.028 108.711L123.294 108.878L123.159 109.625L124.136 109.692ZM123.558 112.89L123.346 113.891L124.347 113.994L124.535 112.957L123.558 112.89ZM126.693 105.762L126.706 106.76L127.87 106.608L127.672 105.476L126.693 105.762ZM125.566 99.3042L126.544 99.0186L124.586 99.2551L125.566 99.3042ZM124.466 106.053L123.486 106.004L123.29 107.207L124.478 107.051L124.466 106.053ZM119.365 112.543C121.102 106.627 122.414 100.786 123.302 95.0205L121.34 94.9407C120.467 100.608 119.176 106.355 117.466 112.182L119.365 112.543ZM122.457 95.9551L129.029 94.2634L128.758 92.3143L122.185 94.0061L122.457 95.9551ZM127.911 93.5541C128.673 98.5498 130.08 104.241 132.125 110.622L134.022 109.803C131.997 103.485 130.617 97.8931 129.875 93.0236L127.911 93.5541ZM132.85 109.265L127.845 111.02L128.292 112.916L133.297 111.161L132.85 109.265ZM129.039 111.644L128.379 108.62L126.437 109.269L127.097 112.292L129.039 111.644ZM127.3 107.963L124.028 108.711L124.244 110.673L127.516 109.926L127.3 107.963ZM123.159 109.625L122.582 112.822L124.535 112.957L125.112 109.759L123.159 109.625ZM123.771 111.888L118.628 111.361L118.203 113.365L123.346 113.891L123.771 111.888ZM127.672 105.476L126.544 99.0186L124.587 99.5898L125.715 106.047L127.672 105.476ZM124.586 99.2551L123.486 106.004L125.445 106.102L126.545 99.3534L124.586 99.2551ZM124.478 107.051L126.706 106.76L126.681 104.763L124.454 105.054L124.478 107.051ZM145.831 96.0472L145.882 97.0398L146.998 96.8497L146.81 95.7632L145.831 96.0472ZM141.238 96.8677L141.161 95.8799L140.311 96.0477L140.248 96.9117L141.238 96.8677ZM141.926 109.802L142.126 110.758L142.996 110.475L142.915 109.594L141.926 109.802ZM136.563 111.544L135.57 111.664L135.573 112.887L136.763 112.5L136.563 111.544ZM136.536 97.8674L137.529 97.7478L137.527 96.6813L136.47 96.8774L136.536 97.8674ZM134.666 98.3102L134.789 99.2879L134.796 99.2862L134.666 98.3102ZM132.493 98.8166L131.503 98.8638L131.421 100.053L132.589 99.8006L132.493 98.8166ZM132.823 94.0421L132.73 93.0577L131.892 93.2367L131.833 94.0894L132.823 94.0421ZM145.034 91.4339L146.012 91.1499L145.857 90.2534L144.94 90.4494L145.034 91.4339ZM145.78 95.0546C143.652 95.4172 142.11 95.6926 141.161 95.8799L141.316 97.8554C142.237 97.6737 143.756 97.4022 145.882 97.0398L145.78 95.0546ZM140.248 96.9117C140.094 99.0401 140.334 103.437 140.937 110.01L142.915 109.594C142.308 102.981 142.089 98.7547 142.229 96.8237L140.248 96.9117ZM141.726 108.846L136.364 110.588L136.763 112.5L142.126 110.758L141.726 108.846ZM137.556 111.425L137.529 97.7478L135.543 97.9869L135.57 111.664L137.556 111.425ZM136.47 96.8774C136.156 96.9356 135.498 97.0923 134.536 97.3342L134.796 99.2862C135.777 99.0397 136.366 98.9012 136.602 98.8573L136.47 96.8774ZM134.543 97.3325C133.667 97.5463 132.953 97.7127 132.398 97.8326L132.589 99.8006C133.17 99.6752 133.904 99.504 134.789 99.2879L134.543 97.3325ZM133.484 98.7693L133.814 93.9949L131.833 94.0894L131.503 98.8638L133.484 98.7693ZM132.917 95.0266L145.127 92.4184L144.94 90.4494L132.73 93.0577L132.917 95.0266ZM144.055 91.7179L144.852 96.3312L146.81 95.7632L146.012 91.1499L144.055 91.7179ZM147.536 94.5439L146.7 94.1027L146.697 94.1086L147.536 94.5439ZM158.124 92.7092L157.32 93.3925L157.326 93.3989L158.124 92.7092ZM159.636 95.6317L160.598 95.2676L159.636 95.6317ZM159.994 99.1063L160.986 99.023L160.986 99.0178L159.994 99.1063ZM158.069 105.316L157.242 104.859L157.238 104.866L157.234 104.873L158.069 105.316ZM147.453 107.126L148.266 106.455L148.25 106.434L148.232 106.414L147.453 107.126ZM146.023 104.36L145.062 104.724L145.065 104.736L145.069 104.748L146.023 104.36ZM145.666 100.802L144.674 100.87L144.674 100.875L145.666 100.802ZM154.906 96.8285L155.826 96.3428L155.823 96.3354L154.906 96.8285ZM150.863 97.7223L151.784 97.9875L151.787 97.9805L151.79 97.9734L150.863 97.7223ZM150.093 101.053L149.104 101.088L149.102 101.112L149.101 101.136L150.093 101.053ZM150.313 102.523L151.28 102.178L151.267 102.124L151.248 102.074L150.313 102.523ZM151.138 103.976L151.81 103.159L151.797 103.15L151.785 103.14L151.138 103.976ZM154.934 102.89L155.793 103.288L155.798 103.28L155.803 103.271L154.934 102.89ZM155.539 100.16L156.531 100.059L156.532 100.058L155.539 100.16ZM148.372 94.985C149.627 92.8661 151.202 91.7869 153.146 91.5568V89.5568C150.433 89.8779 148.268 91.4567 146.7 94.1028L148.372 94.985ZM153.146 91.5568C154.784 91.3629 156.161 91.924 157.32 93.3924L158.927 92.026C157.446 90.1515 155.505 89.2776 153.146 89.5568V91.5568ZM157.326 93.3989C157.992 94.2261 158.435 95.0922 158.675 95.9959L160.598 95.2676C160.287 94.0948 159.722 93.0125 158.922 92.0195L157.326 93.3989ZM158.675 95.9959C158.923 96.9335 159.035 97.9971 159.001 99.1949L160.986 99.0178C161.025 97.6592 160.899 96.4064 160.598 95.2676L158.675 95.9959ZM159.001 99.1896C158.934 101.169 158.352 103.052 157.242 104.859L158.895 105.773C160.205 103.638 160.906 101.381 160.986 99.023L159.001 99.1896ZM157.234 104.873C155.956 107.02 154.378 108.103 152.459 108.33V110.33C155.159 110.011 157.321 108.418 158.903 105.759L157.234 104.873ZM152.459 108.33C150.787 108.528 149.406 107.953 148.266 106.455L146.641 107.797C148.104 109.72 150.06 110.614 152.459 110.33V108.33ZM148.232 106.414C147.704 105.803 147.279 104.998 146.978 103.972L145.069 104.748C145.427 105.97 145.957 107.009 146.674 107.838L148.232 106.414ZM146.985 103.996C146.718 102.985 146.607 101.897 146.658 100.729L144.674 100.875C144.615 102.231 144.742 103.515 145.062 104.724L146.985 103.996ZM146.658 100.735C146.76 98.6729 147.333 96.7607 148.375 94.9792L146.697 94.1086C145.465 96.2146 144.792 98.4746 144.674 100.87L146.658 100.735ZM155.823 96.3354C155.301 95.136 154.418 94.2248 153.036 94.3883V96.3883C153.231 96.3652 153.595 96.4141 153.989 97.3216L155.823 96.3354ZM153.036 94.3883C151.485 94.5719 150.515 95.8986 149.937 97.4713L151.79 97.9734C152.275 96.651 152.754 96.4217 153.036 96.3883V94.3883ZM149.943 97.4571C149.484 98.6547 149.204 99.866 149.104 101.088L151.083 101.019C151.166 100.004 151.399 98.9944 151.784 97.9875L149.943 97.4571ZM149.101 101.136C149.079 101.79 149.168 102.406 149.379 102.972L151.248 102.074C151.129 101.756 151.072 101.392 151.086 100.97L149.101 101.136ZM149.347 102.868C149.541 103.67 149.894 104.366 150.492 104.812L151.785 103.14C151.613 103.012 151.416 102.74 151.28 102.178L149.347 102.868ZM150.467 104.793C151.116 105.314 151.926 105.492 152.816 105.387V103.387C152.35 103.442 152.041 103.346 151.81 103.159L150.467 104.793ZM152.816 105.387C154.114 105.233 155.143 104.498 155.793 103.288L154.074 102.491C153.77 103.056 153.388 103.319 152.816 103.387V105.387ZM155.803 103.271C156.288 102.329 156.511 101.243 156.531 100.059L154.546 100.26C154.529 101.222 154.349 101.957 154.064 102.509L155.803 103.271ZM156.532 100.058C156.552 98.7402 156.316 97.4991 155.826 96.3428L153.986 97.3142C154.376 98.2321 154.562 99.212 154.546 100.262L156.532 100.058ZM164.91 95.0906L165.902 95.02L165.903 94.9965V94.9731L164.91 95.0906ZM164.828 96.8727L163.836 96.9432L163.759 98.5904L165.24 97.7333L164.828 96.8727ZM166.67 95.5469L167.266 96.2764L167.272 96.2712L167.278 96.2659L166.67 95.5469ZM167.963 93.4278L168.936 93.1164L168.934 93.1039L168.931 93.0915L167.963 93.4278ZM166.973 92.8803L167.037 91.8748L167.023 91.8756L167.009 91.8767L166.973 92.8803ZM164.993 93.3639L164.777 92.4132L164.069 92.6554L164.004 93.3904L164.993 93.3639ZM172.72 91.2585L173.71 91.063L173.706 91.0058L173.695 90.9503L172.72 91.2585ZM169.145 98.0509L168.611 97.2712L167.769 97.9123L168.311 98.6928L169.145 98.0509ZM173.655 103.166L174.318 103.832L175.032 103.103L174.417 102.435L173.655 103.166ZM169.585 107.22L168.766 107.883L169.391 108.726L170.231 107.904L169.585 107.22ZM164.828 100.805L165.646 100.142L163.861 97.7342L163.835 100.914L164.828 100.805ZM165.02 106.874L165.265 107.815L166.077 107.51L166.01 106.677L165.02 106.874ZM160.482 108.575L159.49 108.663L159.452 109.993L160.727 109.515L160.482 108.575ZM160.372 90.6984L160.117 89.7625L159.293 90.0812L159.385 90.9237L160.372 90.6984ZM163.918 95.1612L163.836 96.9432L165.82 96.8021L165.902 95.02L163.918 95.1612ZM165.24 97.7333C165.949 97.323 166.625 96.8367 167.266 96.2764L166.074 94.8174C165.542 95.2822 164.989 95.6796 164.415 96.0121L165.24 97.7333ZM167.278 96.2659C167.806 95.7918 168.25 95.3085 168.55 94.8171C168.853 94.321 169.06 93.7251 168.936 93.1164L166.989 93.7391C166.975 93.6713 167.022 93.6989 166.894 93.9092C166.763 94.1243 166.506 94.43 166.062 94.8279L167.278 96.2659ZM168.931 93.0915C168.831 92.6623 168.584 92.3109 168.197 92.0972C167.837 91.8982 167.423 91.8542 167.037 91.8748L166.909 93.8858C166.995 93.8812 167.05 93.886 167.081 93.8913C167.112 93.8965 167.112 93.9009 167.095 93.8917C167.077 93.8813 167.05 93.8608 167.027 93.8289C167.004 93.7975 166.996 93.7713 166.994 93.764L168.931 93.0915ZM167.009 91.8767C166.391 91.9268 165.635 92.1195 164.777 92.4132L165.208 94.3146C166 94.0437 166.564 93.9141 166.936 93.884L167.009 91.8767ZM164.004 93.3904C163.946 94.0324 163.917 94.6386 163.917 95.2081L165.903 94.9731C165.903 94.4718 165.929 93.9269 165.982 93.3374L164.004 93.3904ZM167.908 89.5881C169.188 89.4366 170.068 89.5825 170.649 89.905C171.202 90.2117 171.578 90.7297 171.746 91.5667L173.695 90.9503C173.44 89.6773 172.804 88.6951 171.753 88.1117C170.73 87.544 169.414 87.4098 167.908 87.5881V89.5881ZM171.73 91.454C171.897 93.5731 170.958 95.485 168.611 97.2712L169.679 98.8306C172.503 96.6818 173.947 94.0654 173.71 91.063L171.73 91.454ZM168.311 98.6928C168.756 99.3327 170.312 101.091 172.893 103.898L174.417 102.435C171.792 99.5805 170.341 97.9289 169.979 97.4089L168.311 98.6928ZM172.992 102.5C171.937 103.578 170.586 104.923 168.94 106.537L170.231 107.904C171.884 106.284 173.247 104.926 174.318 103.832L172.992 102.5ZM170.404 106.557L165.646 100.142L164.009 101.468L168.766 107.883L170.404 106.557ZM163.835 100.914C163.816 103.174 163.881 105.227 164.03 107.072L166.01 106.677C165.866 104.901 165.802 102.908 165.821 100.696L163.835 100.914ZM164.775 105.934L160.238 107.635L160.727 109.515L165.265 107.815L164.775 105.934ZM161.475 108.486C161.732 99.5858 161.698 93.5586 161.36 90.4731L159.385 90.9237C159.707 93.8524 159.747 99.7427 159.49 108.663L161.475 108.486ZM160.628 91.6344C163.611 90.4803 166.03 89.8103 167.908 89.5881V87.5881C165.788 87.8389 163.184 88.5759 160.117 89.7625L160.628 91.6344Z" fill="black"/>
<defs>
<filter id="filter0_d_1316_4277" x="0" y="5.64648" width="198" height="151.758" filterUnits="userSpaceOnUse" color-interpolation-filters="sRGB">
<feFlood flood-opacity="0" result="BackgroundImageFix"/>
<feColorMatrix in="SourceAlpha" type="matrix" values="0 0 0 0 0 0 0 0 0 0 0 0 0 0 0 0 0 0 127 0" result="hardAlpha"/>
<feOffset dx="-1" dy="-1"/>
<feComposite in2="hardAlpha" operator="out"/>
<feColorMatrix type="matrix" values="0 0 0 0 0 0 0 0 0 0 0 0 0 0 0 0 0 0 1 0"/>
<feBlend mode="normal" in2="BackgroundImageFix" result="effect1_dropShadow_1316_4277"/>
<feBlend mode="normal" in="SourceGraphic" in2="effect1_dropShadow_1316_4277" result="shape"/>
</filter>
</defs>
</svg>
