<svg width="28" height="28" viewBox="0 0 28 28" fill="none" xmlns="http://www.w3.org/2000/svg">
<path d="M13.9999 11.6667V18.6667M13.9999 18.6667L10.4999 15.1667M13.9999 18.6667L17.4999 15.1667M19.8333 24.5H8.16659C7.54775 24.5 6.95425 24.2542 6.51667 23.8166C6.07908 23.379 5.83325 22.7855 5.83325 22.1667V5.83333C5.83325 5.21449 6.07908 4.621 6.51667 4.18342C6.95425 3.74583 7.54775 3.5 8.16659 3.5H14.6836C14.993 3.50007 15.2897 3.62303 15.5084 3.84183L21.8248 10.1582C22.0436 10.3769 22.1665 10.6736 22.1666 10.983V22.1667C22.1666 22.7855 21.9208 23.379 21.4832 23.8166C21.0456 24.2542 20.4521 24.5 19.8333 24.5Z" stroke="#2E65F3" stroke-width="2" stroke-linecap="round" stroke-linejoin="round"/>
</svg>
