<svg width="30" height="30" viewBox="0 0 30 30" fill="none" xmlns="http://www.w3.org/2000/svg">
<path fill-rule="evenodd" clip-rule="evenodd" d="M21.2898 3.33962C21.2898 3.33962 27.5325 4.3444 29.304 10.6829C31.0755 17.0211 29.8944 23.2825 20.6995 26.6834C20.6995 30.6879 16.8261 31.0659 16.094 27.8185C16.1314 27.7929 16.1684 27.7673 16.2049 27.7413C17.808 26.6066 18.9193 25.2728 19.8277 23.6924C20.9657 23.3562 22.0178 22.6331 22.6883 21.7679L23.0716 21.2736L23.0079 20.6702C22.8966 19.6134 22.3826 18.5078 21.5807 17.6961C21.6567 15.9113 21.4221 14.2473 20.653 12.5303C18.8622 8.53144 14.9691 6.48762 10.5354 5.69855C12.8373 3.74997 15.3853 3.33962 15.3853 3.33962C16.9095 -1.11321 19.7656 -1.11321 21.2898 3.33962V3.33962ZM21.2426 20.8264C21.2426 20.8264 21.0713 19.1828 19.7611 18.3824C19.741 18.37 21.5478 8.97868 9.5991 7.1965C1.44608 5.98014 -4.00242 24.614 3.7221 27.296C15.0423 31.227 18.6017 22.266 18.626 22.2645C20.1974 22.1715 21.2426 20.8264 21.2426 20.8264ZM2.16052 16.1413C3.53107 11.4543 6.70764 8.16176 9.25564 8.78744C11.8036 9.41312 12.7584 13.7199 11.3879 18.4069C10.0173 23.0939 6.84075 26.3864 4.29234 25.7607C1.74475 25.135 0.789974 20.8283 2.16052 16.1413V16.1413ZM10.0223 18.5518C9.48818 20.1601 8.76059 21.565 7.96192 22.6229L7.25118 17.8712L10.0223 18.5518ZM10.7215 13.1857C10.8357 14.4679 10.6993 16.0182 10.2844 17.6558L7.51329 16.9752L10.7215 13.1857ZM9.25688 10.0343C9.8986 10.3833 10.3464 11.1641 10.5777 12.2253L7.58108 15.7652L9.25688 10.0343V10.0343ZM6.09879 11.1257C6.87855 10.3125 7.69241 9.84154 8.43808 9.83326L6.7627 15.5638L6.09879 11.1257V11.1257ZM4.15512 24.4804C3.51381 24.1314 3.066 23.3506 2.8347 22.2893L5.83092 18.7498L4.15512 24.4804V24.4804ZM6.64972 18.9505L7.31363 23.389C6.53386 24.2022 5.72 24.6731 4.97392 24.681L6.64972 18.9505ZM5.89912 17.5395L2.69091 21.3286C2.5767 20.0467 2.71309 18.4965 3.12804 16.8588L5.89912 17.5395V17.5395ZM3.38974 15.9629C3.92382 14.3546 4.65182 12.9496 5.45049 11.8918L6.16123 16.6431L3.38974 15.9629Z" fill="#FFB545"/>
</svg>
