<svg width="29" height="29" viewBox="0 0 29 29" fill="none" xmlns="http://www.w3.org/2000/svg">
    <path
        d="M14.4996 2.90002C12.5768 2.90002 10.7327 3.66386 9.37309 5.0235C8.01345 6.38314 7.24961 8.2272 7.24961 10.15V13.05C6.48048 13.05 5.74286 13.3556 5.199 13.8994C4.65514 14.4433 4.34961 15.1809 4.34961 15.95V23.2C4.34961 23.9692 4.65514 24.7068 5.199 25.2506C5.74286 25.7945 6.48048 26.1 7.24961 26.1H21.7496C22.5187 26.1 23.2564 25.7945 23.8002 25.2506C24.3441 24.7068 24.6496 23.9692 24.6496 23.2V15.95C24.6496 15.1809 24.3441 14.4433 23.8002 13.8994C23.2564 13.3556 22.5187 13.05 21.7496 13.05H10.1496V10.15C10.1493 9.091 10.5352 8.06823 11.2352 7.27349C11.9351 6.47875 12.9009 5.96665 13.9515 5.83322C15.0021 5.69978 16.0653 5.95418 16.9417 6.5487C17.8181 7.14323 18.4475 8.03704 18.7119 9.06252C18.808 9.43497 19.0482 9.75398 19.3795 9.94936C19.5436 10.0461 19.7251 10.1096 19.9137 10.1362C20.1023 10.1628 20.2943 10.152 20.4787 10.1043C20.6631 10.0567 20.8363 9.97328 20.9885 9.85873C21.1407 9.74417 21.2688 9.60077 21.3655 9.43671C21.4623 9.27264 21.5257 9.09113 21.5523 8.90253C21.5789 8.71393 21.5681 8.52194 21.5205 8.33752C21.1182 6.78133 20.2103 5.40287 18.9395 4.41866C17.6687 3.43446 16.107 2.90027 14.4996 2.90002Z"
        fill="#249F5D" />
</svg>