<svg width="36" height="36" viewBox="0 0 36 36" fill="none" xmlns="http://www.w3.org/2000/svg">
<path fill-rule="evenodd" clip-rule="evenodd" d="M14 25.2V19.6C14 15.887 15.475 12.326 18.1005 9.7005C20.726 7.07499 24.287 5.6 28 5.6C31.7131 5.6 35.274 7.07499 37.8995 9.7005C40.525 12.326 42 15.887 42 19.6V25.2C43.4852 25.2 44.9096 25.79 45.9598 26.8402C47.01 27.8904 47.6 29.3148 47.6 30.8V44.8C47.6 46.2852 47.01 47.7096 45.9598 48.7598C44.9096 49.81 43.4852 50.4 42 50.4H14C12.5148 50.4 11.0904 49.81 10.0402 48.7598C8.99002 47.7096 8.40002 46.2852 8.40002 44.8V30.8C8.40002 29.3148 8.99002 27.8904 10.0402 26.8402C11.0904 25.79 12.5148 25.2 14 25.2V25.2ZM36.4 19.6V25.2H19.6V19.6C19.6 17.3722 20.485 15.2356 22.0603 13.6603C23.6356 12.085 25.7722 11.2 28 11.2C30.2278 11.2 32.3644 12.085 33.9397 13.6603C35.515 15.2356 36.4 17.3722 36.4 19.6V19.6Z" fill="#6592D5" fill-opacity="0.86"/>
</svg>
