<svg width="20" height="20" viewBox="0 0 20 20" fill="none" xmlns="http://www.w3.org/2000/svg">
<path d="M10 5.93353C8.343 5.93353 7 6.7808 7 7.82686C7 8.87293 8.343 9.7202 10 9.7202C11.657 9.7202 13 10.5675 13 11.6135C13 12.6596 11.657 13.5069 10 13.5069M10 5.93353V13.5069M10 5.93353C11.11 5.93353 12.08 6.31409 12.599 6.8802M10 5.93353V4.98686M10 13.5069V14.4535M10 13.5069C8.89 13.5069 7.92 13.1263 7.401 12.5602M19 9.7202C19 10.8391 18.7672 11.947 18.3149 12.9807C17.8626 14.0144 17.1997 14.9536 16.364 15.7447C15.5282 16.5359 14.5361 17.1635 13.4442 17.5917C12.3522 18.0198 11.1819 18.2402 10 18.2402C8.8181 18.2402 7.64778 18.0198 6.55585 17.5917C5.46392 17.1635 4.47177 16.5359 3.63604 15.7447C2.80031 14.9536 2.13738 14.0144 1.68508 12.9807C1.23279 11.947 1 10.8391 1 9.7202C1 7.46055 1.94821 5.29346 3.63604 3.69565C5.32387 2.09784 7.61305 1.2002 10 1.2002C12.3869 1.2002 14.6761 2.09784 16.364 3.69565C18.0518 5.29346 19 7.46055 19 9.7202Z" stroke="#232325" stroke-width="2" stroke-linecap="round" stroke-linejoin="round"/>
</svg>
