<?xml version="1.0" encoding="UTF-8"?>
<svg xmlns="http://www.w3.org/2000/svg" xmlns:xlink="http://www.w3.org/1999/xlink" width="12px" height="18px" viewBox="0 0 12 17" version="1.1">
<g id="surface1">
<path style=" stroke:none;fill-rule:nonzero;fill:rgb(100%,100%,100%);fill-opacity:1;" d="M 0.238281 1.585938 C 0.238281 0.859375 0.839844 0.308594 1.550781 0.308594 L 10.542969 0.308594 C 11.289062 0.308594 11.859375 0.894531 11.859375 1.585938 C 11.859375 2.3125 11.253906 2.863281 10.542969 2.863281 L 10.4375 2.863281 C 10.257812 2.863281 10.082031 2.726562 10.082031 2.519531 C 10.082031 2.34375 10.222656 2.171875 10.4375 2.171875 L 10.542969 2.171875 C 10.898438 2.171875 11.148438 1.898438 11.148438 1.585938 C 11.148438 1.242188 10.863281 1 10.542969 1 L 1.550781 1 C 1.195312 1 0.949219 1.273438 0.949219 1.585938 C 0.949219 1.929688 1.234375 2.171875 1.550781 2.171875 L 1.660156 2.171875 C 1.835938 2.171875 2.015625 2.3125 2.015625 2.519531 C 2.015625 2.691406 1.871094 2.863281 1.660156 2.863281 L 1.550781 2.863281 C 0.839844 2.863281 0.238281 2.3125 0.238281 1.585938 Z M 0.238281 1.585938 "/>
<path style=" stroke:none;fill-rule:nonzero;fill:rgb(100%,100%,100%);fill-opacity:1;" d="M 3.242188 1.6875 L 8.925781 1.6875 C 9.152344 1.6875 9.335938 1.867188 9.335938 2.085938 C 9.335938 2.304688 9.152344 2.484375 8.925781 2.484375 L 3.242188 2.484375 C 3.015625 2.484375 2.832031 2.304688 2.832031 2.085938 C 2.832031 1.867188 3.015625 1.6875 3.242188 1.6875 Z M 3.242188 1.6875 "/>
<path style=" stroke:none;fill-rule:nonzero;fill:rgb(100%,100%,100%);fill-opacity:1;" d="M 2.457031 14.601562 L 9.707031 14.601562 C 9.933594 14.601562 10.117188 14.777344 10.117188 14.996094 C 10.117188 15.21875 9.933594 15.394531 9.707031 15.394531 L 2.457031 15.394531 C 2.234375 15.394531 2.050781 15.21875 2.050781 14.996094 C 2.050781 14.777344 2.234375 14.601562 2.457031 14.601562 Z M 2.457031 14.601562 "/>
<path style=" stroke:none;fill-rule:nonzero;fill:rgb(100%,100%,100%);fill-opacity:1;" d="M 1.179688 16.085938 L 11.023438 16.085938 C 11.25 16.085938 11.433594 16.261719 11.433594 16.480469 C 11.433594 16.703125 11.25 16.878906 11.023438 16.878906 L 1.179688 16.878906 C 0.953125 16.878906 0.769531 16.703125 0.769531 16.480469 C 0.769531 16.261719 0.953125 16.085938 1.179688 16.085938 Z M 1.179688 16.085938 "/>
<path style=" stroke:none;fill-rule:nonzero;fill:rgb(100%,100%,100%);fill-opacity:1;" d="M 8.445312 13.339844 L 8.445312 3.707031 C 8.445312 3.394531 8.710938 3.140625 9.03125 3.140625 C 9.355469 3.140625 9.621094 3.394531 9.621094 3.707031 L 9.621094 13.339844 C 9.621094 13.65625 9.355469 13.910156 9.03125 13.910156 C 8.710938 13.910156 8.445312 13.65625 8.445312 13.339844 Z M 8.445312 13.339844 "/>
<path style=" stroke:none;fill-rule:nonzero;fill:rgb(100%,100%,100%);fill-opacity:1;" d="M 6.492188 13.339844 L 6.492188 3.707031 C 6.492188 3.394531 6.753906 3.140625 7.078125 3.140625 C 7.402344 3.140625 7.664062 3.394531 7.664062 3.707031 L 7.664062 13.339844 C 7.664062 13.65625 7.402344 13.910156 7.078125 13.910156 C 6.753906 13.910156 6.492188 13.65625 6.492188 13.339844 Z M 6.492188 13.339844 "/>
<path style=" stroke:none;fill-rule:nonzero;fill:rgb(100%,100%,100%);fill-opacity:1;" d="M 4.539062 13.339844 L 4.539062 3.707031 C 4.539062 3.394531 4.800781 3.140625 5.125 3.140625 C 5.449219 3.140625 5.710938 3.394531 5.710938 3.707031 L 5.710938 13.339844 C 5.710938 13.65625 5.449219 13.910156 5.125 13.910156 C 4.800781 13.910156 4.539062 13.65625 4.539062 13.339844 Z M 4.539062 13.339844 "/>
<path style=" stroke:none;fill-rule:nonzero;fill:rgb(100%,100%,100%);fill-opacity:1;" d="M 2.546875 13.339844 L 2.546875 3.707031 C 2.546875 3.394531 2.808594 3.140625 3.132812 3.140625 C 3.457031 3.140625 3.71875 3.394531 3.71875 3.707031 L 3.71875 13.339844 C 3.71875 13.65625 3.457031 13.910156 3.132812 13.910156 C 2.808594 13.910156 2.546875 13.65625 2.546875 13.339844 Z M 2.546875 13.339844 "/>
</g>
</svg>
