<svg width="343" height="101" viewBox="0 0 343 101" fill="none" xmlns="http://www.w3.org/2000/svg">
<path d="M339.583 7.44829C337.393 5.20108 334.755 3.43747 331.841 2.27129C328.926 1.10511 325.799 0.562276 322.662 0.677833H91.2013C66.1353 2.42651 41.9714 10.7327 21.1371 24.7621C12.1851 30.6283 5.63186 39.502 2.66378 49.7766C0.502924 56.535 0.950569 63.8561 3.91877 70.3017C6.88697 76.7473 12.1611 81.8512 18.7051 84.6108C22.3765 86.4693 26.4389 87.4261 30.5549 87.4017H37.1267C38.0137 90.4205 39.6781 93.1541 41.9535 95.3296C44.229 97.5051 47.0361 99.0464 50.0945 99.7996C53.1528 100.553 56.3555 100.492 59.3827 99.622C62.41 98.7524 65.1559 97.1049 67.3464 94.8441C69.5311 97.1071 72.2731 98.7568 75.2974 99.6277C78.3217 100.499 81.5221 100.56 84.5778 99.8065C87.6335 99.0527 90.4371 97.5099 92.7076 95.3327C94.9782 93.1555 96.6358 90.4204 97.5144 87.4017H151.848C152.735 90.4205 154.399 93.1541 156.675 95.3296C158.95 97.5051 161.757 99.0464 164.816 99.7996C167.874 100.553 171.077 100.492 174.104 99.622C177.131 98.7524 179.877 97.1049 182.067 94.8441C184.252 97.1071 186.994 98.7568 190.018 99.6277C193.043 100.499 196.243 100.56 199.299 99.8065C202.355 99.0527 205.158 97.5099 207.429 95.3327C209.699 93.1555 211.357 90.4204 212.235 87.4017H256.22C257.107 90.4205 258.771 93.1541 261.046 95.3296C263.322 97.5051 266.129 99.0464 269.187 99.7996C272.246 100.553 275.448 100.492 278.476 99.622C281.503 98.7524 284.249 97.1049 286.439 94.8441C288.63 97.1049 291.376 98.7524 294.403 99.622C297.43 100.492 300.633 100.553 303.691 99.7996C306.75 99.0464 309.557 97.5051 311.832 95.3296C314.108 93.1541 315.772 90.4205 316.659 87.4017H332.597C335.342 87.4017 337.974 86.3127 339.915 84.3742C341.856 82.4357 342.946 79.8066 342.946 77.0651V17.2164C343.076 13.6565 341.877 10.1753 339.583 7.44829ZM81.2661 12.1514V30.1371C81.2661 31.5078 80.7209 32.8224 79.7505 33.7916C78.78 34.7608 77.4639 35.3054 76.0915 35.3054H24.3454L27.0362 33.238C43.3623 22.3538 61.8692 15.1576 81.2661 12.1514ZM54.4099 89.9859C52.8747 89.9859 51.374 89.5312 50.0976 88.6793C48.8211 87.8275 47.8263 86.6167 47.2388 85.2001C46.6513 83.7836 46.4976 82.2248 46.7971 80.721C47.0966 79.2172 47.8358 77.8358 48.9214 76.7516C50.0069 75.6674 51.3899 74.9291 52.8956 74.63C54.4013 74.3308 55.9619 74.4843 57.3802 75.0711C58.7985 75.6579 60.0108 76.6515 60.8637 77.9264C61.7165 79.2013 62.1718 80.7001 62.1718 82.2334C62.1718 83.2515 61.971 84.2596 61.5809 85.2001C61.1909 86.1407 60.6191 86.9953 59.8984 87.7152C59.1776 88.4351 58.3219 89.0061 57.3802 89.3957C56.4385 89.7853 55.4292 89.9859 54.4099 89.9859ZM80.2829 89.9859C78.7477 89.9859 77.2471 89.5312 75.9706 88.6793C74.6942 87.8275 73.6993 86.6167 73.1118 85.2001C72.5244 83.7836 72.3706 82.2248 72.6701 80.721C72.9696 79.2172 73.7089 77.8358 74.7944 76.7516C75.8799 75.6674 77.263 74.9291 78.7686 74.63C80.2743 74.3308 81.835 74.4843 83.2533 75.0711C84.6716 75.6579 85.8838 76.6515 86.7367 77.9264C87.5896 79.2013 88.0448 80.7001 88.0448 82.2334C88.0448 83.2515 87.8441 84.2596 87.454 85.2001C87.0639 86.1407 86.4922 86.9953 85.7714 87.7152C85.0507 88.4351 84.195 89.0061 83.2533 89.3957C82.3115 89.7853 81.3022 89.9859 80.2829 89.9859ZM116.505 77.0651V29.982H132.857V77.0651H116.505ZM169.079 89.9859C167.544 89.9859 166.043 89.5312 164.767 88.6793C163.49 87.8275 162.496 86.6167 161.908 85.2001C161.321 83.7836 161.167 82.2248 161.466 80.721C161.766 79.2172 162.505 77.8358 163.591 76.7516C164.676 75.6674 166.059 74.9291 167.565 74.63C169.071 74.3308 170.631 74.4843 172.05 75.0711C173.468 75.6579 174.68 76.6515 175.533 77.9264C176.386 79.2013 176.841 80.7001 176.841 82.2334C176.841 84.2806 176.03 86.2446 174.586 87.697C173.142 89.1494 171.181 89.9722 169.131 89.9859H169.079ZM194.952 89.9859C193.417 89.9859 191.916 89.5312 190.64 88.6793C189.363 87.8275 188.369 86.6167 187.781 85.2001C187.194 83.7836 187.04 82.2248 187.339 80.721C187.639 79.2172 188.378 77.8358 189.464 76.7516C190.549 75.6674 191.932 74.9291 193.438 74.63C194.944 74.3308 196.504 74.4843 197.923 75.0711C199.341 75.6579 200.553 76.6515 201.406 77.9264C202.259 79.2013 202.714 80.7001 202.714 82.2334C202.714 84.2806 201.904 86.2446 200.459 87.697C199.015 89.1494 197.054 89.9722 195.004 89.9859H194.952ZM273.451 89.9859C271.916 89.9859 270.415 89.5312 269.139 88.6793C267.862 87.8275 266.867 86.6167 266.28 85.2001C265.692 83.7836 265.539 82.2248 265.838 80.721C266.138 79.2172 266.877 77.8358 267.963 76.7516C269.048 75.6674 270.431 74.9291 271.937 74.63C273.442 74.3308 275.003 74.4843 276.421 75.0711C277.84 75.6579 279.052 76.6515 279.905 77.9264C280.758 79.2013 281.213 80.7001 281.213 82.2334C281.213 84.2806 280.402 86.2446 278.958 87.697C277.513 89.1494 275.552 89.9722 273.503 89.9859H273.451ZM299.324 89.9859C297.789 89.9859 296.288 89.5312 295.012 88.6793C293.735 87.8275 292.74 86.6167 292.153 85.2001C291.566 83.7836 291.412 82.2248 291.711 80.721C292.011 79.2172 292.75 77.8358 293.836 76.7516C294.921 75.6674 296.304 74.9291 297.81 74.63C299.315 74.3308 300.876 74.4843 302.294 75.0711C303.713 75.6579 304.925 76.6515 305.778 77.9264C306.631 79.2013 307.086 80.7001 307.086 82.2334C307.086 84.2806 306.275 86.2446 304.831 87.697C303.386 89.1494 301.425 89.9722 299.376 89.9859H299.324ZM316.556 77.0651C315.677 74.0464 314.019 71.3114 311.749 69.1342C309.478 66.957 306.675 65.4142 303.619 64.6603C300.563 63.9065 297.363 63.9682 294.339 64.8391C291.314 65.7101 288.572 67.3598 286.388 69.6228C284.197 67.3619 281.451 65.7144 278.424 64.8449C275.397 63.9753 272.194 63.9141 269.136 64.6673C266.077 65.4205 263.27 66.9618 260.995 69.1373C258.719 71.3127 257.055 74.0463 256.168 77.0651H212.184C211.305 74.0464 209.647 71.3114 207.377 69.1342C205.106 66.957 202.303 65.4142 199.247 64.6603C196.191 63.9065 192.991 63.9682 189.967 64.8391C186.942 65.7101 184.2 67.3598 182.016 69.6228C179.825 67.3619 177.079 65.7144 174.052 64.8449C171.025 63.9753 167.822 63.9141 164.764 64.6673C161.705 65.4205 158.898 66.9618 156.623 69.1373C154.347 71.3127 152.683 74.0463 151.796 77.0651H143.206V24.8137C143.206 23.7915 142.903 22.7923 142.334 21.9424C141.765 21.0925 140.957 20.43 140.012 20.0389C139.066 19.6477 138.026 19.5453 137.022 19.7448C136.018 19.9442 135.096 20.4364 134.373 21.1592C133.649 21.882 133.156 22.8029 132.956 23.8055C132.757 24.808 132.859 25.8472 133.251 26.7915C133.642 27.7359 134.306 28.5431 135.157 29.111C136.008 29.6789 135.999 19.7448 137.022 19.7448L111.382 19.6455V29.982C112.406 29.982 113.406 29.6789 114.257 29.111C115.108 28.5431 115.771 27.7359 116.163 26.7915C116.555 25.8472 116.657 24.808 116.457 23.8055C116.258 22.8029 115.765 21.882 115.041 21.1592C114.318 20.4364 113.396 19.9442 112.392 19.7448C111.388 19.5453 110.348 19.6477 109.402 20.0389C108.457 20.43 107.648 21.0925 107.08 21.9424C106.511 22.7923 106.208 23.7915 106.208 24.8137V77.0651H97.5144C96.6358 74.0464 94.9782 71.3114 92.7076 69.1342C90.4371 66.957 87.6335 65.4142 84.5778 64.6603C81.5221 63.9065 78.3217 63.9682 75.2974 64.8391C72.2731 65.7101 69.5311 67.3598 67.3464 69.6228C65.1559 67.3619 62.41 65.7144 59.3827 64.8449C56.3555 63.9753 53.1528 63.9141 50.0945 64.6673C47.0361 65.4205 44.229 66.9618 41.9535 69.1373C39.6781 71.3127 38.0137 74.0463 37.1267 77.0651H30.5549C28.0765 77.0911 25.628 76.524 23.414 75.4113C18.9892 73.7134 15.3957 70.3686 13.3886 66.0798C11.3814 61.7909 11.117 56.8919 12.6508 52.4124C13.3084 50.0523 14.2465 47.7793 15.4451 45.6419H76.0915C80.2086 45.6419 84.1572 44.0084 87.0685 41.1007C89.9798 38.1929 91.6153 34.2492 91.6153 30.1371V11.0144H322.351C324.056 10.8896 325.768 11.109 327.386 11.6595C329.004 12.2101 330.495 13.0804 331.769 14.2187C332.262 14.8599 332.55 15.6342 332.597 16.4411V77.0651H316.556Z" fill="black"/>
<path d="M314.485 19.6455H159.247V29.9821C160.27 29.9821 161.271 29.679 162.122 29.1111C162.973 28.5432 163.636 27.736 164.028 26.7916C164.419 25.8472 164.522 24.8081 164.322 23.8055C164.122 22.803 163.63 21.8821 162.906 21.1593C162.182 20.4365 161.26 19.9442 160.256 19.7448C159.253 19.5454 158.212 19.6477 157.267 20.0389C156.321 20.4301 155.513 21.0925 154.944 21.9425C154.376 22.7924 154.072 23.7916 154.072 24.8138V50.6552C154.072 52.026 154.617 53.3405 155.588 54.3098C156.558 55.279 157.874 55.8235 159.247 55.8235H314.485C315.857 55.8235 317.174 55.279 318.144 54.3098C319.115 53.3405 319.66 52.026 319.66 50.6552V24.8138C319.66 23.7916 319.356 22.7924 318.788 21.9425C318.219 21.0925 317.411 20.4301 316.465 20.0389C315.52 19.6477 314.479 19.5454 313.476 19.7448C312.472 19.9442 311.55 20.4365 310.826 21.1593C310.102 21.8821 309.61 22.803 309.41 23.8055C309.21 24.8081 309.313 25.8472 309.704 26.7916C310.096 27.736 310.759 28.5432 311.61 29.1111C312.461 29.679 313.462 29.9821 314.485 29.9821V19.6455ZM164.421 29.9821H179.945V45.487H164.421V29.9821ZM190.295 29.9821H205.818V45.487H190.295V29.9821ZM216.168 29.9821H231.691V45.487H216.168V29.9821ZM242.041 29.9821H257.564V45.487H242.041V29.9821ZM267.914 29.9821H283.437V45.487H267.914V29.9821ZM309.31 45.487H293.787V29.9821H309.31V45.487Z" fill="black"/>
</svg>
