<svg width="20" height="18" viewBox="0 0 20 18" fill="none" xmlns="http://www.w3.org/2000/svg">
<path d="M8 4.0402H3C2.46957 4.0402 1.96086 4.23967 1.58579 4.59474C1.21071 4.94981 1 5.43139 1 5.93353V14.4535C1 14.9557 1.21071 15.4372 1.58579 15.7923C1.96086 16.1474 2.46957 16.3469 3 16.3469H17C17.5304 16.3469 18.0391 16.1474 18.4142 15.7923C18.7893 15.4372 19 14.9557 19 14.4535V5.93353C19 5.43139 18.7893 4.94981 18.4142 4.59474C18.0391 4.23967 17.5304 4.0402 17 4.0402H12M8 4.0402V3.09353C8 2.59139 8.21071 2.10981 8.58579 1.75474C8.96086 1.39967 9.46957 1.2002 10 1.2002C10.5304 1.2002 11.0391 1.39967 11.4142 1.75474C11.7893 2.10981 12 2.59139 12 3.09353V4.0402M8 4.0402C8 4.54234 8.21071 5.02392 8.58579 5.37898C8.96086 5.73405 9.46957 5.93353 10 5.93353C10.5304 5.93353 11.0391 5.73405 11.4142 5.37898C11.7893 5.02392 12 4.54234 12 4.0402M7 11.6135C7.53043 11.6135 8.03914 11.4141 8.41421 11.059C8.78929 10.7039 9 10.2223 9 9.7202C9 9.21805 8.78929 8.73648 8.41421 8.38141C8.03914 8.02634 7.53043 7.82686 7 7.82686C6.46957 7.82686 5.96086 8.02634 5.58579 8.38141C5.21071 8.73648 5 9.21805 5 9.7202C5 10.2223 5.21071 10.7039 5.58579 11.059C5.96086 11.4141 6.46957 11.6135 7 11.6135ZM7 11.6135C8.306 11.6135 9.417 12.404 9.83 13.5069M7 11.6135C6.37938 11.6134 5.77397 11.7953 5.26715 12.1344C4.76032 12.4735 4.37701 12.953 4.17 13.5069M13 8.77353H16M13 12.5602H15" stroke="#232325" stroke-width="2" stroke-linecap="round" stroke-linejoin="round"/>
</svg>
