<svg width="72" height="113" viewBox="0 0 72 113" fill="none" xmlns="http://www.w3.org/2000/svg">
<g clip-path="url(#clip0_2479_1969)">
<path d="M15.5548 77.1803C15.2963 78.087 13.5035 79.2362 12.5611 79.6807C9.40108 76.8469 4.32557 71.6792 4.57791 68.0118C5.24317 58.3433 11.2306 57.1764 12.5611 57.1764C13.7371 57.1764 18.8465 57.9989 20.0453 61.844C20.8769 64.5112 16.5527 68.8453 13.8916 70.5123C12.7274 71.3458 14.5569 73.6796 15.5548 74.6798C16.0537 75.0132 15.8874 76.0134 15.5548 77.1803Z" fill="#8CBD6E"/>
<path fill-rule="evenodd" clip-rule="evenodd" d="M7.99524 58.5887C9.84469 56.9999 11.7945 56.6763 12.561 56.6763C13.2164 56.6763 14.8556 56.8957 16.4936 57.6097C18.1326 58.3242 19.8608 59.5757 20.5215 61.6948C20.7779 62.5172 20.623 63.4163 20.2705 64.2788C19.9157 65.1467 19.3389 66.0328 18.6663 66.8675C17.3272 68.5292 15.5475 70.0616 14.1713 70.9268C14.0593 71.0112 14.0035 71.1263 14.0178 71.3412C14.0342 71.5886 14.147 71.9155 14.3516 72.2964C14.7487 73.0355 15.4008 73.8132 15.8783 74.2967C16.3209 74.6262 16.3865 75.1884 16.3649 75.6413C16.3412 76.1404 16.2022 76.7293 16.0345 77.3177C15.9391 77.6522 15.72 77.9618 15.48 78.2269C15.2337 78.4992 14.9305 78.7624 14.6165 79.0018C13.9893 79.48 13.2753 79.8965 12.7735 80.1332L12.4745 80.2742L12.2283 80.0534C10.6387 78.6279 8.55477 76.6046 6.89588 74.4658C6.06641 73.3963 5.33357 72.2858 4.82281 71.1965C4.31415 70.1116 4.00888 69.0121 4.08007 67.9774L4.57784 68.0118L4.08007 67.9774C4.42017 63.0347 6.12978 60.1914 7.99524 58.5887ZM8.64467 59.3481C7.01749 60.7461 5.40077 63.3205 5.07561 68.0462C5.02063 68.8452 5.25518 69.767 5.72595 70.7711C6.19463 71.7707 6.88086 72.8168 7.68372 73.8519C9.20491 75.8132 11.1102 77.6911 12.6418 79.0808C13.0519 78.8633 13.5588 78.5516 14.0123 78.2058C14.2965 77.9891 14.5489 77.7671 14.7408 77.555C14.9392 77.3358 15.0411 77.1617 15.075 77.0429C15.2399 76.4644 15.3503 75.9697 15.3682 75.5937C15.3875 75.1868 15.2921 75.1053 15.2779 75.0959L15.2368 75.0684L15.2019 75.0334C14.6838 74.5141 13.941 73.6417 13.473 72.7706C13.2411 72.3389 13.0524 71.8636 13.0221 71.4077C12.99 70.9258 13.1383 70.437 13.6015 70.1054L13.6141 70.0964L13.6271 70.0882C14.9099 69.2847 16.6146 67.8217 17.89 66.239C18.5271 65.4484 19.0417 64.6467 19.3471 63.8996C19.6546 63.1472 19.7284 62.5044 19.569 61.9932C19.0309 60.2672 17.605 59.1849 16.0956 58.5269C14.5852 57.8684 13.0816 57.6765 12.561 57.6765C11.997 57.6765 10.2879 57.9364 8.64467 59.3481Z" fill="#2C2C2C"/>
<path d="M26.5316 66.845C24.8684 66.8449 22.928 70.2345 22.041 71.6792L29.6916 70.8457C29.5252 70.679 28.391 66.845 26.5316 66.845Z" fill="#8CBD6E"/>
<path fill-rule="evenodd" clip-rule="evenodd" d="M22.9969 71.072L28.9613 70.4222C28.9503 70.3955 28.9393 70.3687 28.9283 70.3422C28.7719 69.9651 28.5645 69.4897 28.309 69.0236C28.0514 68.5535 27.7579 68.1174 27.4379 67.8047C27.1166 67.4906 26.8154 67.345 26.5314 67.345C26.2802 67.345 25.9561 67.4775 25.5622 67.7895C25.1765 68.095 24.7782 68.5295 24.3878 69.0288C23.8691 69.6921 23.3916 70.4333 22.9969 71.072ZM24.9435 67.0048C25.4089 66.6361 25.9511 66.3449 26.5314 66.3449C27.1772 66.3449 27.7151 66.6786 28.1346 67.0886C28.5554 67.4999 28.9045 68.0328 29.1837 68.542C29.465 69.0553 29.6886 69.5697 29.8497 69.9583C29.8935 70.064 29.9294 70.1521 29.9611 70.23C29.9916 70.3049 30.0182 70.3702 30.0443 70.4325C30.0636 70.4786 30.0785 70.513 30.0898 70.5378L30.7806 71.2301L21.082 72.2867L21.6159 71.4171C21.6742 71.3221 21.7378 71.2176 21.806 71.1053C22.2473 70.3793 22.8871 69.3265 23.6024 68.4118C24.0158 67.8831 24.4699 67.3799 24.9435 67.0048Z" fill="#2C2C2C"/>
<path d="M59.9612 68.5119C58.2981 68.5119 56.3577 71.068 55.4707 72.5127H63.1213C62.9549 72.346 61.8207 68.5119 59.9612 68.5119Z" fill="#8CBD6E"/>
<path fill-rule="evenodd" clip-rule="evenodd" d="M56.3966 72.0126H62.3593C62.3589 72.0115 62.3584 72.0103 62.3579 72.0092C62.2015 71.6321 61.9942 71.1567 61.7387 70.6906C61.4811 70.2205 61.1876 69.7844 60.8676 69.4717C60.5462 69.1576 60.245 69.012 59.9611 69.012C59.6702 69.012 59.328 69.1255 58.942 69.361C58.5592 69.5947 58.1652 69.929 57.7806 70.3211C57.264 70.8478 56.7857 71.4568 56.3966 72.0126ZM58.423 68.5067C58.8963 68.2179 59.4204 68.0118 59.9611 68.0118C60.6069 68.0118 61.1447 68.3455 61.5642 68.7556C61.9851 69.1669 62.3342 69.6998 62.6133 70.209C62.8947 70.7223 63.1182 71.2366 63.2794 71.6253C63.3232 71.731 63.3591 71.8191 63.3908 71.8969C63.4213 71.9718 63.4479 72.0372 63.4739 72.0995C63.4932 72.1456 63.5081 72.18 63.5195 72.2048L64.3257 73.0128H54.5776L55.0456 72.2506C55.5016 71.5079 56.2307 70.4746 57.0689 69.62C57.4882 69.1925 57.9465 68.7975 58.423 68.5067Z" fill="#2C2C2C"/>
<path d="M59.2958 79.3473L55.3042 78.8472C58.829 70.7923 60.9195 69.2064 63.5008 69.4179C64.4622 69.4967 65.4719 70.0042 65.6515 70.9542C66.182 73.7611 61.444 77.4813 59.2958 79.3473Z" fill="#8CBD6E"/>
<path fill-rule="evenodd" clip-rule="evenodd" d="M61.4424 69.2046C62.1426 68.9254 62.8371 68.8617 63.5415 68.9195C64.0884 68.9643 64.6637 69.1312 65.1399 69.4391C65.6206 69.75 66.0207 70.2208 66.1417 70.8611C66.3037 71.7179 66.056 72.596 65.6265 73.4191C65.1949 74.2462 64.5533 75.0692 63.8458 75.8417C62.6869 77.1071 61.2965 78.2938 60.2516 79.1855C60.0235 79.3802 59.8118 79.5609 59.6226 79.7252L59.4545 79.8712L54.5786 79.2603L54.8473 78.6464C56.6126 74.6121 58.0442 72.1341 59.392 70.6909C60.0725 69.9623 60.7447 69.4827 61.4424 69.2046ZM56.0325 78.4345L59.1377 78.8235C59.2903 78.6922 59.4525 78.5537 59.6222 78.4088C60.6676 77.5162 61.998 76.3803 63.1106 75.1654C63.7898 74.4238 64.3675 73.6738 64.7422 72.9556C65.119 72.2334 65.2646 71.5939 65.1613 71.0473C65.1027 70.7376 64.9082 70.4796 64.5989 70.2796C64.2849 70.0765 63.8747 69.9503 63.4602 69.9163C62.8739 69.8683 62.3391 69.9235 61.8112 70.1339C61.2808 70.3454 60.726 70.7261 60.1206 71.3744C58.9603 72.6168 57.6632 74.7866 56.0325 78.4345Z" fill="#2C2C2C"/>
<path d="M36.178 28.671C44.236 34.6047 51.481 45.9167 34.2789 67.28C34.083 67.5233 34.0858 67.5792 34.3743 67.4602C37.0965 66.3372 47.0493 65.3365 49.4833 65.0113C51.3703 64.7591 55.9832 68.759 58.4016 71.1214C58.5819 71.2976 58.8879 71.2073 58.9583 70.965C67.3991 41.8931 50.3924 32.8125 36.178 28.671Z" fill="white"/>
<path fill-rule="evenodd" clip-rule="evenodd" d="M35.8826 29.074L36.3172 28.1907C43.4495 30.2688 51.3842 33.6111 56.4579 40.1625C61.5564 46.7458 63.6884 56.463 59.4373 71.1048C59.2691 71.684 58.522 71.9374 58.0533 71.4796C56.8535 70.3075 55.1128 68.733 53.4449 67.4868C52.61 66.863 51.8062 66.3312 51.1059 65.9728C50.3799 65.6013 49.8579 65.4657 49.5492 65.507C49.1103 65.5656 48.4292 65.646 47.5961 65.7444C47.2653 65.7834 46.9105 65.8253 46.5374 65.8698C45.2204 66.0268 43.6666 66.217 42.1047 66.432C40.542 66.6471 38.976 66.8863 37.6339 67.1409C36.2797 67.3978 35.1926 67.6634 34.5641 67.9226C34.4883 67.9539 34.3969 67.9887 34.3095 68.0065C34.2701 68.0145 34.1857 68.0293 34.0865 68.0134C33.9739 67.9953 33.7769 67.9209 33.6843 67.6983C33.6107 67.5213 33.6574 67.3659 33.6734 67.3175C33.6948 67.2531 33.7243 67.2005 33.7441 67.1679C33.7851 67.1002 33.8394 67.0296 33.8906 66.9659C42.4508 56.3349 44.8531 48.2962 44.2048 42.2428C43.5575 36.1977 39.853 31.9978 35.8826 29.074ZM38.5218 29.9207C41.8037 32.8328 44.6245 36.7901 45.197 42.136C45.8637 48.3613 43.4673 56.3432 35.4621 66.5919C36.0457 66.4407 36.7217 66.296 37.4484 66.1581C38.8142 65.8991 40.3989 65.6572 41.9689 65.4411C43.5398 65.2249 45.1007 65.0338 46.4195 64.8766C46.7986 64.8314 47.157 64.7891 47.4897 64.7498C48.3179 64.6521 48.9865 64.5731 49.4173 64.5156C50.0522 64.4307 50.8144 64.7006 51.5596 65.082C52.3305 65.4765 53.1849 66.045 54.0413 66.6849C55.6658 67.8987 57.3441 69.4043 58.5524 70.5715C62.6435 56.2853 60.4895 46.9993 55.6696 40.7758C51.3618 35.2133 44.8638 32.0137 38.5218 29.9207Z" fill="#2C2C2C"/>
<path d="M32.8517 20.5027L29.5254 67.1783L32.0201 67.5117L35.1801 20.8361C35.3132 18.9691 32.8517 19.3358 32.8517 20.5027Z" fill="#FBF7BA"/>
<path fill-rule="evenodd" clip-rule="evenodd" d="M33.5306 20.2022C33.3977 20.3006 33.3505 20.4053 33.3505 20.5027V20.5206L30.0564 66.7448L31.5582 66.9455L34.6822 20.8023L34.6823 20.8005C34.7075 20.4469 34.6089 20.2744 34.5217 20.1881C34.4252 20.0926 34.2694 20.0304 34.0692 20.0318C33.8675 20.0332 33.6683 20.1003 33.5306 20.2022ZM35.6778 20.8707C35.7188 20.2912 35.5596 19.8098 35.223 19.4765C34.8953 19.1521 34.4607 19.0289 34.0622 19.0316C33.6651 19.0344 33.2573 19.1611 32.9377 19.3977C32.6176 19.6347 32.3598 20.0064 32.3528 20.4828L28.9941 67.6119L32.4818 68.078L35.6777 20.8718C35.6777 20.8714 35.6777 20.871 35.6778 20.8707Z" fill="#2C2C2C"/>
<path d="M42.3314 25.5037C41.267 26.1705 36.8984 26.3372 34.8472 26.3372L35.1798 20.1693C36.0668 20.2249 38.0737 20.3027 39.0051 20.1693C40.1693 20.0026 41.0009 22.1697 42.3314 22.1697C43.2722 22.1697 46.3538 22.0339 47.4872 23.1699C48.1525 23.8367 48.8177 25.0036 47.9862 24.6702C47.1546 24.3368 43.6619 24.6702 42.3314 25.5037Z" fill="#C63832"/>
<path fill-rule="evenodd" clip-rule="evenodd" d="M34.709 19.6388L35.2112 19.6702C36.1088 19.7264 38.0631 19.7991 38.9348 19.6743C39.3984 19.6079 39.7952 19.7827 40.1106 19.9986C40.4119 20.2049 40.6944 20.4882 40.9413 20.7357C40.9472 20.7416 40.9531 20.7475 40.959 20.7534C41.2255 21.0206 41.4602 21.2539 41.7022 21.4253C41.9392 21.5931 42.1405 21.6696 42.3317 21.6696C42.4052 21.6696 42.4945 21.6687 42.5972 21.6676C43.1233 21.6622 43.9996 21.6531 44.8893 21.7464C45.4231 21.8024 45.9801 21.8968 46.4867 22.0576C46.9883 22.2169 47.4778 22.453 47.8403 22.8163C48.2028 23.1796 48.578 23.6883 48.7554 24.0947C48.8008 24.1988 48.843 24.3177 48.8622 24.4397C48.8794 24.5485 48.892 24.7437 48.7793 24.9297C48.644 25.1531 48.4185 25.225 48.2418 25.2288C48.0838 25.2322 47.9304 25.1863 47.8011 25.1345C47.689 25.0896 47.3996 25.0452 46.9364 25.0427C46.497 25.0402 45.9631 25.0748 45.4092 25.1455C44.2753 25.2901 43.1632 25.5725 42.5961 25.9278C42.2417 26.1498 41.684 26.2975 41.0922 26.407C40.4784 26.5206 39.7504 26.6056 39.0015 26.6688C37.5025 26.7953 35.883 26.8373 34.8474 26.8373H34.3208L34.709 19.6388ZM39.5477 20.8245C39.3382 20.681 39.1944 20.6474 39.0759 20.6644C38.2435 20.7836 36.6571 20.7441 35.6514 20.6959L35.3743 25.8338C36.3671 25.8218 37.687 25.776 38.9178 25.6722C39.6504 25.6103 40.3424 25.5287 40.9111 25.4234C41.5019 25.3141 41.8894 25.191 42.0672 25.0796C42.8307 24.6014 44.1302 24.3003 45.2832 24.1533C45.8726 24.0781 46.451 24.0397 46.9419 24.0425C47.1671 24.0437 47.3903 24.0535 47.5952 24.0768C47.4636 23.8887 47.3011 23.6903 47.1347 23.5235C46.9304 23.3188 46.6098 23.1459 46.1853 23.0111C45.766 22.8779 45.2813 22.7932 44.7854 22.7412C43.9596 22.6545 43.1538 22.6625 42.6227 22.6678C42.5133 22.6688 42.4155 22.6698 42.3317 22.6698C41.8576 22.6698 41.456 22.4755 41.1265 22.2422C40.8081 22.0168 40.5177 21.7256 40.2678 21.4751L40.2533 21.4606C39.9847 21.1913 39.7641 20.9727 39.5477 20.8245Z" fill="#2C2C2C"/>
<path d="M15.0558 83.0147C10.9311 83.1481 8.23682 80.3475 8.23682 78.6806C8.23682 71.3458 36.6769 69.012 46.6559 70.3456C53.8075 71.3014 68.4433 74.8465 68.1107 79.8474C67.8436 81.7215 65.9678 82.4131 63.3445 82.6992C61.9853 82.8475 60.6169 82.7101 59.2646 82.5077C52.3675 81.4751 39.4262 80.6284 23.3716 81.6811C20.4444 81.8145 18.0495 82.848 15.0558 83.0147Z" fill="#C8E9A4"/>
<path fill-rule="evenodd" clip-rule="evenodd" d="M23.6257 70.7686C32.0144 69.43 41.6701 69.1748 46.7217 69.8499C50.3228 70.3312 55.806 71.4632 60.3591 73.1092C62.6322 73.9309 64.7052 74.8919 66.1983 75.9834C67.6703 77.0595 68.7095 78.3619 68.6084 79.8807L68.6072 79.8995L68.6045 79.9182C68.4442 81.043 67.7876 81.8077 66.8455 82.3103C65.9292 82.7991 64.7272 83.0515 63.3984 83.1964C61.9741 83.3517 60.5546 83.2065 59.1909 83.0023C52.3336 81.9757 39.4283 81.1294 23.4041 82.1802L23.3991 82.1805L23.3942 82.1807C21.9795 82.2452 20.6889 82.527 19.346 82.8238L19.2949 82.8351C17.9767 83.1265 16.607 83.4292 15.0834 83.5141L15.0776 83.5144L15.0718 83.5146C12.8909 83.5851 11.076 82.8798 9.80056 81.9232C9.16378 81.4456 8.65513 80.9007 8.30233 80.35C7.95347 79.8055 7.73779 79.2242 7.73779 78.6806C7.73779 77.5854 8.27277 76.6244 9.13364 75.8002C9.99025 74.9801 11.1994 74.2642 12.6375 73.6377C15.5163 72.3837 19.431 71.438 23.6257 70.7686ZM9.8229 76.5235C9.08947 77.2257 8.73569 77.9421 8.73569 78.6806C8.73569 78.9704 8.8568 79.3644 9.14203 79.8096C9.4233 80.2487 9.84603 80.7081 10.3984 81.1224C11.5002 81.9486 13.0927 82.5765 15.0339 82.5151C16.4741 82.4343 17.7749 82.1468 19.1092 81.8519L19.1311 81.8471C20.4644 81.5524 21.8333 81.2511 23.3439 81.1818C39.4267 80.1276 52.402 80.9747 59.3383 82.0131C60.6791 82.2138 61.9964 82.3432 63.2905 82.2021C64.585 82.0609 65.6324 81.8244 66.3767 81.4274C67.089 81.0473 67.5029 80.5347 67.6139 79.7956C67.6696 78.8197 67.0036 77.81 65.6103 76.7915C64.2292 75.7819 62.2587 74.8591 60.0205 74.05C55.5509 72.4343 50.1404 71.3158 46.5899 70.8413C41.6625 70.1829 32.1087 70.4278 23.7826 71.7564C19.6199 72.4206 15.8009 73.3502 13.0353 74.555C11.6513 75.1579 10.5606 75.8173 9.8229 76.5235Z" fill="#2C2C2C"/>
<path d="M23.3716 81.6811C20.4445 81.8145 18.0495 82.848 15.0558 83.0147C12.2639 83.105 10.1273 81.851 9.03809 80.5142C22.0411 104.852 62.1233 95.3504 66.9269 81.6811C66.0771 82.2449 64.8306 82.5372 63.3442 82.6993C61.985 82.8475 60.6169 82.7101 59.2647 82.5077C52.3676 81.4751 39.4263 80.6284 23.3716 81.6811Z" fill="#8CBD6E"/>
<path fill-rule="evenodd" clip-rule="evenodd" d="M8.59814 80.7503L9.42444 80.1979C10.4164 81.4153 12.403 82.5983 15.0339 82.5151C16.4741 82.4343 17.7749 82.1468 19.1092 81.8519L19.1312 81.8471C20.4644 81.5524 21.8334 81.2511 23.3439 81.1818C39.4267 80.1276 52.4021 80.9747 59.3383 82.0131C60.6791 82.2138 61.996 82.3432 63.2902 82.2021C64.7627 82.0415 65.9069 81.758 66.6514 81.2641L67.8914 80.4415L67.3974 81.8473C66.1352 85.439 62.5979 88.674 57.9151 91.1311C53.2152 93.5972 47.2831 95.3226 41.0994 95.8487C28.7484 96.8995 15.2313 93.1658 8.59814 80.7503ZM10.8613 82.5882C17.608 92.6781 29.6956 95.8151 41.015 94.8521C47.0777 94.3363 52.8795 92.6444 57.4523 90.245C61.484 88.1295 64.5006 85.497 65.9471 82.6902C65.1932 82.942 64.3245 83.0954 63.3981 83.1964C61.9737 83.3517 60.5546 83.2065 59.1909 83.0023C52.3336 81.9757 39.4283 81.1294 23.4041 82.1802L23.3992 82.1805L23.3942 82.1807C21.9796 82.2452 20.689 82.527 19.346 82.8238L19.295 82.8351C17.9768 83.1264 16.607 83.4292 15.0834 83.514L15.0776 83.5144L15.0718 83.5146C13.4403 83.5673 12.0124 83.1859 10.8613 82.5882Z" fill="#2C2C2C"/>
<path d="M26.0328 77.8471L22.2075 78.1805C22.7065 76.8469 27.0307 66.845 30.5233 66.845C31.8966 66.8449 32.895 69.0052 33.1669 70.2942C33.2902 70.8788 32.9639 71.3847 32.5273 71.7917L26.0328 77.8471Z" fill="#8CBD6E"/>
<path fill-rule="evenodd" clip-rule="evenodd" d="M27.458 68.085C28.3764 67.1116 29.4286 66.3449 30.5232 66.3449C31.4788 66.3449 32.2018 67.0828 32.6762 67.8134C33.1692 68.5728 33.508 69.4941 33.6549 70.1907C33.8342 71.0408 33.3416 71.7154 32.867 72.1579L26.2468 78.3304L21.4624 78.7474L21.7402 78.0049C21.9985 77.3144 23.2166 74.4533 24.8136 71.7573C25.6116 70.4102 26.517 69.0824 27.458 68.085ZM22.9788 77.6112L25.8185 77.3637L32.1874 71.4256C32.5859 71.054 32.7459 70.7169 32.6786 70.3976C32.5537 69.8053 32.2573 69.002 31.8398 68.359C31.4037 67.6873 30.9409 67.345 30.5232 67.345C29.8714 67.3451 29.0734 67.8285 28.1831 68.7722C27.3154 69.6918 26.4537 70.9478 25.6717 72.2679C24.4634 74.3076 23.4759 76.4478 22.9788 77.6112Z" fill="#2C2C2C"/>
<path fill-rule="evenodd" clip-rule="evenodd" d="M15.8871 64.0111C16.1627 64.0111 16.3861 64.235 16.3861 64.5112C16.3861 64.7766 16.4589 64.9504 16.5541 65.0734C16.6541 65.2026 16.8049 65.3085 17.0058 65.3879C17.4199 65.5517 17.9506 65.5646 18.3159 65.5157C18.5891 65.4792 18.84 65.6716 18.8764 65.9454C18.9129 66.2191 18.721 66.4707 18.4478 66.5072C17.9816 66.5695 17.2649 66.5657 16.6395 66.3183C16.3206 66.1921 16.0037 65.9938 15.7659 65.6867C15.5233 65.3736 15.3882 64.9792 15.3882 64.5112C15.3882 64.235 15.6116 64.0111 15.8871 64.0111Z" fill="#2C2C2C"/>
<path fill-rule="evenodd" clip-rule="evenodd" d="M37.1554 69.8253C36.9606 70.0206 36.9606 70.3372 37.1554 70.5325C38.4952 71.8754 39.5041 73.0751 39.5041 74.6798C39.5041 74.956 39.7274 75.1799 40.003 75.1799C40.2786 75.1799 40.502 74.956 40.502 74.6798C40.502 72.6171 39.1824 71.1497 37.8611 69.8253C37.6662 69.63 37.3503 69.63 37.1554 69.8253Z" fill="#2C2C2C"/>
<path fill-rule="evenodd" clip-rule="evenodd" d="M43.4946 69.8072C43.2898 69.992 43.2732 70.3082 43.4575 70.5135C44.701 71.8983 45.6579 73.1536 45.6579 74.8465C45.6579 75.1227 45.8813 75.3466 46.1568 75.3466C46.4324 75.3466 46.6558 75.1227 46.6558 74.8465C46.6558 72.7362 45.4394 71.2255 44.1993 69.8444C44.0149 69.6391 43.6994 69.6224 43.4946 69.8072Z" fill="#2C2C2C"/>
<path fill-rule="evenodd" clip-rule="evenodd" d="M40.4682 69.8397C40.2813 70.0427 40.2939 70.3591 40.4964 70.5464C41.5297 71.5024 42.0083 72.3024 42.2262 73.0668C42.4481 73.8453 42.4166 74.6378 42.3334 75.6385C42.3105 75.9137 42.5146 76.1554 42.7892 76.1784C43.0638 76.2013 43.305 75.9968 43.3279 75.7215C43.411 74.7217 43.4627 73.764 43.1857 72.7921C42.9046 71.8061 42.3021 70.8558 41.1733 69.8115C40.9708 69.6241 40.6551 69.6368 40.4682 69.8397Z" fill="#2C2C2C"/>
<path fill-rule="evenodd" clip-rule="evenodd" d="M14.7757 61.0213L14.2134 62.2301C14.0433 62.266 13.8606 62.2491 13.6909 62.1698C13.2747 61.9752 13.0946 61.4793 13.2887 61.0621C13.4828 60.6449 13.9776 60.4644 14.3938 60.659C14.5635 60.7383 14.6939 60.8676 14.7757 61.0213Z" fill="#2C2C2C"/>
</g>
<path d="M7.4625 106.876C7.35248 106.876 7.25437 106.867 7.16819 106.849C7.08201 106.832 7.02241 106.816 6.98941 106.8L7.15444 106.231C7.31213 106.271 7.45149 106.286 7.57252 106.275C7.69354 106.264 7.80081 106.21 7.89433 106.113C7.98968 106.019 8.07678 105.865 8.15563 105.651L8.27665 105.323L6.71436 101.102H7.41849L8.58471 104.449H8.62872L9.79493 101.102H10.4991L8.70573 105.914C8.62505 106.131 8.52511 106.31 8.40592 106.452C8.28673 106.596 8.14829 106.703 7.9906 106.772C7.83473 106.842 7.6587 106.876 7.4625 106.876Z" fill="#2D2C2C"/>
<path d="M2.47314 105.301V99.7025H3.12227V101.769H3.17728C3.22495 101.696 3.29096 101.603 3.37531 101.49C3.4615 101.376 3.58435 101.274 3.74388 101.184C3.90525 101.093 4.12345 101.048 4.39851 101.048C4.75424 101.048 5.0678 101.136 5.33918 101.313C5.61057 101.49 5.82236 101.74 5.97455 102.065C6.12675 102.389 6.20285 102.772 6.20285 103.213C6.20285 103.658 6.12675 104.043 5.97455 104.369C5.82236 104.694 5.61148 104.945 5.34193 105.124C5.07238 105.301 4.76157 105.389 4.40951 105.389C4.13812 105.389 3.92083 105.344 3.75764 105.255C3.59444 105.164 3.46883 105.061 3.38081 104.946C3.2928 104.829 3.22495 104.733 3.17728 104.656H3.10026V105.301H2.47314ZM3.11126 103.202C3.11126 103.519 3.15802 103.799 3.25154 104.041C3.34506 104.282 3.48167 104.47 3.66137 104.607C3.84107 104.742 4.06111 104.809 4.32149 104.809C4.59288 104.809 4.81934 104.738 5.00087 104.596C5.18424 104.452 5.32176 104.259 5.41345 104.017C5.50696 103.772 5.55372 103.501 5.55372 103.202C5.55372 102.907 5.50788 102.641 5.4162 102.404C5.32635 102.165 5.18974 101.976 5.00637 101.838C4.82484 101.697 4.59654 101.627 4.32149 101.627C4.05744 101.627 3.83557 101.694 3.65587 101.827C3.47617 101.958 3.34047 102.142 3.24879 102.379C3.15711 102.614 3.11126 102.888 3.11126 103.202Z" fill="#2D2C2C"/>
<path d="M64.246 106.585H63.2925L66.0503 99.1193H66.9892L69.747 106.585H68.7935L66.5491 100.3H66.4904L64.246 106.585ZM64.5981 103.668H68.4414V104.47H64.5981V103.668Z" fill="#2D2C2C"/>
<path d="M57.7783 99.9212V99.1193H63.4114V99.9212H61.0496V106.585H60.1401V99.9212H57.7783Z" fill="#2D2C2C"/>
<path d="M52.0171 106.585V99.1193H56.5499V99.9212H52.9266V102.444H56.3152V103.246H52.9266V105.783H56.6086V106.585H52.0171Z" fill="#2D2C2C"/>
<path d="M45.3003 106.585V99.1193H47.9261C48.4493 99.1193 48.8809 99.2092 49.2207 99.389C49.5605 99.5664 49.8136 99.8058 49.9798 100.107C50.1461 100.406 50.2292 100.738 50.2292 101.102C50.2292 101.423 50.1718 101.688 50.0569 101.897C49.9444 102.106 49.7952 102.271 49.6094 102.393C49.4261 102.514 49.2268 102.604 49.0117 102.662V102.735C49.2415 102.75 49.4725 102.83 49.7048 102.976C49.9371 103.122 50.1314 103.331 50.2879 103.603C50.4444 103.875 50.5226 104.208 50.5226 104.602C50.5226 104.976 50.437 105.312 50.2659 105.611C50.0947 105.91 49.8246 106.147 49.4554 106.322C49.0862 106.497 48.6058 106.585 48.0141 106.585H45.3003ZM46.2098 105.783H48.0141C48.6082 105.783 49.03 105.668 49.2794 105.44C49.5312 105.209 49.6571 104.93 49.6571 104.602C49.6571 104.349 49.5923 104.116 49.4627 103.902C49.3332 103.685 49.1486 103.513 48.909 103.384C48.6694 103.253 48.3858 103.187 48.0581 103.187H46.2098V105.783ZM46.2098 102.4H47.8968C48.1706 102.4 48.4175 102.346 48.6376 102.24C48.8601 102.133 49.0361 101.982 49.1657 101.788C49.2977 101.593 49.3637 101.365 49.3637 101.102C49.3637 100.774 49.2488 100.496 49.019 100.268C48.7892 100.037 48.4249 99.9212 47.9261 99.9212H46.2098V102.4Z" fill="#2D2C2C"/>
<path d="M63.7336 5.75388H64.5586V7.09878H66.2467L66.1198 8.16455H64.5586V11.5014C64.5586 11.8736 64.6263 12.1358 64.7617 12.2881C64.8971 12.4318 65.1044 12.5037 65.3836 12.5037C65.6713 12.5037 65.959 12.4149 66.2467 12.2373L66.6275 13.2143C66.2044 13.5103 65.6671 13.6583 65.0155 13.6583C64.6347 13.6583 64.3132 13.6076 64.0509 13.5061C63.7886 13.413 63.5939 13.3073 63.467 13.1889C63.3401 13.0705 63.2428 12.8971 63.1751 12.6687C63.1074 12.4403 63.0693 12.2627 63.0609 12.1358C63.0524 12.0005 63.0482 11.8059 63.0482 11.5522V8.16455H62.147L62.2739 7.23834C62.6716 7.20451 62.972 7.06494 63.1751 6.81965C63.3782 6.56589 63.5643 6.21064 63.7336 5.75388Z" fill="#333333"/>
<path d="M61.0702 7.35253V12.0724C61.0702 12.2077 61.0913 12.3007 61.1336 12.3515C61.1844 12.4022 61.269 12.4318 61.3875 12.4403L61.7936 12.4657V13.4807H59.7755V12.7448L59.7374 12.7321C59.3143 13.3411 58.7347 13.6456 57.9985 13.6456C57.1354 13.6456 56.4965 13.3707 56.0819 12.8209C55.6673 12.2711 55.46 11.5183 55.46 10.5625C55.46 9.41217 55.7392 8.51557 56.2977 7.87273C56.8562 7.22988 57.6939 6.90846 58.8108 6.90846C59.5301 6.90846 60.2832 7.05649 61.0702 7.35253ZM59.5978 11.4634V8.17723C59.3609 8.06727 59.0351 8.01229 58.6205 8.01229C58.0535 8.01229 57.6431 8.24067 57.3893 8.69743C57.1354 9.15419 57.0085 9.75897 57.0085 10.5118C57.0085 11.882 57.4485 12.5672 58.3285 12.5672C58.7008 12.5672 59.0055 12.4572 59.2424 12.2373C59.4793 12.0089 59.5978 11.7509 59.5978 11.4634Z" fill="#333333"/>
<path d="M51.5849 12.5545C52.5072 12.5545 52.9684 11.8102 52.9684 10.3215C52.9684 9.56865 52.8626 8.99771 52.651 8.60862C52.448 8.21953 52.101 8.02498 51.6102 8.02498C51.1279 8.02498 50.7725 8.21107 50.5441 8.58324C50.3156 8.95541 50.2013 9.46292 50.2013 10.1058C50.2013 11.2984 50.4214 12.047 50.8614 12.3515C51.056 12.4868 51.2972 12.5545 51.5849 12.5545ZM48.6655 10.2834C48.6655 9.65747 48.7586 9.11613 48.9448 8.65937C49.1309 8.19415 49.3806 7.8389 49.6936 7.5936C50.2944 7.13684 50.9587 6.90846 51.6864 6.90846C52.1941 6.90846 52.6214 6.99305 52.9684 7.16222C53.3238 7.32293 53.5988 7.51324 53.7934 7.73316C53.9965 7.94463 54.1657 8.25759 54.3011 8.67206C54.445 9.07806 54.5169 9.5602 54.5169 10.1185C54.5169 11.2857 54.2334 12.1696 53.6665 12.7702C53.0995 13.3707 52.3718 13.671 51.4833 13.671C50.6033 13.671 49.9136 13.3877 49.4144 12.8209C48.9152 12.2458 48.6655 11.3999 48.6655 10.2834Z" fill="#333333"/>
<path d="M42.1707 13.1001V5.81732C42.1707 5.62277 42.065 5.52127 41.8534 5.51281L41.4092 5.48744V4.43436H43.6431V7.44135C44.0239 7.08609 44.5358 6.90846 45.1789 6.90846C45.9743 6.90846 46.6047 7.17913 47.0701 7.72048C47.5355 8.25336 47.7682 9.00616 47.7682 9.97889C47.7682 12.4234 46.7444 13.6456 44.6966 13.6456C44.2566 13.6456 43.7912 13.5907 43.3004 13.4807C42.8181 13.3792 42.4415 13.2523 42.1707 13.1001ZM43.6431 8.98925V12.2754C43.9647 12.4445 44.337 12.5291 44.7601 12.5291C45.7247 12.5291 46.207 11.7467 46.207 10.1819C46.207 8.75241 45.7332 8.03767 44.7854 8.03767C44.4808 8.03767 44.2143 8.12648 43.9858 8.30411C43.7573 8.48174 43.6431 8.71012 43.6431 8.98925Z" fill="#333333"/>
<path d="M38.6502 6.90846C39.2849 6.90846 39.7884 7.06494 40.1607 7.37791C40.533 7.68241 40.7192 8.1138 40.7192 8.67206C40.7192 9.04423 40.6388 9.37411 40.478 9.6617C40.3172 9.94083 40.1184 10.1607 39.8814 10.3215C39.6445 10.4822 39.3568 10.6133 39.0183 10.7148C38.4514 10.8839 37.8125 10.9685 37.1017 10.9685C37.1271 11.4168 37.2667 11.7805 37.5206 12.0597C37.7744 12.3303 38.1637 12.4657 38.6883 12.4657C39.213 12.4657 39.7376 12.2796 40.2622 11.9074L40.7445 12.9351C40.5753 13.0874 40.2876 13.2439 39.8814 13.4046C39.4837 13.5653 39.0268 13.6456 38.5106 13.6456C37.4783 13.6456 36.7209 13.3623 36.2386 12.7956C35.7563 12.2204 35.5151 11.4337 35.5151 10.4356C35.5151 9.43755 35.7901 8.60016 36.3402 7.92348C36.8902 7.2468 37.6602 6.90846 38.6502 6.90846ZM38.0664 9.81395C38.3795 9.75474 38.6672 9.63209 38.9295 9.44601C39.1918 9.25146 39.323 9.02308 39.323 8.76087C39.323 8.2449 39.0691 7.98692 38.5614 7.98692C38.0875 7.98692 37.7237 8.17723 37.4698 8.55787C37.216 8.93004 37.0763 9.37834 37.051 9.90276C37.4233 9.89431 37.7618 9.8647 38.0664 9.81395Z" fill="#333333"/>
<path d="M33.9556 4.43436V12.4276L34.6791 12.4657V13.4807H31.6582V12.5164L32.0771 12.4784C32.3225 12.453 32.4452 12.3177 32.4452 12.0724V5.81732C32.4452 5.63123 32.3394 5.52973 32.1278 5.51281L31.6836 5.48744V4.43436H33.9556Z" fill="#333333"/>
<path d="M28.3083 5.75388H29.1333V7.09878H30.8214L30.6945 8.16455H29.1333V11.5014C29.1333 11.8736 29.201 12.1358 29.3364 12.2881C29.4718 12.4318 29.6791 12.5037 29.9583 12.5037C30.246 12.5037 30.5337 12.4149 30.8214 12.2373L31.2022 13.2143C30.7791 13.5103 30.2418 13.6583 29.5902 13.6583C29.2095 13.6583 28.8879 13.6076 28.6256 13.5061C28.3633 13.413 28.1687 13.3073 28.0417 13.1889C27.9148 13.0705 27.8175 12.8971 27.7498 12.6687C27.6821 12.4403 27.644 12.2627 27.6356 12.1358C27.6271 12.0005 27.6229 11.8059 27.6229 11.5522V8.16455H26.7217L26.8486 7.23834C27.2463 7.20451 27.5467 7.06494 27.7498 6.81965C27.9529 6.56589 28.139 6.21064 28.3083 5.75388Z" fill="#333333"/>
<path d="M21.8231 12.0597V8.54518C21.8231 8.40984 21.7977 8.3168 21.7469 8.26605C21.7046 8.20684 21.6242 8.173 21.5058 8.16455L20.9727 8.12648V7.09878H23.1177V8.05036C23.27 7.72048 23.507 7.44981 23.8285 7.23834C24.1501 7.01842 24.5182 6.90846 24.9328 6.90846C25.3559 6.90846 25.7578 7.00151 26.1386 7.18759V9.07806L24.9582 9.16688V8.58324C24.9582 8.41407 24.9159 8.30834 24.8312 8.26605C24.7382 8.22376 24.6239 8.20261 24.4885 8.20261C24.1501 8.20261 23.8708 8.32526 23.6508 8.57055C23.4393 8.80739 23.3335 9.1119 23.3335 9.48407V12.4276L24.4378 12.4784V13.4807H21.0361V12.5164L21.455 12.4784C21.5819 12.4615 21.675 12.4276 21.7342 12.3769C21.7935 12.3177 21.8231 12.2119 21.8231 12.0597Z" fill="#333333"/>
<path d="M20.2642 12.4784V13.4807H18.208V12.656C17.7426 13.3158 17.0572 13.6456 16.1518 13.6456C14.8402 13.6456 14.1844 12.914 14.1844 11.4507V8.5198C14.1844 8.29142 14.0787 8.173 13.8671 8.16455L13.4609 8.13917V7.09878H15.6949V11.1208C15.6949 11.5691 15.7583 11.9074 15.8853 12.1358C16.0122 12.3642 16.2745 12.4784 16.6722 12.4784C17.0699 12.4784 17.3872 12.3557 17.6242 12.1104C17.8695 11.8651 17.9922 11.5691 17.9922 11.2223V8.54518C17.9922 8.40984 17.9669 8.3168 17.9161 8.26605C17.8738 8.20684 17.7934 8.173 17.6749 8.16455L17.2688 8.13917V7.09878H19.5027V12.0724C19.5027 12.2077 19.5238 12.3007 19.5661 12.3515C19.6085 12.3938 19.6931 12.4234 19.82 12.4403L20.2642 12.4784Z" fill="#333333"/>
<path d="M8.86959 12.0597V6.29945H7.87956C7.68494 6.29945 7.58763 6.43056 7.58763 6.69277V7.2891L6.29297 7.20028V5.04337H12.9313V7.20028L11.6366 7.2891V6.69277C11.6366 6.54898 11.6155 6.44748 11.5731 6.38827C11.5308 6.32906 11.4293 6.29945 11.2685 6.29945H10.4054V12.3642L11.4081 12.4022V13.4807H7.82879V12.453L8.50151 12.4149C8.7469 12.3896 8.86959 12.2711 8.86959 12.0597Z" fill="#333333"/>
<path d="M15.8398 102.753L14.3386 104.746C14.2747 104.986 14.6685 105.056 14.6226 104.918C14.5768 104.781 16.3009 102.673 16.3009 102.608C16.4074 102.515 16.6375 102.329 16.7058 102.329C17.0593 102.329 16.9519 101.665 17.1633 101.381C17.3518 101.129 17.5452 100.879 17.6124 100.821C17.7499 100.701 18.5753 99.6838 18.5937 99.4821C18.612 99.2804 18.4928 99.0604 18.3552 99.1337C18.2177 99.2071 17.7132 99.8763 17.5573 100.445C17.4326 100.899 16.5986 101.819 16.1971 102.222C15.7176 102.37 15.3423 102.028 15.2146 101.839L15.159 99.8928C15.1631 99.8557 15.1404 99.7779 15.0168 99.763C14.8932 99.7482 14.8655 99.8433 14.867 99.8928C14.8526 100.477 14.8325 101.709 14.867 101.968C14.9101 102.291 15.5945 102.372 15.7561 102.436C15.8854 102.488 15.8658 102.669 15.8398 102.753Z" fill="#2D2C2C"/>
<path d="M22.0545 109.465L22.534 109.853C20.2984 112.71 18.6045 110.102 18.3103 109.631C17.9995 109.134 17.5131 106.403 17.7992 103.665C18.0854 100.927 19.4752 100.226 19.7414 100.052C19.9543 99.9124 20.6379 99.8837 20.953 99.8867C20.9683 99.8531 21.0356 99.7454 21.1825 99.584C21.3293 99.4225 21.4517 99.5167 21.4945 99.584L22.1738 100.951L21.6873 101.107C21.2687 100.579 20.7238 100.508 20.5037 100.539C17.9644 101.233 18.2348 106.194 18.6875 108.588C19.3099 110.454 20.0954 110.516 20.5037 110.516C21.0117 110.516 21.7314 109.9 22.0545 109.465Z" fill="#2D2C2C"/>
<path d="M24.7923 107.685H23.3589V107.414C23.5396 107.414 23.7702 107.23 23.863 107.138C23.8448 104.969 23.8063 100.591 23.7976 100.427C23.7889 100.262 23.5015 100.132 23.3589 100.088V99.8196H24.7582V100.027C24.5924 100.1 24.4417 100.324 24.387 100.427V107.138C24.4834 107.292 24.6974 107.386 24.7923 107.414V107.685Z" fill="#2D2C2C"/>
<path d="M27.8689 107.685H26.4356V107.414C26.6162 107.414 26.8469 107.23 26.9397 107.138C26.9215 104.969 26.883 100.424 26.8743 100.259C26.7961 100.073 26.5282 100.136 26.404 100.191C25.992 100.303 25.8572 100.573 25.8048 100.603C25.7524 100.633 25.5726 100.513 25.6101 100.386C25.64 100.284 25.8277 99.9511 25.9048 99.8196H28.4257C28.5028 99.9511 28.6644 100.24 28.6944 100.341C28.7318 100.469 28.5521 100.588 28.4997 100.558C28.4472 100.529 28.3124 100.259 27.9005 100.147C27.5709 100.057 27.472 100.184 27.4637 100.259V107.138C27.5601 107.292 27.774 107.386 27.8689 107.414V107.685Z" fill="#2D2C2C"/>
<path d="M30.8831 107.685H29.4497V107.414C29.6304 107.414 29.8611 107.23 29.9538 107.138C29.9357 104.969 29.8972 100.591 29.8885 100.427C29.8797 100.262 29.5923 100.132 29.4497 100.088V99.8196H30.849V100.027C30.6832 100.1 30.5325 100.324 30.4779 100.427V107.138C30.5743 107.292 30.7882 107.386 30.8831 107.414V107.685Z" fill="#2D2C2C"/>
<path d="M32.0049 100.088V99.8196H33.803C33.8992 99.8057 34.1473 99.7501 34.3698 99.6389L34.7492 100.199C34.6606 100.299 34.45 100.449 34.3156 100.249C34.1813 100.05 33.9967 100.057 33.9211 100.086H33.0377C33.0011 100.118 32.9268 100.196 32.9224 100.249C32.918 100.303 32.9206 100.795 32.9224 101.035C32.9462 101.095 33.0125 101.217 33.0872 101.222C33.1618 101.226 33.8101 101.223 34.1249 101.222L34.619 100.925L34.7783 101.09V101.853L34.5641 101.924L34.1249 101.606H33.0872C33.0322 101.633 32.9224 101.711 32.9224 101.803V107.138C32.9536 107.171 33.0465 107.247 33.1695 107.286C33.2925 107.326 34.0883 107.303 34.4708 107.286L34.9759 106.93C35.0894 106.917 35.3043 106.931 35.2559 107.089C35.2076 107.247 34.9686 107.63 34.8551 107.802C34.7105 107.813 34.4104 107.822 34.3665 107.769C34.3225 107.717 32.7738 107.691 32.0049 107.685V107.414C32.1856 107.414 32.4162 107.23 32.509 107.138C32.4908 104.969 32.4523 100.591 32.4436 100.427C32.4349 100.262 32.1475 100.132 32.0049 100.088Z" fill="#2D2C2C"/>
<path d="M35.9523 107.713L35.7534 106.476H36.0629C36.3513 107.529 37.1659 107.531 37.5775 107.456C38.6451 106.859 38.4075 105.537 38.1552 104.951C37.5044 103.656 36.187 101.047 36.1243 100.968C36.0458 100.868 36.0144 100.021 36.1504 99.7807C36.2864 99.5401 36.8044 99.4616 36.9195 99.4826C37.0116 99.4993 37.3171 99.3989 37.4583 99.3466L37.8298 100.225C37.9177 100.418 37.631 100.534 37.4583 100.487L36.9875 100.089C36.4559 99.8926 36.4098 100.386 36.4532 100.657L38.366 104.177C38.4213 104.133 38.9656 105.422 38.6668 106.616C38.366 107.818 37.4162 107.955 36.885 107.856C36.7026 107.733 36.3316 107.508 36.3067 107.582C36.2819 107.657 36.0601 107.7 35.9523 107.713Z" fill="#2D2C2C"/>
<defs>
<clipPath id="clip0_2479_1969">
<rect width="64.5454" height="76.9854" fill="white" transform="translate(4.06982 19.0316)"/>
</clipPath>
</defs>
</svg>
