<svg width="47" height="47" viewBox="0 0 47 47" fill="none" xmlns="http://www.w3.org/2000/svg">
<g filter="url(#filter0_d_2803_4370)">
<rect width="32.269" height="32.269" rx="4" transform="matrix(0.707107 0.707107 0.707107 -0.707107 1 23.8176)" fill="#54BBBD"/>
<rect x="2.12132" y="-8.9407e-08" width="29.269" height="29.269" rx="2.5" transform="matrix(0.707107 0.707107 0.707107 -0.707107 1.62132 22.3176)" stroke="white" stroke-width="3"/>
</g>
<path d="M18.0968 15.6265C18.0968 14.864 18.714 14.283 19.4402 14.283L28.6266 14.283C29.3891 14.283 29.97 14.9003 29.97 15.6265C29.97 16.389 29.3528 16.9699 28.6266 16.9699L28.5176 16.9699C28.3361 16.9699 28.1545 16.8247 28.1545 16.6068C28.1545 16.4253 28.2998 16.2437 28.5176 16.2437L28.6266 16.2437C28.9897 16.2437 29.2438 15.9533 29.2438 15.6265C29.2438 15.2634 28.9534 15.0092 28.6266 15.0092L19.4402 15.0092C19.0771 15.0092 18.823 15.2997 18.823 15.6265C18.823 15.9896 19.1134 16.2437 19.4402 16.2437L19.5492 16.2437C19.7307 16.2437 19.9122 16.389 19.9122 16.6068C19.9122 16.7884 19.767 16.9699 19.5492 16.9699L19.4402 16.9699C18.714 16.9699 18.0968 16.389 18.0968 15.6265Z" fill="white"/>
<path d="M21.1646 15.7355L26.9742 15.7355C27.2048 15.7355 27.3918 15.9224 27.3918 16.153C27.3918 16.3836 27.2048 16.5706 26.9742 16.5706L21.1646 16.5706C20.934 16.5706 20.7471 16.3836 20.7471 16.153C20.7471 15.9224 20.934 15.7355 21.1646 15.7355Z" fill="white"/>
<path d="M20.3663 29.3154L27.7735 29.3154C28.0041 29.3154 28.191 29.5023 28.191 29.733C28.191 29.9636 28.0041 30.1505 27.7735 30.1505L20.3663 30.1505C20.1357 30.1505 19.9487 29.9636 19.9487 29.733C19.9487 29.5023 20.1357 29.3154 20.3663 29.3154Z" fill="white"/>
<path d="M19.0591 30.8765L29.1169 30.8765C29.3475 30.8765 29.5345 31.0634 29.5345 31.2941C29.5345 31.5247 29.3475 31.7116 29.1169 31.7116L19.0591 31.7116C18.8285 31.7116 18.6416 31.5247 18.6416 31.2941C18.6416 31.0634 18.8285 30.8765 19.0591 30.8765Z" fill="white"/>
<path d="M26.4842 27.99L26.4842 17.8596C26.4842 17.5288 26.7524 17.2605 27.0833 17.2605C27.4142 17.2605 27.6824 17.5288 27.6824 17.8596L27.6824 27.99C27.6824 28.3209 27.4142 28.5891 27.0833 28.5891C26.7524 28.5891 26.4842 28.3209 26.4842 27.99Z" fill="white"/>
<path d="M24.4868 27.99L24.4868 17.8596C24.4868 17.5288 24.755 17.2605 25.0859 17.2605C25.4168 17.2605 25.685 17.5288 25.685 17.8596L25.685 27.99C25.685 28.3209 25.4168 28.5891 25.0859 28.5891C24.755 28.5891 24.4868 28.3209 24.4868 27.99Z" fill="white"/>
<path d="M22.49 27.99L22.49 17.8596C22.49 17.5288 22.7582 17.2605 23.0891 17.2605C23.42 17.2605 23.6882 17.5288 23.6882 17.8596L23.6882 27.99C23.6882 28.3209 23.42 28.5891 23.0891 28.5891C22.7582 28.5891 22.49 28.3209 22.49 27.99Z" fill="white"/>
<path d="M20.4566 27.99L20.4566 17.8596C20.4566 17.5288 20.7249 17.2605 21.0557 17.2605C21.3866 17.2605 21.6548 17.5288 21.6548 17.8596L21.6548 27.99C21.6548 28.3209 21.3866 28.5891 21.0557 28.5891C20.7249 28.5891 20.4566 28.3209 20.4566 27.99Z" fill="white"/>
<defs>
<filter id="filter0_d_2803_4370" x="0.65686" y="0.65686" width="46.3215" height="46.3215" filterUnits="userSpaceOnUse" color-interpolation-filters="sRGB">
<feFlood flood-opacity="0" result="BackgroundImageFix"/>
<feColorMatrix in="SourceAlpha" type="matrix" values="0 0 0 0 0 0 0 0 0 0 0 0 0 0 0 0 0 0 127 0" result="hardAlpha"/>
<feOffset/>
<feGaussianBlur stdDeviation="1"/>
<feColorMatrix type="matrix" values="0 0 0 0 0 0 0 0 0 0 0 0 0 0 0 0 0 0 0.25 0"/>
<feBlend mode="normal" in2="BackgroundImageFix" result="effect1_dropShadow_2803_4370"/>
<feBlend mode="normal" in="SourceGraphic" in2="effect1_dropShadow_2803_4370" result="shape"/>
</filter>
</defs>
</svg>
