<svg width="47" height="47" viewBox="0 0 47 47" fill="none" xmlns="http://www.w3.org/2000/svg">
<g filter="url(#filter0_d_2803_4359)">
<rect width="32.269" height="32.269" rx="4" transform="matrix(0.707107 0.707107 0.707107 -0.707107 1 23.8176)" fill="#EB7B57"/>
<rect x="2.12132" y="-8.9407e-08" width="29.269" height="29.269" rx="2.5" transform="matrix(0.707107 0.707107 0.707107 -0.707107 1.62132 22.3176)" stroke="white" stroke-width="3"/>
</g>
<path d="M18.0968 14.6265C18.0968 13.864 18.7141 13.283 19.4403 13.283L28.6266 13.283C29.3891 13.283 29.9701 13.9003 29.9701 14.6265C29.9701 15.389 29.3528 15.9699 28.6266 15.9699L28.5177 15.9699C28.3361 15.9699 28.1546 15.8247 28.1546 15.6068C28.1546 15.4253 28.2998 15.2437 28.5177 15.2437L28.6266 15.2437C28.9897 15.2437 29.2439 14.9533 29.2439 14.6265C29.2439 14.2634 28.9534 14.0092 28.6266 14.0092L19.4403 14.0092C19.0772 14.0092 18.823 14.2997 18.823 14.6265C18.823 14.9896 19.1135 15.2437 19.4403 15.2437L19.5492 15.2437C19.7307 15.2437 19.9123 15.389 19.9123 15.6068C19.9123 15.7884 19.767 15.9699 19.5492 15.9699L19.4403 15.9699C18.7141 15.9699 18.0968 15.389 18.0968 14.6265Z" fill="white"/>
<path d="M21.1647 14.7355L26.9742 14.7355C27.2048 14.7355 27.3918 14.9224 27.3918 15.153C27.3918 15.3836 27.2048 15.5706 26.9742 15.5706L21.1647 15.5706C20.9341 15.5706 20.7471 15.3836 20.7471 15.153C20.7471 14.9224 20.9341 14.7355 21.1647 14.7355Z" fill="white"/>
<path d="M20.3663 28.3154L27.7735 28.3154C28.0041 28.3154 28.1911 28.5023 28.1911 28.733C28.1911 28.9636 28.0041 29.1505 27.7735 29.1505L20.3663 29.1505C20.1357 29.1505 19.9488 28.9636 19.9488 28.733C19.9488 28.5023 20.1357 28.3154 20.3663 28.3154Z" fill="white"/>
<path d="M19.0591 29.8765L29.1169 29.8765C29.3475 29.8765 29.5345 30.0635 29.5345 30.2941C29.5345 30.5247 29.3475 30.7116 29.1169 30.7116L19.0591 30.7116C18.8285 30.7116 18.6416 30.5247 18.6416 30.2941C18.6416 30.0635 18.8285 29.8765 19.0591 29.8765Z" fill="white"/>
<path d="M26.4842 26.9901L26.4842 16.8597C26.4842 16.5288 26.7524 16.2605 27.0833 16.2605C27.4142 16.2605 27.6824 16.5288 27.6824 16.8597L27.6824 26.9901C27.6824 27.3209 27.4142 27.5892 27.0833 27.5892C26.7524 27.5892 26.4842 27.3209 26.4842 26.9901Z" fill="white"/>
<path d="M24.4868 26.9901L24.4868 16.8597C24.4868 16.5288 24.7551 16.2605 25.0859 16.2605C25.4168 16.2605 25.6851 16.5288 25.6851 16.8597L25.6851 26.9901C25.6851 27.3209 25.4168 27.5892 25.0859 27.5892C24.7551 27.5892 24.4868 27.3209 24.4868 26.9901Z" fill="white"/>
<path d="M22.49 26.9901L22.49 16.8597C22.49 16.5288 22.7583 16.2605 23.0892 16.2605C23.42 16.2605 23.6883 16.5288 23.6883 16.8597L23.6883 26.9901C23.6883 27.3209 23.42 27.5892 23.0892 27.5892C22.7583 27.5892 22.49 27.3209 22.49 26.9901Z" fill="white"/>
<path d="M20.4567 26.9901L20.4567 16.8597C20.4567 16.5288 20.7249 16.2605 21.0558 16.2605C21.3866 16.2605 21.6549 16.5288 21.6549 16.8597L21.6549 26.9901C21.6549 27.3209 21.3866 27.5892 21.0558 27.5892C20.7249 27.5892 20.4567 27.3209 20.4567 26.9901Z" fill="white"/>
<defs>
<filter id="filter0_d_2803_4359" x="0.65686" y="0.65686" width="46.3215" height="46.3215" filterUnits="userSpaceOnUse" color-interpolation-filters="sRGB">
<feFlood flood-opacity="0" result="BackgroundImageFix"/>
<feColorMatrix in="SourceAlpha" type="matrix" values="0 0 0 0 0 0 0 0 0 0 0 0 0 0 0 0 0 0 127 0" result="hardAlpha"/>
<feOffset/>
<feGaussianBlur stdDeviation="1"/>
<feColorMatrix type="matrix" values="0 0 0 0 0 0 0 0 0 0 0 0 0 0 0 0 0 0 0.25 0"/>
<feBlend mode="normal" in2="BackgroundImageFix" result="effect1_dropShadow_2803_4359"/>
<feBlend mode="normal" in="SourceGraphic" in2="effect1_dropShadow_2803_4359" result="shape"/>
</filter>
</defs>
</svg>
